<?xml version="1.0" encoding="UTF-8"?>
<svg id="_レイヤー_1" data-name="レイヤー 1" xmlns="http://www.w3.org/2000/svg" viewBox="0 0 100 20">
  <defs>
    <style>
      .cls-1 {
        fill: #00c800;
        stroke: #00c800;
        stroke-miterlimit: 10;
        stroke-width: .18px;
      }

      .cls-2 {
        fill: #00c800;
      }
    </style>
  </defs>
  <rect class="cls-2" x="99" width="1" height="20"/>
  <g>
    <path class="cls-1" d="M1.7,14.85l.15-5.87c-.27.37-1.21,1.59-1.57,1.59C.12,10.57,0,10.44,0,10.29c0-.07.03-.16.11-.23,1.1-.98,2.18-2.43,2.78-3.96.05-.13.15-.18.26-.18.16,0,.34.14.34.31,0,.1-.38.9-1.07,1.93l-.12,6.68c-.01.17-.16.26-.31.26s-.29-.07-.29-.25h0ZM6.63,11.17c.84,1.06,1.79,1.91,2.86,2.49.12.06.17.16.17.27,0,.16-.13.31-.31.31-.31,0-1.8-1.12-2.89-2.62.01.76.02,3.17.02,3.17,0,.17-.14.26-.28.26-.15,0-.29-.09-.29-.27,0,0,.03-2.41.04-3.17-1.11,1.78-2.58,2.82-2.84,2.82-.16,0-.29-.14-.29-.28,0-.09.04-.16.14-.23,1.24-.74,2.07-1.64,2.76-2.75l-2.3.02c-.17,0-.26-.12-.26-.25,0-.12.09-.25.26-.25h2.51s-.02-.79-.02-.79h0c0-.17.14-.26.28-.26s.29.09.29.26v.8s2.65-.01,2.65-.01c.16,0,.25.12.25.25,0,.12-.09.25-.25.25l-2.5-.02ZM7.42,9.57c-.37.02-.73.03-1.1.03-2.09,0-2.29-.02-2.29-1.52,0-.33.01-.68.02-.94.03-.52.38-.88.97-.89.42,0,.83-.02,1.23-.02s.8.01,1.18.02c.64.02.98.41,1,.85.01.26.02.56.02.88,0,.21-.01.44-.01.66-.01.53-.37.88-1.02.92ZM7.87,7.27c-.03-.53-.31-.54-1.5-.54-.39,0-.78,0-1.16.01-.43.01-.62.23-.63.55-.01.2-.02.47-.02.73q0,1.11,1.66,1.11c1.68,0,1.68-.05,1.68-.94,0-.31-.01-.67-.02-.92Z"/>
    <path class="cls-1" d="M12.57,14.82l.13-4.45c-.73.96-1.65,1.79-1.92,1.79-.15,0-.28-.12-.28-.26,0-.09.04-.17.15-.25,1.37-1,2.37-2.49,3.03-4.02h-2.51c-.18.01-.27-.12-.27-.25,0-.14.09-.27.27-.27h2.72c.15-.39.28-.78.39-1.17.04-.15.15-.21.27-.21.17,0,.34.12.34.28,0,.06-.2.64-.4,1.12h5.05c.18-.01.27.12.27.25,0,.14-.09.27-.27.27h-5.27c-.3.66-.63,1.3-1.01,1.89l-.12,5.27c-.01.19-.15.28-.3.28-.14,0-.28-.09-.28-.26h0ZM17.78,11.94c.04.23.06.47.06.72,0,2.18-1.26,2.3-1.72,2.3-.04,0-1,0-1-.42,0-.14.11-.29.27-.29.03,0,.07.01.11.02.23.09.45.14.66.14.45,0,1.14-.18,1.14-1.82,0-.21-.02-.44-.07-.66h-3.06c-.17,0-.26-.12-.26-.25,0-.12.09-.25.26-.25h2.91c-.14-.3-.34-.54-.66-.67-.1-.04-.14-.12-.14-.2,0-.13.11-.27.28-.27.2,0,.47.24.55.31.17-.11,1.13-.76,1.13-1.1,0-.11-.1-.16-.27-.16h-.62c-.68,0-1.61.01-2.27.02h-.01c-.16,0-.25-.12-.25-.24,0-.13.09-.26.26-.26.38-.01.83-.01,1.29-.01.63,0,1.27,0,1.73.01.54.01.81.23.81.53,0,.35-.39.87-1.51,1.55.1.15.18.31.25.48h2.04c.16,0,.25.12.25.25,0,.12-.09.25-.25.25h-1.92Z"/>
    <path class="cls-1" d="M25.77,8.36s-.01-.05-.06-.04c-.91.1-1.71.29-2.43.48-.47.13-.99.28-1.34.28-.2,0-.51-.08-.75-.29-.27-.23-.37-.38-.39-.48-.01-.04-.01-.06-.01-.09,0-.08.06-.09.12-.04.24.18.53.2.79.2.39,0,.78-.03,1.17-.07.88-.11,1.9-.23,2.82-.32.05,0,.06-.03.06-.06,0-.34-.01-.71-.05-1.02-.07-.66-.24-.83-.59-.93-.11-.03-.09-.1,0-.13.11-.03.21-.04.31-.04.57,0,.98.2.98.64,0,.15-.01.26-.01.31,0,.04.01.07.06.1.47.24,1.03.52,1.51.69.27.1.4.13.58.13.19,0,.53,0,.72,0,.39,0,.69.05.69.34,0,.19-.17.32-.44.32-.18,0-.37-.03-.65-.05-.47-.04-.84-.05-1.2-.05-.41,0-.91.01-1.36.05-.04,0-.06.01-.06.05-.04.51-.08,1.24-.09,1.7,0,.05.01.06.05.1.37.35.49.9.49,1.41,0,1.6-1.03,2.95-2.37,3.55-.02.01-.04.01-.06.01-.07,0-.11-.06-.02-.13.97-.64,1.52-1.51,1.64-2.6,0-.03-.01-.03-.04-.01-.14.11-.31.17-.52.17-.66,0-1.13-.54-1.13-1.34s.57-1.39,1.19-1.39c.11,0,.24,0,.33.04.04.01.05-.01.05-.04.01-.46.02-.95.01-1.43ZM24.5,11.05c0,.62.4,1,.76,1,.28,0,.65-.2.65-1.05,0-.57-.23-.9-.58-.9-.45,0-.83.48-.83.96ZM27.49,7.83c.11-.01.12-.02.12-.05,0-.02-.04-.05-.08-.08-.36-.26-.72-.48-1.1-.71-.04-.02-.06-.01-.06.02-.02.31-.07.63-.09.89,0,.02.02.03.05.03.33-.03.82-.07,1.17-.1Z"/>
    <path class="cls-1" d="M33.86,10.8c-.22.15-.42.32-.58.5-.22.26-.46.62-.71,1.03-.18.3-.33.37-.49.37-.21,0-.37-.18-.37-.36,0-.14.18-.41.41-.7.36-.44.72-.86,1.09-1.3.65-.81,1.28-1.6,1.83-2.35.25-.33.3-.52.3-.63,0-.11-.07-.18-.21-.18-.21,0-.59.2-1.28.81-.25.22-.47.35-.74.35-.24,0-.51-.23-.51-.57,0-.08,0-.17.01-.25.01-.11.09-.12.15-.02.07.12.14.18.22.18.13,0,.39-.11.65-.24.59-.31,1.33-.7,1.69-.7.18,0,.42.1.63.23.25.16.33.25.33.41,0,.15-.09.28-.31.47-.76.68-1.4,1.26-2.36,2.67-.04.04-.01.06.03.03.56-.29,1.11-.48,1.76-.48,1.43,0,2.48.87,2.48,1.94,0,1.35-1.46,2.1-2.71,2.1-1.04,0-1.7-.38-1.68-.88,0-.39.39-.7.95-.7.62,0,1.19.44,1.5.9.01.02.05.03.07.02.74-.31,1.12-.86,1.12-1.55,0-.82-.68-1.54-1.78-1.54-.6,0-1.07.18-1.49.45ZM34.92,13.66c.19,0,.4-.02.57-.05.05-.01.06-.02.04-.06-.19-.33-.64-.64-1.02-.64-.31,0-.5.14-.5.3,0,.22.37.45.92.45Z"/>
    <path class="cls-1" d="M42.87,15.42h-.6l2.53-8.91h.6l-2.53,8.91Z"/>
  </g>
  <g>
    <path class="cls-1" d="M53.53,6.36h.64v7.74h-.64v-.98h-.02c-.09.19-.21.35-.36.49-.15.14-.31.26-.48.35-.18.09-.36.16-.54.21s-.37.08-.55.08c-.45,0-.84-.08-1.15-.23-.32-.15-.57-.36-.78-.62-.2-.26-.35-.57-.45-.93-.09-.36-.14-.74-.14-1.15s.05-.76.15-1.12c.1-.36.25-.67.46-.94.21-.27.46-.48.78-.64.31-.16.68-.24,1.1-.24.39,0,.77.09,1.14.26.36.18.65.44.86.78v-3.06ZM53.53,11.29c0-.32-.04-.61-.13-.9s-.21-.53-.37-.74c-.16-.21-.36-.38-.59-.51-.23-.13-.5-.19-.79-.19-.34,0-.63.07-.87.2-.24.13-.44.31-.6.54-.16.23-.27.5-.34.8-.07.3-.1.63-.09.98,0,.35.05.66.14.93.1.27.23.5.4.68.17.19.37.33.6.42.23.1.48.15.75.15.3,0,.57-.06.81-.18.24-.12.43-.29.59-.5.16-.21.28-.46.36-.75.08-.29.12-.6.12-.94Z"/>
    <path class="cls-1" d="M58.02,14.25c-.36,0-.69-.07-1.01-.19-.31-.12-.58-.3-.82-.55-.23-.24-.42-.55-.55-.91s-.2-.79-.2-1.28c0-.41.05-.79.16-1.15s.27-.67.48-.93.48-.47.81-.63c.32-.15.7-.23,1.13-.23s.82.08,1.14.23c.32.15.59.36.81.62.21.26.37.57.48.93.1.36.16.74.16,1.15,0,.44-.06.85-.18,1.2-.12.36-.3.67-.52.93-.23.26-.5.46-.82.6s-.67.21-1.06.21ZM59.91,11.31c0-.33-.04-.64-.11-.93-.07-.29-.18-.54-.33-.75-.15-.21-.34-.38-.58-.5s-.53-.18-.87-.18-.63.07-.87.2c-.24.13-.43.31-.59.53s-.26.47-.33.75c-.07.28-.11.57-.11.88,0,.34.04.66.12.95.08.29.2.54.36.75.16.21.36.37.59.48.24.12.51.17.82.17.34,0,.63-.07.87-.2.24-.13.44-.31.59-.53.15-.22.26-.47.33-.75.07-.28.11-.57.11-.87Z"/>
    <path class="cls-1" d="M66.49,13.24l1.46-4.71h.66l-1.81,5.57h-.69l-1.22-4.68h-.02l-1.24,4.68h-.78l-1.7-5.57h.64l1.44,4.75,1.29-4.75h.72l1.23,4.71Z"/>
    <path class="cls-1" d="M70.19,14.1h-.65v-5.57h.65v.77c.26-.27.53-.49.8-.67.28-.17.61-.26,1-.26.34,0,.66.06.96.18.29.12.54.32.74.62.14.2.22.41.24.62.02.21.04.43.04.66v3.64h-.65v-3.63c0-.5-.11-.88-.33-1.13-.22-.25-.59-.38-1.11-.38-.2,0-.38.03-.55.09-.16.06-.31.14-.45.24-.13.1-.25.21-.34.34-.09.13-.16.27-.21.41-.07.18-.1.35-.12.52-.01.16-.02.34-.02.54v3Z"/>
    <path class="cls-1" d="M75.63,14.1v-7.74h.64v7.74h-.64Z"/>
    <path class="cls-1" d="M80.13,14.25c-.36,0-.69-.07-1.01-.19-.31-.12-.58-.3-.82-.55-.23-.24-.42-.55-.55-.91s-.2-.79-.2-1.28c0-.41.05-.79.16-1.15s.27-.67.48-.93.48-.47.81-.63c.32-.15.7-.23,1.13-.23s.82.08,1.14.23c.32.15.59.36.81.62.21.26.37.57.48.93.1.36.16.74.16,1.15,0,.44-.06.85-.18,1.2-.12.36-.3.67-.52.93-.23.26-.5.46-.82.6s-.67.21-1.06.21ZM82.03,11.31c0-.33-.04-.64-.11-.93-.07-.29-.18-.54-.33-.75-.15-.21-.34-.38-.58-.5s-.53-.18-.87-.18-.63.07-.87.2c-.24.13-.43.31-.59.53s-.26.47-.33.75c-.07.28-.11.57-.11.88,0,.34.04.66.12.95.08.29.2.54.36.75.16.21.36.37.59.48.24.12.51.17.82.17.34,0,.63-.07.87-.2.24-.13.44-.31.59-.53.15-.22.26-.47.33-.75.07-.28.11-.57.11-.87Z"/>
    <path class="cls-1" d="M86.46,10.85c.12-.01.27-.04.44-.07.17-.03.31-.07.41-.12.11-.05.17-.13.2-.25.03-.12.04-.23.04-.33,0-.33-.11-.6-.32-.81-.21-.21-.57-.32-1.07-.32-.22,0-.43.02-.61.06-.19.04-.35.11-.49.2s-.25.23-.34.39c-.09.16-.15.36-.18.61h-.66c.02-.33.1-.61.23-.84.13-.23.3-.42.5-.57.2-.15.44-.25.71-.32s.55-.1.86-.1c.28,0,.54.03.79.09.25.06.46.16.65.29.18.13.33.31.43.53.1.22.16.49.16.82v3.03c0,.25.04.41.13.48s.27.05.54-.05v.51c-.05.01-.12.04-.22.07-.1.03-.19.04-.29.04-.1,0-.2-.01-.29-.03-.11-.01-.19-.05-.26-.1-.06-.05-.12-.12-.16-.19-.04-.08-.07-.16-.08-.25-.01-.09-.02-.19-.02-.28-.27.3-.58.53-.94.69-.35.16-.73.24-1.14.24-.24,0-.48-.03-.7-.1-.23-.07-.43-.17-.6-.3-.17-.14-.31-.3-.41-.5-.1-.2-.15-.43-.15-.7,0-.95.65-1.5,1.95-1.68l.89-.12ZM87.55,11.17c-.27.11-.55.19-.83.23-.28.04-.56.06-.84.09-.5.04-.88.15-1.16.33-.28.19-.41.47-.41.85,0,.17.03.32.1.45.07.13.16.23.27.31.11.08.24.14.39.18s.3.06.45.06c.26,0,.51-.03.75-.1.24-.06.46-.16.65-.3.19-.13.34-.3.46-.5.11-.2.17-.45.17-.73v-.87Z"/>
    <path class="cls-1" d="M94.18,6.36h.64v7.74h-.64v-.98h-.02c-.09.19-.21.35-.36.49-.15.14-.31.26-.48.35-.18.09-.36.16-.54.21s-.37.08-.55.08c-.45,0-.84-.08-1.15-.23-.32-.15-.57-.36-.78-.62-.2-.26-.35-.57-.45-.93-.09-.36-.14-.74-.14-1.15s.05-.76.15-1.12c.1-.36.25-.67.46-.94.21-.27.46-.48.78-.64.31-.16.68-.24,1.1-.24.39,0,.77.09,1.14.26.36.18.65.44.86.78v-3.06ZM94.18,11.29c0-.32-.04-.61-.13-.9s-.21-.53-.37-.74c-.16-.21-.36-.38-.59-.51-.23-.13-.5-.19-.79-.19-.34,0-.63.07-.87.2-.24.13-.44.31-.6.54-.16.23-.27.5-.34.8-.07.3-.1.63-.09.98,0,.35.05.66.14.93.1.27.23.5.4.68.17.19.37.33.6.42.23.1.48.15.75.15.3,0,.57-.06.81-.18.24-.12.43-.29.59-.5.16-.21.28-.46.36-.75.08-.29.12-.6.12-.94Z"/>
  </g>
</svg>