<?xml version="1.0" encoding="UTF-8"?>
<svg id="_レイヤー_1" data-name="レイヤー 1" xmlns="http://www.w3.org/2000/svg" viewBox="0 0 111 42">
  <defs>
    <style>
      .cls-1 {
        fill: #78ff6e;
      }
    </style>
  </defs>
  <path class="cls-1" d="M.75,28.03l3.48-2.89c2.38-1.98,5.01-4.91,5.01-8.76,0-2.6-1.16-4.33-3.45-4.33-2.11,0-3.63,1.54-4.12,4.18l-.31-.07c.49-3.56,2.6-5.57,5.41-5.57s4.6,2.23,4.6,5.13c0,3.92-3.07,6.93-5.42,8.69l-3.08,2.35h5.13c2.1,0,3.25-.33,3.92-3.92l.31.07-.58,5.79H.93l-.18-.66Z"/>
  <path class="cls-1" d="M14.8,19.86c0-5.43,3.3-9.28,7.59-9.28s7.59,3.85,7.59,9.28-3.3,9.28-7.59,9.28-7.59-3.85-7.59-9.28ZM22.39,28.74c3.66,0,5.4-3.89,5.4-8.87s-1.74-8.84-5.4-8.84-5.39,3.85-5.39,8.84,1.74,8.87,5.39,8.87Z"/>
  <path class="cls-1" d="M31.99,28.03l3.48-2.89c2.38-1.98,5.01-4.91,5.01-8.76,0-2.6-1.16-4.33-3.45-4.33-2.11,0-3.63,1.54-4.12,4.18l-.31-.07c.49-3.56,2.6-5.57,5.41-5.57s4.6,2.23,4.6,5.13c0,3.92-3.07,6.93-5.42,8.69l-3.08,2.35h5.13c2.1,0,3.25-.33,3.92-3.92l.31.07-.58,5.79h-10.71l-.18-.66Z"/>
  <path class="cls-1" d="M55.47,26.17c0-3.44-1.68-5.41-4.18-5.41-1.96,0-3.51,1.28-4.8,3.11l-.24-.22.95-12.55h6.02c2.2,0,3.08-.77,3.72-4.03h.3l-.85,5.94h-8.94l-.79,10.09c1.22-1.83,2.99-3.77,5.96-3.77,3.3,0,5.18,2.53,5.18,6.22,0,5.63-4.75,9.95-11.84,11.19l-.03-.37c6.08-1.17,9.56-5.38,9.56-10.21Z"/>
  <path class="cls-1" d="M63.09,31.88c0,.94-.18,1.68-.54,2.25-.36.56-.83.95-1.39,1.16v-1.18c.21-.17.42-.4.61-.7.19-.3.29-.77.29-1.4v-1.08h-.9v-2.81h1.94v3.76Z"/>
  <path class="cls-1" d="M66.91,28.29c2.38,0,3.36-1.06,3.36-3.04v-9.94c0-1.54-.55-1.87-1.44-1.87-.55,0-1.34.29-2.05.59l-.15-.37,5.37-2.71h.3v14.3c0,1.98.98,3.04,3.36,3.04v.4h-8.76v-.4Z"/>
  <path class="cls-1" d="M78.3,28.03l3.48-2.89c2.38-1.98,5.01-4.91,5.01-8.76,0-2.6-1.16-4.33-3.45-4.33-2.11,0-3.63,1.54-4.12,4.18l-.31-.07c.49-3.56,2.6-5.57,5.41-5.57s4.6,2.23,4.6,5.13c0,3.92-3.07,6.93-5.42,8.69l-3.08,2.35h5.13c2.1,0,3.25-.33,3.92-3.92l.31.07-.58,5.79h-10.71l-.18-.66Z"/>
  <path class="cls-1" d="M95.19,31.88c0,.94-.18,1.68-.54,2.25-.36.56-.83.95-1.39,1.16v-1.18c.21-.17.42-.4.61-.7.19-.3.29-.77.29-1.4v-1.08h-.9v-2.81h1.94v3.76Z"/>
  <path class="cls-1" d="M98.31,28.03l3.48-2.89c2.38-1.98,5.01-4.91,5.01-8.76,0-2.6-1.16-4.33-3.45-4.33-2.11,0-3.63,1.54-4.12,4.18l-.31-.07c.49-3.56,2.6-5.57,5.41-5.57s4.6,2.23,4.6,5.13c0,3.92-3.07,6.93-5.42,8.69l-3.08,2.35h5.13c2.1,0,3.25-.33,3.92-3.92l.31.07-.58,5.79h-10.71l-.18-.66Z"/>
</svg>