<?xml version="1.0" encoding="UTF-8"?>
<svg id="_レイヤー_1" data-name="レイヤー 1" xmlns="http://www.w3.org/2000/svg" viewBox="0 0 330 120">
  <defs>
    <style>
      .cls-1 {
        stroke: #00c800;
        stroke-miterlimit: 10;
        stroke-width: .5px;
      }

      .cls-1, .cls-2 {
        fill: #00c800;
      }
    </style>
  </defs>
  <g>
    <path class="cls-1" d="M8.07,7.89c1.1-.53,2.18-.82,3.46-.82,2.99,0,5.01,2.12,5.01,5.2,0,4.73-3.89,7.27-8.85,7.77h-.04c-.21,0-.25-.25.02-.32,4.31-.93,7.59-3.24,7.59-7.5,0-2.77-1.84-4.47-4.1-4.47-.21,0-.44.02-.58.05-.06,0-.1.02-.12.11-.27,1.93-1.12,3.72-2.28,5.19-.04.05-.06.11-.04.2.14.73.29,1.38.29,1.88s-.33.79-.62.79c-.25,0-.41-.11-.52-.52-.06-.25-.1-.68-.13-1.04,0-.07-.04-.09-.08-.05-1.66,1.75-3.4,3.19-4.59,3.19-.54,0-.89-.56-.89-1.17,0-2.52,2.46-6.03,5.4-7.91.06-.05.1-.11.1-.18.06-.87.14-1.8.23-2.68,0-.07-.02-.11-.08-.11-.35.05-.68.07-1.05.07-1.76,0-2.81-.44-3.08-1.83-.04-.18.12-.2.25-.09.62.73,1.45.86,2.56.86.5,0,.95-.02,1.43-.09.08-.02.1-.05.12-.16.06-.45.12-.88.19-1.36.06-.52.12-1.13.12-1.57,0-.32-.02-.48-.12-.66-.12-.2-.08-.29.12-.29.15,0,.52.11.88.32s.48.43.48.79c0,.23-.15.57-.23.84-.19.57-.38,1.18-.5,1.77-.02.07.02.11.08.09.9-.2,1.85-.54,2.68-.93.35-.16.64-.39.92-.39.41,0,.83.3.83.61,0,.39-.31.59-1.04.86-1.14.43-2.39.8-3.57.98-.08.02-.1.05-.13.14-.08.75-.19,1.6-.23,2.34,0,.07.06.09.11.07ZM6.99,9.23c-2.43,1.79-4.33,4.87-4.33,6.46,0,.39.1.52.37.52.66,0,2.57-1.52,3.94-2.97.06-.07.08-.11.08-.18-.02-.45-.04-.91-.04-1.34,0-.82.02-1.63.06-2.45,0-.07-.04-.07-.08-.05ZM7.9,8.8c-.02.5-.04,1.02-.04,1.54,0,.66.04,1.29.08,1.68,0,.05.04.07.08.02.91-1.18,1.62-2.61,1.99-4.06.02-.07,0-.11-.06-.09-.71.18-1.35.43-1.95.75-.06.02-.1.07-.1.16Z"/>
    <path class="cls-1" d="M22.03,13.41c-.46.93-.87,1.27-1.24,1.27-.35,0-.56-.25-.56-.59,0-.32.15-.5.58-1.2,1.39-2.31,2.55-4.98,3.19-7.7.02-.11.02-.14-.06-.14-1.35,0-2.76-.44-3.13-1.93-.06-.23.13-.27.23-.13.46.65,1.45.97,2.57.97.17,0,.33,0,.54-.02.08,0,.1-.04.1-.11.06-.38.1-.85.1-1.26,0-.68-.23-1.1-.77-1.1-.17,0-.19-.18-.04-.27.23-.16.7-.32.89-.32.5,0,1.01.46,1.01,1.07,0,.25-.06.45-.1.65-.08.38-.14.72-.21,1.06-.02.07.02.11.08.09.31-.09.58-.2.78-.36.16-.11.27-.27.27-.43,0-.09-.02-.16-.06-.25-.08-.16-.21-.29-.29-.38-.17-.13-.08-.32.16-.2.14.07.44.2.73.32.33.13.63.32.63.74,0,.32-.25.65-.65.97-.5.39-1.18.64-1.84.8-.08.02-.1.05-.12.14-.82,3.01-1.67,6.03-2.8,8.34ZM28.97,15.2c-.06-.86-.1-1.99-.1-3.13,0-1.54.12-2.49.66-3.33.48-.77,1.16-1.09,2.34-1.54.39-.16.58-.32.58-.63,0-.66-.44-1.2-1.14-1.61-.17-.11-.1-.32.15-.25,1.41.39,2.58,1.45,2.58,2.7,0,.68-.37,1.02-.75,1.02-.19,0-.44-.09-.75-.27-.35-.18-.5-.23-.85-.23-.37,0-.77.16-1.16.39-.56.32-.95.86-.95,2.13,0,1.59.19,3.4.35,4.96,0,.07.02.11.1.14.85.23,1.72.62,2.48,1.09.62.43.81.75.81,1.14,0,.36-.17.68-.5.68-.25,0-.39-.11-.58-.32-.58-.64-1.33-1.14-2.09-1.48-.06-.02-.1,0-.1.07v.2c0,1.93-1.14,2.78-2.98,2.78-1.53,0-2.9-1.14-2.9-2.44,0-1.39,1.39-2.1,3.11-2.1.56,0,1.08.05,1.62.11.06,0,.08-.02.08-.09ZM26.81,18.66c1.5,0,2.23-.64,2.23-2.18v-.11c0-.07-.02-.11-.1-.14-.52-.16-1.16-.3-1.77-.3-1.47,0-2.46.39-2.46,1.3,0,.73.76,1.43,2.11,1.43Z"/>
    <path class="cls-1" d="M40.08,7.25c-1.29,0-2.47-.6-2.67-1.67-.02-.11-.02-.14-.02-.18,0-.2.19-.25.27-.05.33.66,1.55.79,2.14.79s1.18-.11,1.68-.25c.08-.02.1-.07.12-.18.13-.82.25-1.7.25-2.43,0-.79-.17-1.38-.66-1.68-.21-.11-.21-.3.02-.36.14-.05.41-.09.7-.09.73,0,1.16.7,1.16,1.25,0,.18-.02.41-.06.59-.02.07.02.09.1.14.33.2.77.41,1.18.57.5.18.79.5.79.91,0,.36-.31.75-.81,1.16-.6.48-1.33.87-2.01,1.12-.08.02-.1.07-.13.18-.6,3.45-1.41,6.88-2.51,10.15-.33,1-.64,1.27-1.04,1.27-.35,0-.66-.27-.66-.68,0-.36.14-.61.52-1.43,1.31-2.86,2.28-6.06,2.88-9.13.02-.09,0-.11-.1-.09-.31.05-.7.09-1.14.09ZM43.64,4.81c.19-.18.27-.32.27-.45,0-.23-.33-.57-.93-.98-.04-.02-.06-.02-.08.05-.19.68-.35,1.43-.48,2.06-.02.07,0,.09.06.07.39-.18.83-.43,1.16-.75ZM45.57,13.78c-.19.54-.21.88-.21,1.23,0,1,.48,1.63,1.28,2.02.85.41,2.07.52,3.26.52.39,0,.79-.02,1.08-.02.75,0,1.02.32,1.02.72,0,.45-.39.79-1.93.79s-2.9-.29-3.84-.83c-.93-.52-1.47-1.31-1.47-2.49,0-.64.27-1.5.56-2.04.1-.18.31-.07.25.11ZM52.13,8.28c-.29.02-.58.07-.93.18-.66.2-1.43.54-2.05.79-.19.09-.31-.14-.12-.25.64-.36,1.29-.77,1.72-1.11.25-.18.39-.36.39-.5s-.12-.34-.31-.52c-.48-.5-1.31-.86-2.22-.86-.15,0-.29,0-.52.02-.21.02-.27-.21-.06-.3.33-.14.83-.23,1.35-.23,1.99,0,3.5,1.16,3.5,2.12,0,.39-.29.61-.75.66Z"/>
    <path class="cls-1" d="M57.56,14.51c.08.23.17.36.25.36.12,0,.23-.25.35-.61.43-1.28.78-2.59,1.11-3.83.06-.23.32-.18.28.07-.3,1.4-.55,2.81-.8,4.26-.16.9-.21,1.44-.21,1.65,0,.36.14.7.29,1,.14.3.31.57.31.92,0,.43-.31.68-.6.68-.33,0-.76-.41-1.11-1.28-.4-.93-.86-2.51-.86-4.24,0-2.2.38-4.1.71-5.66.2-.98.34-1.78.34-2.55,0-1.25-.34-2.38-1.14-3.13-.06-.07-.08-.09-.08-.16s.06-.14.13-.14c.04,0,.06,0,.13.02,1.1.45,2.23,1.88,2.23,3.11,0,.73-.27,1.57-.57,2.62-.58,1.9-1.01,3.42-1.01,5.19,0,.77.12,1.37.25,1.73ZM68.73,5.75c.18-.14.29-.25.29-.36,0-.09-.02-.14-.27-.27-.31-.18-.7-.36-1.05-.57-.21-.11-.1-.32.08-.25.64.23.99.32,1.28.32.21,0,.25-.05.46-.05.42,0,.73.25.73.61,0,.54-.39,1.04-1,1.45-.6.41-1.26.73-1.92.94-.08.02-.1.07-.1.14.04,2.47.16,3.9.32,6.07,0,.07.02.11.1.14,1.1.34,2.16.89,2.96,1.65.48.47.77.88.77,1.38,0,.41-.27.77-.6.77-.25,0-.41-.18-.83-.73-.64-.79-1.37-1.47-2.24-1.94-.08-.05-.1,0-.1.07-.1,2.12-1.42,3.24-3.22,3.24-1.45,0-2.62-.94-2.62-2.39s1.36-2.4,3.8-2.4c.39,0,.79.05,1.02.09.06,0,.08-.02.08-.07-.04-1.81-.17-3.76-.23-5.68,0-.07-.02-.09-.1-.09-.19.02-.5.07-.83.07-1.47,0-2.34-.55-2.86-1.87-.06-.2.1-.34.25-.16.48.66,1.08,1,2.12,1,.46,0,.95-.07,1.31-.14.08-.02.1-.07.1-.16,0-.89,0-1.72-.02-2.65-.02-.98-.25-1.54-1-1.61-.23-.02-.25-.25-.04-.34.21-.09.46-.14.79-.14.79,0,1.31.36,1.31.91,0,.27-.08.7-.15,1.43-.06.77-.08,1.66-.08,2.2,0,.07.02.11.08.09.52-.18,1-.41,1.42-.7ZM63.95,17.24c1.58,0,2.61-.72,2.72-2.53,0-.07-.02-.11-.1-.14-.5-.16-1.12-.25-1.72-.25-1.49,0-2.53.7-2.53,1.62,0,.79.66,1.29,1.64,1.29Z"/>
    <path class="cls-1" d="M88.77,9.59c-.68,0-4.35-3.94-6.62-6.9-.23-.3-.45-.46-.68-.46-.24,0-.47.18-.7.5-1.68,2.5-5.67,7.42-6.6,7.42-.32,0-.55-.3-.55-.62,0-.23.09-.44.3-.6,2.17-1.6,4.66-4.86,6.11-7.06.34-.53.81-.83,1.32-.83.45,0,.94.25,1.41.83,1.83,2.29,3.77,4.49,6.29,6.39.23.16.32.39.32.6,0,.37-.28.71-.62.71ZM76.52,12.36c-.32,0-.47-.27-.47-.57s.17-.6.47-.6c.64-.02,3.69-.02,5.99-.02h2.26c1.11.02,1.58.6,1.58,1.49,0,2.84-4.43,7.38-5.32,7.38-.34,0-.6-.32-.6-.64,0-.21.11-.41.36-.55,2.05-1.17,4.39-4.54,4.39-5.94,0-.64-.47-.64-1.3-.64-2,0-6.69.07-7.35.09h-.02ZM78.73,8.17c-.28,0-.43-.28-.43-.57,0-.28.15-.55.43-.55h5.69c.3,0,.43.27.43.55,0,.3-.13.57-.43.57h-5.69Z"/>
    <path class="cls-1" d="M93.92,19.21c-.55-1.31-1.58-2.22-2.32-2.84-.19-.16-.4-.3-.4-.39,0-.02.04-.05.11-.05.53,0,3.94.8,3.94,2.84,0,.6-.34,1.03-.7,1.03-.23,0-.47-.18-.64-.6Z"/>
    <path class="cls-1" d="M113.33,10.46c-.85,1.79-2.02,3.6-2.94,4.72-.13.16-.28.23-.43.23-.28,0-.51-.28-.51-.57,0-.16.06-.32.19-.46,1.15-1.17,2.71-3.55,3.69-5.89v-.76l-2.92.05c-.3,0-.45-.27-.45-.55s.15-.55.45-.55h2.9l-.04-3.23c-.38.09-1.9.48-2.41.48-.32,0-.49-.25-.49-.53,0-.25.15-.5.43-.53,1.94-.23,3.62-.73,5.16-1.51.06-.02.09-.05.15-.05.25,0,.47.28.47.55,0,.41-.43.71-2.3,1.28,0,.3-.04,1.81-.06,3.53h2.68c.3,0,.45.27.45.55s-.15.55-.45.55l-2.68-.02c0,.87-.02,1.72-.02,2.47,0,3.44.08,9.49.08,9.49,0,.34-.26.53-.51.53-.26,0-.51-.18-.51-.53l.06-9.26ZM116.43,12.66c-.53-.78-1.53-1.67-1.94-1.97-.11-.09-.15-.21-.15-.32,0-.25.19-.5.43-.5.4,0,1.88,1.35,2.32,1.9.11.14.15.3.15.46,0,.34-.23.64-.49.64-.11,0-.23-.07-.32-.21ZM116.54,19.12c-.36,0-.51-.3-.51-.6s.13-.6.41-.62c.45-.05.91-.09,1.34-.16.94-3.78,2.53-13.34,2.73-15.86.04-.37.28-.55.53-.55.28,0,.57.23.57.66,0,1.01-2.04,12.58-2.85,15.58,1.73-.27,3.45-.66,5.09-1.17-.51-1.24-1.13-2.41-1.68-3.28-.06-.09-.09-.21-.09-.3,0-.3.25-.55.51-.55.15,0,.3.07.41.25.96,1.38,2.79,5.29,2.79,6.37,0,.46-.3.73-.6.73-.21,0-.43-.16-.51-.55-.11-.55-.28-1.1-.47-1.67-2.79.92-6.9,1.7-7.67,1.7Z"/>
    <path class="cls-1" d="M129.54,8.23c1.76-2.46,4.44-4.02,7.41-4.02,1.86,0,3.57.69,4.76,2.02,1.11,1.2,1.78,2.88,1.78,4.66,0,3.38-2.05,6.14-5.28,7.34-.06.02-.12.04-.15.04-.15,0-.19-.24-.08-.3,2.59-1.52,4.36-4.29,4.36-7.19,0-1.83-.56-3.31-1.53-4.31-1.02-1.02-2.38-1.5-4.22-1.5-.1,0-.13.07-.08.15.17.24.35.52.48.76.08.15.11.26.11.37s-.04.24-.21.54c-.21.39-.5,1-.82,1.72-.9,2-2.09,4.1-3.49,6.06-1.44,2-1.74,2.28-2.22,2.28-.57,0-1.09-.67-1.48-1.52-.48-1.07-.75-2.44-.75-3.4,0-1.02.47-2.4,1.41-3.7ZM129.63,14.72c.38.65.61.87.8.87.17,0,.38-.2,1.21-1.31,1.4-1.9,2.47-3.75,3.54-6.14.54-1.2.77-2.03.77-2.59,0-.2-.1-.35-.21-.46-.06-.04-.1-.04-.13-.04-2.01.35-3.97,1.76-5.48,3.88-1,1.39-1.34,2.51-1.34,3.38,0,.68.21,1.31.84,2.42Z"/>
    <path class="cls-1" d="M157.21,6.41c.64-.09.89-.18,1.14-.38.19-.16.31-.32.46-.32.16,0,.47.32.89.65.37.36.64.63.64.81,0,.2-.12.25-.29.43-.23.23-.31.36-.37.64-.54,2.59-1.05,5.04-1.99,7.01-.33.7-.66,1.36-1.12,1.93-.5.57-.97.98-1.35.98-.23,0-.52-.2-.52-.61,0-.14.02-.25.02-.39,0-.25-.08-.54-.46-1.02-.29-.36-.75-.86-1.41-1.61-.14-.16.02-.34.17-.23.48.34,1.06.77,1.58,1.11.48.29.68.39.93.39.35,0,.73-.23,1.35-1.5.77-1.59,1.33-3.83,1.66-6.06.04-.29.06-.52.06-.79,0-.32-.04-.34-.46-.34-.93.05-2.43.23-3.63.39-.06,0-.12.07-.14.14-.58,1.88-1.39,3.74-2.44,5.37-1.66,2.59-3.82,4.58-6.2,5.81-.1.05-.12.05-.17.05-.08,0-.15-.05-.15-.11s.04-.14.15-.2c2.14-1.47,4.06-3.54,5.54-6.08.87-1.47,1.53-3.04,2.05-4.67.02-.07,0-.09-.06-.09-.68.11-1.43.25-2.14.38-.56.09-.95.18-1.29.29-.33.09-.64.18-.89.18-.37,0-.68-.23-.97-.59-.35-.41-.54-.81-.6-1.24-.04-.25.12-.32.27-.18.41.45,1.1.57,1.99.57,1.02,0,2.86-.16,3.86-.27.08,0,.1-.05.12-.11.14-.57.27-1.16.37-1.79.08-.48.12-1,.12-1.34,0-.68-.33-1.25-1.08-1.25-.29,0-.29-.27-.04-.37.21-.09.52-.16.83-.16.42,0,.75.09,1.33.37.5.25.75.5.75.75,0,.14-.06.25-.19.39-.23.25-.25.34-.35.93-.17.84-.33,1.59-.54,2.34-.02.07,0,.11.06.11.96-.09,1.68-.18,2.49-.29Z"/>
    <path class="cls-1" d="M170.99,13.63c-2.16,2.29-4.52,3.97-6.88,5.08-.06.02-.08.02-.13.02s-.12-.05-.12-.16c0-.07.04-.14.15-.2,2.11-1.29,4.33-3.18,6.28-5.47.77-.91,1.49-1.84,2.16-2.86.04-.05.04-.09,0-.14-1.02-1.07-2.16-1.91-3.38-2.59-.21-.11-.06-.36.12-.3,1.33.5,2.59,1.18,3.75,2.06.06.05.1.05.14-.02.6-1.02,1.16-2.06,1.62-3.15.31-.73.46-1.23.46-1.63,0-.36-.21-.93-.79-1.27-.21-.11-.25-.27,0-.36.08-.02.27-.07.39-.07.35,0,1.08.5,1.62,1.11.31.34.58.7.58.93,0,.2-.12.36-.27.52-.17.18-.37.43-.64,1-.62,1.29-1.31,2.47-2.05,3.68-.04.07-.02.11.02.16.33.29.64.64.95.98,1.2,1.36,1.64,2.27,1.64,2.9,0,.54-.31.84-.6.84-.33,0-.6-.27-.95-1-.48-1-1.06-1.93-1.72-2.77-.04-.05-.08-.07-.12,0-.68.98-1.43,1.86-2.22,2.7Z"/>
    <path class="cls-1" d="M194.33,7.94c0-.2-.08-.29-.39-.29-.21,0-.52.02-.89.09-1.2.18-2.86.54-3.79.77-.64.18-1.29.38-1.72.54-.5.2-.85.41-1.14.41-.39,0-1.02-.25-1.56-.63-.39-.32-.81-.72-.81-1.15,0-.36.08-.43.29-.27.29.23.77.47,1.7.47.56,0,1.24-.07,2.16-.2,1.8-.29,3.86-.61,5.21-.79.46-.07.83-.18,1.06-.36.17-.14.25-.18.35-.18.15,0,.48.27.97.7.52.5.68.68.68.86,0,.16-.17.32-.39.45-.37.18-.46.32-.7.88-1.12,2.68-2.34,4.42-3.92,6.01-1.93,1.95-4.06,3.13-6.55,3.86-.08.02-.1.02-.15.02-.17,0-.23-.23-.04-.32,2.24-.91,4.33-2.36,6.03-4.29,1.47-1.66,2.61-3.54,3.44-5.92.08-.25.17-.52.17-.66ZM187.41,3.4c1.51,0,3.03-.39,4.02-.75.41-.16.7-.36,1-.36s.62.02.93.18c.39.16.52.34.52.52,0,.32-.35.45-1.08.66-1.33.41-3.28.76-4.67.76s-2.07-.39-2.53-1.26c-.1-.2.06-.32.23-.18.48.39.85.43,1.58.43Z"/>
    <path class="cls-1" d="M205.22,15.47c0,.45-.21.84-.56.84-.44,0-.69-.57-.69-1.34,0-2.16-.06-4.5-.29-6.63-.13-1.18-.44-2.19-1.08-2.39-.12-.05-.17-.09-.17-.16s.04-.14.15-.18c.14-.07.44-.11.62-.11.39,0,.66.14,1.16.61.13.11.27.27.33.39.04.07.1.09.17.09,2.01-.23,3.9-.5,5.85-.82.39-.07.6-.14.8-.29.1-.07.21-.14.35-.14.29,0,.76.43,1.24.86.37.34.64.61.64.86,0,.18-.1.3-.25.43-.19.16-.29.32-.35.66-.29,1.75-.58,3.38-.99,5.04-.02.09.02.11.08.14.25.09.52.23.76.37.41.23.56.48.56.69,0,.25-.1.46-.39.46-.25,0-.64-.05-1.1-.11-.54-.07-1.26-.14-2.19-.14-1.55,0-3.15.18-4.6.39-.06,0-.08.02-.08.11,0,.14.02.25.02.39ZM210.98,13.46s.08,0,.14-.02c.06-.02.08-.05.1-.14.21-1.2.33-2.31.46-3.65.06-.7.15-1.72.15-2.18,0-.54-.13-.79-.68-.79-.72,0-2.73.34-4.85.64-.46.07-1.02.14-1.38.17-.06,0-.1.02-.1.11,0,.25,0,.59.03,1.02.1,1.88.19,3.67.29,5.37,0,.07.04.09.1.09,1.89-.23,3.88-.45,5.74-.62Z"/>
    <path class="cls-1" d="M235.01,10.37c0,.3-.35.71-1.66.71-.7,0-2.26-.02-3.92-.02-1.87,0-4.69.07-6.45.14-1.06.05-1.74.14-2.24.27-.37.09-.64.2-.83.2-.37,0-.68-.27-1.04-.57-.33-.3-.62-.62-.62-1.01,0-.18.1-.5.21-.75.04-.09.1-.16.17-.16s.12.07.14.18c.12.54.73.66,2.39.66,2.32,0,4.23-.07,6.55-.16,2.36-.09,4.56-.32,5.56-.32,1.45,0,1.74.45,1.74.82Z"/>
    <path class="cls-1" d="M235.63,17.56c-.08,0-.14-.07-.14-.16,0-.05.02-.11.08-.16,2.34-1.86,4.79-5.55,5.37-8.98.06-.36.12-.79.12-1.13,0-.66-.23-1.18-.75-1.52-.17-.11-.17-.29.17-.29.71,0,1.2.2,1.81.61.33.23.58.5.58.73,0,.16-.1.27-.21.39-.15.16-.23.29-.31.66-.87,4.44-3.69,7.98-6.6,9.82-.04.02-.08.05-.13.05ZM246.98,13.1c2.7-1.79,5.12-4.24,6.66-6.91.1-.18.31-.11.31.05,0,.05-.02.11-.04.16-1.39,3.04-3.65,5.73-6.3,7.93-.25.2-.44.39-.58.59-.19.27-.31.41-.52.41-.23,0-.39-.11-.93-.7-.41-.45-.62-.7-.62-.93,0-.14.08-.32.17-.59.06-.2.1-.52.12-1.04.04-1.22.04-2.24.04-3.79,0-1.75-.21-2.47-.72-2.83-.21-.11-.21-.32,0-.39.16-.07.35-.09.6-.09.95,0,1.67.5,1.67.86,0,.18-.06.32-.15.52-.1.27-.19.59-.23,1.07-.12,1.68-.27,3.45-.27,5.24,0,.52.04.75.21.75.08,0,.31-.11.58-.29Z"/>
    <path class="cls-1" d="M256.51,8.23c1.76-2.46,4.44-4.02,7.41-4.02,1.86,0,3.57.69,4.76,2.02,1.11,1.2,1.78,2.88,1.78,4.66,0,3.38-2.05,6.14-5.28,7.34-.06.02-.12.04-.15.04-.15,0-.19-.24-.08-.3,2.59-1.52,4.36-4.29,4.36-7.19,0-1.83-.56-3.31-1.53-4.31-1.02-1.02-2.38-1.5-4.22-1.5-.1,0-.13.07-.08.15.17.24.35.52.48.76.08.15.11.26.11.37s-.04.24-.21.54c-.21.39-.5,1-.82,1.72-.9,2-2.09,4.1-3.49,6.06-1.44,2-1.74,2.28-2.22,2.28-.57,0-1.09-.67-1.48-1.52-.48-1.07-.75-2.44-.75-3.4,0-1.02.47-2.4,1.41-3.7ZM256.61,14.72c.38.65.61.87.8.87.17,0,.38-.2,1.21-1.31,1.4-1.9,2.47-3.75,3.54-6.14.54-1.2.77-2.03.77-2.59,0-.2-.1-.35-.21-.46-.06-.04-.1-.04-.13-.04-2.01.35-3.97,1.76-5.48,3.88-1,1.39-1.34,2.51-1.34,3.38,0,.68.21,1.31.84,2.42Z"/>
    <path class="cls-1" d="M280.62,13.05c-1.55-.02-3.07-.07-4.54-.14-1.24-.05-1.92-.99-1.96-2.11-.02-.66-.04-1.33-.04-1.99s.02-1.31.04-1.88c.04-1.03.7-2.09,1.92-2.13,1.43-.05,3-.07,4.58-.07l-.02-3.76c0-.37.26-.55.51-.55.26,0,.53.18.53.55l-.02,3.76c1.6,0,3.22.02,4.71.07,1.07.02,1.77.99,1.83,1.97.04.6.04,1.28.04,1.97s0,1.4-.04,2.04c-.04,1.08-.77,2.06-1.94,2.13-1.51.09-3.07.14-4.6.14l.02,6.71c0,.34-.26.53-.53.53-.25,0-.51-.18-.51-.53l.02-6.71ZM280.62,5.85c-1.55,0-3.03.02-4.18.07-.85.02-1.3.73-1.34,1.47-.02.39-.02.92-.02,1.47,0,2.2.08,2.86,1.38,2.93,1.21.07,2.66.11,4.17.11v-6.05ZM281.62,11.9c1.47,0,2.94-.05,4.22-.11.81-.05,1.3-.6,1.32-1.47.02-.48.02-1.1.02-1.72,0-1.81-.04-2.61-1.36-2.68-1.17-.05-2.68-.07-4.2-.07v6.05Z"/>
    <path class="cls-1" d="M293.01,8.23c1.76-2.46,4.44-4.02,7.41-4.02,1.86,0,3.57.69,4.76,2.02,1.11,1.2,1.78,2.88,1.78,4.66,0,3.38-2.05,6.14-5.28,7.34-.06.02-.12.04-.15.04-.15,0-.19-.24-.08-.3,2.59-1.52,4.36-4.29,4.36-7.19,0-1.83-.56-3.31-1.53-4.31-1.02-1.02-2.38-1.5-4.22-1.5-.1,0-.13.07-.08.15.17.24.35.52.48.76.08.15.11.26.11.37s-.04.24-.21.54c-.21.39-.5,1-.82,1.72-.9,2-2.09,4.1-3.49,6.06-1.44,2-1.74,2.28-2.22,2.28-.57,0-1.09-.67-1.48-1.52-.48-1.07-.75-2.44-.75-3.4,0-1.02.47-2.4,1.41-3.7ZM293.11,14.72c.38.65.61.87.8.87.17,0,.38-.2,1.21-1.31,1.4-1.9,2.47-3.75,3.54-6.14.54-1.2.77-2.03.77-2.59,0-.2-.1-.35-.21-.46-.06-.04-.1-.04-.13-.04-2.01.35-3.97,1.76-5.48,3.88-1,1.39-1.34,2.51-1.34,3.38,0,.68.21,1.31.84,2.42Z"/>
    <path class="cls-1" d="M312.48,13.41c-.46.93-.87,1.27-1.24,1.27-.35,0-.56-.25-.56-.59,0-.32.15-.5.58-1.2,1.39-2.31,2.55-4.98,3.19-7.7.02-.11.02-.14-.06-.14-1.35,0-2.76-.44-3.13-1.93-.06-.23.13-.27.23-.13.46.65,1.45.97,2.57.97.17,0,.33,0,.54-.02.08,0,.1-.04.1-.11.06-.38.1-.85.1-1.26,0-.68-.23-1.1-.77-1.1-.17,0-.19-.18-.04-.27.23-.16.7-.32.89-.32.5,0,1.01.46,1.01,1.07,0,.25-.06.45-.1.65-.08.38-.14.72-.21,1.06-.02.07.02.11.08.09.31-.09.58-.2.78-.36.16-.11.27-.27.27-.43,0-.09-.02-.16-.06-.25-.08-.16-.21-.29-.29-.38-.17-.13-.08-.32.16-.2.14.07.44.2.73.32.33.13.63.32.63.74,0,.32-.25.65-.65.97-.5.39-1.18.64-1.84.8-.08.02-.1.05-.12.14-.82,3.01-1.67,6.03-2.8,8.34ZM319.43,15.2c-.06-.86-.1-1.99-.1-3.13,0-1.54.12-2.49.66-3.33.48-.77,1.16-1.09,2.34-1.54.39-.16.58-.32.58-.63,0-.66-.44-1.2-1.14-1.61-.17-.11-.1-.32.15-.25,1.41.39,2.58,1.45,2.58,2.7,0,.68-.37,1.02-.75,1.02-.19,0-.44-.09-.75-.27-.35-.18-.5-.23-.85-.23-.37,0-.77.16-1.16.39-.56.32-.95.86-.95,2.13,0,1.59.19,3.4.35,4.96,0,.07.02.11.1.14.85.23,1.72.62,2.48,1.09.62.43.81.75.81,1.14,0,.36-.17.68-.5.68-.25,0-.39-.11-.58-.32-.58-.64-1.33-1.14-2.09-1.48-.06-.02-.1,0-.1.07v.2c0,1.93-1.14,2.78-2.98,2.78-1.53,0-2.9-1.14-2.9-2.44,0-1.39,1.39-2.1,3.11-2.1.56,0,1.08.05,1.62.11.06,0,.08-.02.08-.09ZM317.27,18.66c1.5,0,2.23-.64,2.23-2.18v-.11c0-.07-.02-.11-.1-.14-.52-.16-1.16-.3-1.77-.3-1.47,0-2.46.39-2.46,1.3,0,.73.76,1.43,2.11,1.43Z"/>
    <path class="cls-1" d="M7.93,34.47s.06,0,.14.02c.93.2,1.49,1.09,1.49,1.93,0,.5-.35,1.23-.98,1.86-1.47,1.54-2.78,3.22-3.86,5.97-.02.07.02.09.06.05,1.47-1.57,2.76-2.28,4.11-2.28,1.82,0,2.89,1.55,2.89,3.78,0,1.09-.19,2.04-.19,2.93,0,1.11.46,1.5,1.45,1.5,1.62,0,3.21-1.34,4.23-3.54.1-.2.29-.14.29.02,0,.05,0,.07-.02.14-.81,2.84-3.01,4.74-5.04,4.74-1.31,0-2.14-.83-2.14-2.35,0-.89.27-1.88.27-3.41,0-2.11-.81-3.16-2.07-3.16-1.14,0-2.41.82-3.48,2.18-1.16,1.45-1.64,3.43-1.8,5.54-.06.77-.39,1.01-.81,1.01-.33,0-.73-.36-.73-1.04,0-1.04.64-3.29,2.22-6.43,1.02-2.03,2.24-4.02,3.36-6,.56-1,.81-1.77.81-2.4,0-.43-.08-.61-.25-.79-.15-.16-.06-.27.04-.27Z"/>
    <path class="cls-1" d="M29.2,37.19c-1.91.46-3.49,1.19-5.61,2.26-1.33.68-1.89.86-2.32.86-.62,0-1.53-.68-1.53-1.56,0-.23.1-.27.25-.16.29.27.48.34.83.34.54,0,1.31-.21,2.24-.53,1.76-.62,4.07-1.51,6.11-2.12,1.43-.43,2.74-.74,3.65-.74,1.04,0,1.33.5,1.33.99,0,.41-.23.57-.64.57s-.95-.16-1.6-.16c-.81,0-1.62.23-2.28.71-2.28,1.6-3.23,4.11-3.23,8.22,0,3.38,1.14,4.25,3.11,4.25.68,0,1.47-.25,1.95-.25s.73.25.73.54c0,.68-.5,1.2-2.43,1.2-2.7,0-4.3-1.29-4.3-5.24,0-4.27,1.19-7.21,3.8-9.09.08-.07.08-.11-.04-.09ZM31.4,40.31c2.03.59,3.34,1.73,3.34,2.63,0,.41-.21.7-.48.7-.21,0-.39-.09-.62-.5-.56-1-1.29-1.86-2.34-2.56-.17-.11-.04-.32.1-.27ZM33.37,38.59h.04c2.09.37,3.59,1.34,3.59,2.31,0,.43-.23.66-.46.66-.21,0-.35-.07-.62-.45-.62-.91-1.45-1.67-2.57-2.24-.19-.09-.08-.27.02-.27Z"/>
    <path class="cls-1" d="M43.61,39.63c.02-.09,0-.11-.08-.16-.97-.59-1.7-1.32-1.97-2.54-.06-.25.17-.32.27-.11.42.84,1.04,1.2,1.86,1.47.08.02.1,0,.12-.14.1-.82.25-1.81.25-2.38,0-.77-.08-1.43-.6-1.81-.17-.11-.12-.29.02-.29h.04c.89.16,1.82,1.07,1.82,2.04,0,.36-.12.77-.31,1.34-.17.45-.31.93-.41,1.41-.02.09.02.11.08.14.68.25,1.06.64,1.06,1,0,.41-.29.59-.64.7-.27.09-.6.23-.85.34-.06.02-.08.05-.1.14-.25,1.27-.47,2.7-.61,4.06,0,.07.02.11.1.14.37.07.84.11,1.38.14.48.02.71.09.91.25.21.16.29.34.29.5,0,.38-.46.61-1.04.61-.48,0-1.12-.09-1.69-.29-.04-.02-.06.02-.06.09-.02.18-.04.75-.04,1.2,0,2.52.83,3.79,2.53,3.79,1.37,0,2.58-.93,2.58-3.06,0-1.59-.87-3.69-2.42-5.48-.15-.2.02-.41.21-.25,2.21,2,3.47,3.89,3.47,5.87,0,2.75-1.93,4.07-3.74,4.07-2.05,0-3.27-1.42-3.27-4.53,0-.66.04-1.45.08-1.84,0-.07-.02-.11-.1-.16-.89-.43-1.54-1.2-1.54-2.31,0-1.23.94-2.27,2.25-3.27.06-.05.08-.09.1-.18l.06-.48ZM43.41,41.17c0-.07-.02-.09-.08-.05-.85.52-1.6,1.27-1.6,2.09s.48,1.29,1.14,1.54c.06.02.08-.02.08-.07.14-1.27.29-2.4.46-3.52Z"/>
    <path class="cls-1" d="M58.22,46.28c-.46.93-.87,1.27-1.24,1.27-.35,0-.56-.25-.56-.59,0-.32.15-.5.58-1.2,1.39-2.31,2.55-4.98,3.19-7.7.02-.11.02-.14-.06-.14-1.35,0-2.76-.44-3.13-1.93-.06-.23.13-.27.23-.13.46.65,1.45.97,2.57.97.17,0,.33,0,.54-.02.08,0,.1-.04.1-.11.06-.38.1-.85.1-1.26,0-.68-.23-1.1-.77-1.1-.17,0-.19-.18-.04-.27.23-.16.7-.32.89-.32.5,0,1.01.46,1.01,1.07,0,.25-.06.45-.1.65-.08.38-.14.72-.21,1.06-.02.07.02.11.08.09.31-.09.58-.2.78-.36.16-.11.27-.27.27-.43,0-.09-.02-.16-.06-.25-.08-.16-.21-.29-.29-.38-.17-.13-.08-.32.16-.2.14.07.44.2.73.32.33.13.63.32.63.74,0,.32-.25.65-.65.97-.5.39-1.18.64-1.84.8-.08.02-.1.05-.12.14-.82,3.01-1.67,6.03-2.8,8.34ZM65.16,48.07c-.06-.86-.1-1.99-.1-3.13,0-1.54.12-2.49.66-3.33.48-.77,1.16-1.09,2.34-1.54.39-.16.58-.32.58-.63,0-.66-.44-1.2-1.14-1.61-.17-.11-.1-.32.15-.25,1.41.39,2.58,1.45,2.58,2.7,0,.68-.37,1.02-.75,1.02-.19,0-.44-.09-.75-.27-.35-.18-.5-.23-.85-.23-.37,0-.77.16-1.16.39-.56.32-.95.86-.95,2.13,0,1.59.19,3.4.35,4.96,0,.07.02.11.1.14.85.23,1.72.62,2.48,1.09.62.43.81.75.81,1.14,0,.36-.17.68-.5.68-.25,0-.39-.11-.58-.32-.58-.64-1.33-1.14-2.09-1.48-.06-.02-.1,0-.1.07v.2c0,1.93-1.14,2.78-2.98,2.78-1.53,0-2.9-1.14-2.9-2.44,0-1.39,1.39-2.1,3.11-2.1.56,0,1.08.05,1.62.11.06,0,.08-.02.08-.09ZM63,51.53c1.5,0,2.23-.64,2.23-2.18v-.11c0-.07-.02-.11-.1-.14-.52-.16-1.16-.3-1.77-.3-1.47,0-2.46.39-2.46,1.3,0,.73.76,1.43,2.11,1.43Z"/>
    <path class="cls-1" d="M75.26,39.1c0-.68-.04-1.27-.37-1.72-.04-.07-.04-.09-.04-.14,0-.07.04-.11.12-.11.04,0,.1.02.14.05,1.11.57,1.57,1.16,1.57,2.04,0,.45-.14.98-.31,1.57-.23.86-.44,1.88-.44,3.09,0,1.68.64,2.93,1.45,3.7.23.2.35.32.5.32.08,0,.17-.07.44-.54.41-.73.77-1.5,1.12-2.25.08-.16.31-.07.25.14-.21.73-.37,1.36-.48,1.79-.08.32-.15.66-.15.86,0,.64.39.88.39,1.41,0,.45-.29.84-.68.84-.46,0-1.12-.45-1.82-1.25-1.16-1.32-1.9-3.11-1.9-5.31,0-1.7.21-2.95.21-4.47ZM87.17,41.1c.91.73,1.49,1.77,1.49,2.79,0,.73-.29,1.36-.83,1.36-.41,0-.66-.23-.77-1.09-.14-1.11-.44-2-1-2.63-.58-.66-1.43-1.02-2.4-1.04-.17,0-.21-.28,0-.32s.33-.05.6-.05c1.08,0,2.11.37,2.9.98Z"/>
    <path class="cls-1" d="M103.27,47.68c-.81,4.72-3.54,5.22-4.9,5.22-.87,0-1.75-.21-2.6-.53-.25-.09-.36-.34-.36-.6,0-.32.19-.66.51-.66.09,0,.19.02.28.07.72.34,1.49.55,2.22.55,2.56,0,3.43-2.22,3.79-4.06h-10.1c-.3,0-.45-.28-.45-.55s.15-.53.43-.53h10.29c.09-.99.15-2.09.15-2.15,0-.83-.43-1.08-.94-1.08-.74-.02-1.6-.02-2.49-.02s-1.75,0-2.51.02l-.32,1.17c-.09.3-.34.44-.57.44-.28,0-.53-.18-.53-.48,0-.09,0-.16.04-.25.81-2.38,1.28-4.79,1.66-7.15.06-.32.26-.46.49-.46.26,0,.55.21.55.55t-.25,1.4l5.84-.02c.3,0,.45.28.45.53,0,.28-.15.53-.45.53h-6.05c-.19.92-.38,1.86-.6,2.77,1.11-.02,2.37-.02,3.54-.02h1.41c1.17.02,1.75.73,1.75,1.81,0,.14-.08,1.58-.17,2.43h3.6c.28,0,.41.27.41.53,0,.27-.13.55-.41.55h-3.73ZM105.62,37.33c-.02-.99-.49-1.49-1.43-1.49-1.4-.02-3.09-.02-4.75-.02s-3.28,0-4.6.02c-1.04,0-1.36.6-1.38,1.44v1.79c0,.37-.26.55-.53.55-.51,0-.53-.32-.53-1.54,0-.34.02-.73.02-1.08.02-1.33.77-2.18,2.11-2.2,1.79-.02,3.39-.05,5-.05s3.2.02,4.99.05c1.26.02,2.11.85,2.13,2.15.02.27.02.66.02,1.03,0,1.19-.02,1.58-.57,1.58-.25,0-.49-.18-.49-.55v-1.7Z"/>
    <path class="cls-1" d="M118.18,49.13h-3.51l-4.49.02c-.28,0-.43-.28-.43-.53,0-.28.15-.53.43-.53l7.5.02,7.48-.02c.28,0,.43.25.43.53,0,.25-.15.53-.43.53l-6.99-.02ZM110.92,53.23c-.34,0-.53-.32-.53-.62,0-.28.15-.53.45-.6,1.53-.3,3.11-1.12,4.5-2.36.08-.07.15-.09.23-.09.26,0,.49.34.49.66,0,.16-.06.32-.19.44-1.94,1.67-4.54,2.57-4.96,2.57ZM118.2,36.39v1.63c.89,0,1.79.02,2.64.05,1.05.05,1.7.66,1.73,1.58.04.78.06,1.67.06,2.57s-.02,1.79-.06,2.61c-.04,1.03-.72,1.7-1.81,1.72-.98.02-2.05.02-3.11.02s-2.11,0-3.07-.02c-1.21-.02-1.81-.71-1.83-1.7-.02-.92-.02-1.76-.02-2.61s0-1.65.02-2.45c.02-.87.58-1.67,1.81-1.72.83-.02,1.72-.05,2.62-.05v-1.63l-6.01.02c-.3,0-.47-.28-.47-.53,0-.28.17-.53.47-.53l6.01.02v-1.6c0-.41.26-.6.53-.6.25,0,.51.18.51.6l-.02,1.6,6.03-.02c.3,0,.43.25.43.53,0,.25-.13.53-.43.53l-6.03-.02ZM121.63,40.56c0-.83-.04-1.6-1.15-1.63-.85-.02-1.83-.05-2.83-.05s-1.96.02-2.85.05c-.7.02-1.09.46-1.11,1.05,0,.18-.02.39-.02.57h7.95ZM121.65,41.36h-7.97v1.67h7.97v-1.67ZM113.67,43.86c0,.23.02.48.02.71.04,1.12.57,1.15,3.73,1.15,1.04,0,2.09-.02,3.07-.07.79-.02,1.09-.46,1.11-1.08,0-.23.02-.46.02-.71h-7.95ZM119.42,50.5c-.15-.11-.21-.27-.21-.43,0-.3.23-.6.49-.6.08,0,.17.05.26.11,1.39,1.21,3,1.99,4.49,2.27.3.05.43.32.43.57,0,.34-.21.69-.57.69-.51,0-2.86-.83-4.9-2.61Z"/>
    <path class="cls-1" d="M136.18,47.34c0,1.11-.37,1.57-.69,1.57-.33,0-.52-.23-.52-.84,0-.75.02-1.5.02-2.25,0-.05-.02-.07-.06-.05-1.22.86-2.35,1.87-2.35,3.16,0,1.18.8,1.89,2.96,1.89,1.23,0,1.93-.18,2.8-.41.23-.07.5-.16.7-.16.46,0,.81.36.81.73,0,.41-.21.59-.66.79-.73.29-1.89.45-3.3.45-2.65,0-4.04-1.31-4.04-3.1,0-1.64,1.42-2.77,3.05-3.93.06-.05.1-.11.1-.2,0-2.32-.29-3.14-1.01-3.14-.56,0-1.22.36-1.72.86-.61.57-1.04,1.41-1.27,2.05-.19.52-.66.77-.97.77-.33,0-.58-.27-.58-.8,0-.57.46-1.3,1.1-2.09.35-.43.68-.84,1.02-1.44.69-1.12,1.31-2.43,1.74-3.69.02-.07,0-.07-.06-.07-.26.05-.51.07-.82.07-1.23,0-2.16-.6-2.62-1.58-.1-.2.08-.34.21-.18.5.52,1.18.79,1.93.79.5,0,1-.09,1.55-.25.12-.05.14-.07.16-.16.08-.34.16-.73.16-1.02,0-.48-.2-.82-.69-.95-.18-.05-.22-.18-.02-.32.18-.11.69-.29.97-.29.33,0,.71.36.71.79v.07c0,.07.02.11.1.14.51.14.76.2,1.27.23.29,0,.64.16.64.48s-.29.64-.7.95c-.58.43-1.29.78-1.95,1-.06.02-.1.09-.12.16-.58,1.63-1.24,3.16-2.01,4.63-.02.05,0,.05.04.02.73-.5,1.41-.8,1.99-.8,1.24,0,1.63,1.05,1.85,2.69,0,.07.04.07.06.02,1.21-3,3.01-5.32,5.09-5.32,1.08,0,1.97.85,1.97,1.99,0,.79-.73,1.34-1.87,1.93-1.64.86-3.38,1.55-4.98,2.48-.1.07-.1.09-.1.18.06.64.13,1.46.13,2.16ZM134.48,35.84c-.02.07,0,.09.09.05.28-.14.53-.29.76-.48.09-.07.15-.14.15-.23s-.02-.14-.67-.41c-.06-.02-.09-.02-.11.05-.04.36-.12.68-.23,1.02ZM140.12,42.02c.93-.62,1.43-1.11,1.43-1.76,0-.45-.29-.89-.93-.89-1.53,0-3.34,2.11-4.39,4.89-.02.07,0,.07.04.05,1.28-.77,2.59-1.46,3.85-2.27Z"/>
    <path class="cls-1" d="M146.21,53.14c-.32,0-.51-.3-.51-.62,0-.25.15-.5.45-.55,2.66-.44,4.54-2.13,5.43-4.58.09-.3.26-.41.43-.41.26,0,.53.3.53.64,0,.09,0,.16-.04.25-1.7,4.7-6.22,5.27-6.3,5.27ZM153.86,46.42c-1.05,0-2.09-.02-2.98-.07-1.38-.07-2.04-.96-2.07-2.2-.02-1.03-.04-2.54-.04-4.03s.02-2.98.04-3.87c.02-1.03.62-2.13,1.92-2.18.79-.02,1.71-.05,2.68-.05,1.17,0,2.37.02,3.45.05,1.11.02,1.77.96,1.81,1.99.04,1.08.04,2.57.04,4.03s0,2.96-.04,4.03c-.04,1.28-.79,2.18-1.92,2.22-.38.02-.75.05-1.15.05-.02,1.01-.04,2.36-.04,3.21,0,1.31.04,2.04,2.26,2.04,1.79,0,2.83-.37,2.83-2.86,0-.41.25-.62.49-.62.28,0,.58.25.58.64,0,3.92-2.32,3.94-3.98,3.94-1.45,0-3.15-.14-3.19-2.47,0-.66,0-2.61.02-3.85h-.72ZM157.74,38.82h-8.01c0,.87.02,1.81.02,2.68h7.99v-2.68ZM157.72,37.85c0-1.9,0-2.7-1.32-2.75-.68-.02-1.66-.05-2.66-.05s-1.98.02-2.71.05c-.83.02-1.22.6-1.26,1.4-.02.37-.02.83-.02,1.35h7.97ZM149.75,42.46c0,2.22,0,2.82,1.3,2.89.89.05,1.85.07,2.83.07.85,0,1.71-.02,2.54-.07,1.3-.07,1.3-.8,1.3-2.89h-7.97Z"/>
    <path class="cls-1" d="M170.14,44.05c-.39.32-.74.68-1.01,1.07-.39.54-.81,1.32-1.24,2.2-.31.64-.58.8-.85.8-.37,0-.64-.39-.64-.78,0-.3.31-.86.73-1.5.62-.93,1.27-1.84,1.91-2.77,1.14-1.73,2.24-3.42,3.2-5.01.44-.7.52-1.1.52-1.35,0-.22-.13-.38-.38-.38-.38,0-1.04.43-2.25,1.73-.43.47-.83.74-1.3.74-.41,0-.89-.5-.89-1.22,0-.18,0-.36.02-.53.02-.23.17-.25.27-.04.12.25.25.38.39.38.23,0,.68-.22,1.14-.52,1.03-.65,2.33-1.5,2.95-1.5.31,0,.73.21,1.1.48.44.34.58.53.58.86,0,.31-.17.61-.54,1.01-1.33,1.45-2.46,2.68-4.14,5.69-.06.09-.02.14.06.07.97-.61,1.95-1.03,3.08-1.03,2.51,0,4.34,1.84,4.34,4.14,0,2.87-2.56,4.48-4.74,4.48-1.81,0-2.97-.8-2.95-1.88,0-.83.68-1.49,1.66-1.49,1.08,0,2.08.94,2.62,1.92.02.04.08.07.12.04,1.31-.67,1.97-1.82,1.97-3.3,0-1.75-1.2-3.29-3.13-3.29-1.04,0-1.88.39-2.6.95ZM171.99,50.14c.33,0,.71-.04,1-.11.08-.02.1-.04.06-.13-.33-.71-1.13-1.36-1.79-1.36-.54,0-.88.29-.88.65,0,.47.65.96,1.61.96Z"/>
    <path class="cls-1" d="M181.61,50.18c0-1.47,1-2.66,2.2-2.66s2.19,1.19,2.19,2.66-.98,2.68-2.19,2.68-2.2-1.21-2.2-2.68ZM185.36,50.18c0-1.03-.7-1.88-1.55-1.88s-1.56.85-1.56,1.88.72,1.9,1.56,1.9,1.55-.87,1.55-1.9Z"/>
  </g>
  <g>
    <path class="cls-1" d="M5.49,73.91l4.03-7.95h1.47l-4.85,9.3v7.2h-1.26v-7.08L.1,65.96h1.45l3.94,7.95Z"/>
    <path class="cls-1" d="M15.02,82.78c-.62-.02-1.2-.15-1.74-.41-.54-.26-1.01-.65-1.41-1.17-.4-.52-.72-1.17-.96-1.95-.24-.78-.35-1.69-.35-2.73,0-.87.09-1.68.28-2.44.19-.76.46-1.42.83-1.98.37-.57.84-1.01,1.39-1.34.56-.33,1.21-.49,1.95-.49s1.41.16,1.97.49c.56.33,1.02.77,1.39,1.33.37.56.65,1.22.83,1.98.18.76.27,1.58.27,2.45,0,.95-.11,1.8-.32,2.57-.21.76-.51,1.42-.9,1.97s-.86.97-1.41,1.27c-.55.3-1.16.45-1.83.45ZM18.28,76.52c0-.7-.06-1.36-.19-1.97-.12-.61-.31-1.14-.57-1.59s-.59-.81-1-1.07c-.41-.26-.91-.39-1.5-.39s-1.08.14-1.49.42c-.41.28-.75.66-1.01,1.12-.26.47-.45,1-.58,1.6-.12.6-.19,1.23-.19,1.87,0,.73.07,1.41.21,2.03.14.62.35,1.15.62,1.59.27.44.61.79,1.02,1.03.41.25.88.37,1.41.37.58,0,1.08-.14,1.49-.42.42-.28.75-.66,1.01-1.13.26-.47.45-1.01.57-1.6.12-.6.19-1.21.19-1.86Z"/>
    <path class="cls-1" d="M28.06,70.59h1.11v11.87h-1.11v-1.65c-.15.21-.32.44-.5.66-.19.23-.4.44-.64.63-.24.19-.52.35-.84.48s-.69.19-1.11.19c-.64,0-1.18-.11-1.62-.33-.43-.22-.78-.53-1.05-.93-.27-.4-.46-.86-.58-1.39s-.18-1.1-.18-1.73v-7.81h1.11v7.79c0,1.02.19,1.81.58,2.35.38.54,1.01.81,1.89.81.46,0,.87-.11,1.23-.33.36-.22.67-.53.92-.93.25-.4.44-.87.58-1.42.14-.55.2-1.15.2-1.81v-6.46Z"/>
    <path class="cls-1" d="M41.85,75.54c.21-.03.46-.08.75-.14.29-.06.53-.15.71-.25s.3-.29.34-.54c.04-.25.07-.48.07-.7,0-.7-.18-1.28-.55-1.73-.36-.45-.98-.68-1.85-.68-.38,0-.74.04-1.06.13-.32.08-.6.23-.85.44-.24.21-.44.48-.59.83-.16.34-.26.78-.31,1.29h-1.13c.04-.7.17-1.3.39-1.8.22-.5.51-.9.86-1.21.35-.31.76-.54,1.22-.69s.96-.22,1.48-.22c.48,0,.94.07,1.36.19.43.13.8.34,1.11.62.32.28.56.66.74,1.13.18.47.27,1.05.27,1.74v6.46c0,.53.08.87.23,1.02.15.15.47.11.94-.1v1.08c-.09.03-.21.08-.38.14-.17.06-.33.09-.49.09-.17,0-.34-.02-.5-.07-.19-.03-.33-.1-.44-.22-.11-.11-.2-.25-.27-.41-.07-.16-.11-.34-.14-.53-.03-.19-.04-.39-.04-.61-.47.64-1.01,1.13-1.62,1.47-.61.34-1.26.5-1.97.5-.42,0-.83-.07-1.22-.21s-.73-.35-1.03-.64c-.3-.29-.53-.65-.7-1.07-.17-.42-.26-.92-.26-1.5,0-2.02,1.12-3.21,3.36-3.57l1.54-.25ZM43.73,76.22c-.47.24-.95.4-1.43.48s-.97.14-1.45.18c-.85.08-1.52.31-2,.71-.48.4-.72,1-.72,1.81,0,.37.06.68.18.95.12.27.27.49.46.66.19.18.41.31.67.39.25.08.51.13.77.13.45,0,.88-.07,1.3-.21.42-.14.8-.35,1.12-.63.33-.28.59-.64.79-1.08.2-.44.3-.95.3-1.55v-1.86Z"/>
    <path class="cls-1" d="M48.9,82.46h-1.11v-11.87h1.11v2.22h.04c.31-.95.71-1.61,1.2-1.98.49-.37,1.14-.56,1.94-.56v1.49c-.63-.02-1.15.11-1.56.37s-.73.61-.97,1.05c-.24.44-.41.97-.5,1.57-.09.6-.14,1.23-.14,1.89v5.82Z"/>
    <path class="cls-1" d="M54.24,76.84c0,.64.07,1.25.2,1.82.14.57.34,1.07.6,1.49.27.42.6.76,1.01,1.01.41.25.88.38,1.41.38.73,0,1.36-.24,1.88-.71s.87-1.15,1.04-2.02h1.24c-.14.57-.32,1.09-.54,1.57s-.5.9-.83,1.26c-.33.36-.73.64-1.19.84-.46.2-.99.3-1.6.3-.77,0-1.43-.16-1.99-.48-.56-.32-1.01-.76-1.37-1.32-.36-.56-.62-1.21-.8-1.97-.17-.76-.26-1.57-.26-2.44s.1-1.69.31-2.45.49-1.43.87-2.01c.38-.57.84-1.02,1.38-1.35.54-.33,1.16-.49,1.86-.49,1.32,0,2.36.56,3.12,1.68.76,1.12,1.13,2.75,1.11,4.89h-7.46ZM60.51,75.7c0-.58-.06-1.13-.19-1.64-.13-.51-.32-.95-.58-1.33-.25-.37-.57-.67-.96-.89-.38-.22-.82-.33-1.32-.33s-.93.11-1.31.34c-.38.23-.7.53-.96.92-.27.38-.48.83-.64,1.33-.16.5-.27,1.04-.32,1.6h6.28Z"/>
    <path class="cls-1" d="M70.56,82.46h-1.11v-11.87h1.11v1.65c.45-.58.91-1.05,1.38-1.42.48-.37,1.05-.55,1.72-.55.59,0,1.14.13,1.65.38.51.25.93.69,1.28,1.32.24.43.37.87.42,1.32.04.45.06.92.06,1.41v7.77h-1.11v-7.75c0-1.07-.19-1.87-.58-2.41-.38-.53-1.02-.8-1.91-.8-.35,0-.66.06-.95.19-.29.13-.54.3-.77.52-.23.21-.42.46-.58.73-.16.28-.28.57-.37.87-.11.38-.18.75-.2,1.1-.02.35-.04.73-.04,1.15v6.39Z"/>
    <path class="cls-1" d="M83.6,82.78c-.62-.02-1.2-.15-1.74-.41-.54-.26-1.01-.65-1.41-1.17-.4-.52-.72-1.17-.96-1.95-.24-.78-.35-1.69-.35-2.73,0-.87.09-1.68.28-2.44.19-.76.46-1.42.83-1.98.37-.57.84-1.01,1.39-1.34.56-.33,1.21-.49,1.95-.49s1.41.16,1.97.49c.56.33,1.02.77,1.39,1.33.37.56.65,1.22.83,1.98.18.76.27,1.58.27,2.45,0,.95-.11,1.8-.32,2.57-.21.76-.51,1.42-.9,1.97s-.86.97-1.41,1.27c-.55.3-1.16.45-1.83.45ZM86.87,76.52c0-.7-.06-1.36-.19-1.97-.12-.61-.31-1.14-.57-1.59s-.59-.81-1-1.07c-.41-.26-.91-.39-1.5-.39s-1.08.14-1.49.42c-.41.28-.75.66-1.01,1.12-.26.47-.45,1-.58,1.6-.12.6-.19,1.23-.19,1.87,0,.73.07,1.41.21,2.03.14.62.35,1.15.62,1.59.27.44.61.79,1.02,1.03.41.25.88.37,1.41.37.58,0,1.08-.14,1.49-.42.42-.28.75-.66,1.01-1.13.26-.47.45-1.01.57-1.6.12-.6.19-1.21.19-1.86Z"/>
    <path class="cls-1" d="M98.12,80.62l2.53-10.04h1.13l-3.12,11.87h-1.19l-2.1-9.97h-.04l-2.14,9.97h-1.34l-2.93-11.87h1.11l2.49,10.13,2.23-10.13h1.24l2.12,10.04Z"/>
    <path class="cls-1" d="M109.13,82.46v-16.5h1.11v16.5h-1.11Z"/>
    <path class="cls-1" d="M116.9,82.78c-.62-.02-1.2-.15-1.74-.41-.54-.26-1.01-.65-1.41-1.17-.4-.52-.72-1.17-.96-1.95-.24-.78-.35-1.69-.35-2.73,0-.87.09-1.68.28-2.44.19-.76.46-1.42.83-1.98.37-.57.84-1.01,1.39-1.34.56-.33,1.21-.49,1.95-.49s1.41.16,1.97.49c.56.33,1.02.77,1.39,1.33.37.56.65,1.22.83,1.98.18.76.27,1.58.27,2.45,0,.95-.11,1.8-.32,2.57-.21.76-.51,1.42-.9,1.97s-.86.97-1.41,1.27c-.55.3-1.16.45-1.83.45ZM120.16,76.52c0-.7-.06-1.36-.19-1.97-.12-.61-.31-1.14-.57-1.59s-.59-.81-1-1.07c-.41-.26-.91-.39-1.5-.39s-1.08.14-1.49.42c-.41.28-.75.66-1.01,1.12-.26.47-.45,1-.58,1.6-.12.6-.19,1.23-.19,1.87,0,.73.07,1.41.21,2.03.14.62.35,1.15.62,1.59.27.44.61.79,1.02,1.03.41.25.88.37,1.41.37.58,0,1.08-.14,1.49-.42.42-.28.75-.66,1.01-1.13.26-.47.45-1.01.57-1.6.12-.6.19-1.21.19-1.86Z"/>
    <path class="cls-1" d="M127.39,82.78c-.62-.02-1.2-.15-1.74-.41-.54-.26-1.01-.65-1.41-1.17-.4-.52-.72-1.17-.96-1.95-.24-.78-.35-1.69-.35-2.73,0-.87.09-1.68.28-2.44.19-.76.46-1.42.83-1.98.37-.57.84-1.01,1.39-1.34.56-.33,1.21-.49,1.95-.49s1.41.16,1.97.49c.56.33,1.02.77,1.39,1.33.37.56.65,1.22.83,1.98.18.76.27,1.58.27,2.45,0,.95-.11,1.8-.32,2.57-.21.76-.51,1.42-.9,1.97s-.86.97-1.41,1.27c-.55.3-1.16.45-1.83.45ZM130.65,76.52c0-.7-.06-1.36-.19-1.97-.12-.61-.31-1.14-.57-1.59s-.59-.81-1-1.07c-.41-.26-.91-.39-1.5-.39s-1.08.14-1.49.42c-.41.28-.75.66-1.01,1.12-.26.47-.45,1-.58,1.6-.12.6-.19,1.23-.19,1.87,0,.73.07,1.41.21,2.03.14.62.35,1.15.62,1.59.27.44.61.79,1.02,1.03.41.25.88.37,1.41.37.58,0,1.08-.14,1.49-.42.42-.28.75-.66,1.01-1.13.26-.47.45-1.01.57-1.6.12-.6.19-1.21.19-1.86Z"/>
    <path class="cls-1" d="M133.9,82.46v-16.5h1.11v10.27l4.72-5.64h1.52l-3.6,4.28,4.03,7.58h-1.24l-3.6-6.62-1.82,2.13v4.49h-1.11Z"/>
    <path class="cls-1" d="M143.37,68v-2.04h1.22v2.04h-1.22ZM143.43,82.46v-11.87h1.11v11.87h-1.11Z"/>
    <path class="cls-1" d="M148.36,82.46h-1.11v-11.87h1.11v1.65c.45-.58.91-1.05,1.38-1.42.48-.37,1.05-.55,1.72-.55.59,0,1.14.13,1.65.38.51.25.93.69,1.28,1.32.24.43.37.87.42,1.32.04.45.06.92.06,1.41v7.77h-1.11v-7.75c0-1.07-.19-1.87-.58-2.41-.38-.53-1.02-.8-1.91-.8-.35,0-.66.06-.95.19-.29.13-.54.3-.77.52-.23.21-.42.46-.58.73-.16.28-.28.57-.37.87-.11.38-.18.75-.2,1.1-.02.35-.04.73-.04,1.15v6.39Z"/>
    <path class="cls-1" d="M164.84,70.59h1.11v10.72c0,.79-.06,1.55-.19,2.28-.13.73-.36,1.36-.7,1.91s-.79.99-1.37,1.32c-.58.33-1.33.49-2.25.49-.7,0-1.31-.11-1.82-.33s-.92-.5-1.24-.84-.57-.71-.73-1.11c-.17-.41-.26-.78-.27-1.13h1.19c.09.44.22.81.41,1.09s.41.5.66.66c.25.16.54.27.85.33.31.06.63.09.96.09.76,0,1.36-.16,1.82-.48.46-.32.8-.74,1.04-1.26.23-.52.39-1.11.45-1.76.07-.66.1-1.33.08-2.02-.36.73-.85,1.29-1.48,1.66-.62.37-1.28.56-1.96.56-.73,0-1.36-.17-1.9-.52-.54-.34-.98-.8-1.34-1.38-.35-.57-.62-1.24-.79-2-.17-.76-.26-1.56-.26-2.38,0-.87.08-1.69.24-2.45.16-.76.42-1.42.77-1.98.35-.56.8-1,1.35-1.32s1.21-.48,1.99-.48c.31,0,.63.05.95.16.32.11.63.26.94.46.3.2.58.45.84.76.25.31.46.65.62,1.03h.04v-2.09ZM164.84,76.57c0-.72-.07-1.39-.21-2-.14-.62-.35-1.15-.62-1.6-.27-.45-.61-.81-1.02-1.07-.41-.26-.87-.39-1.39-.39-.47,0-.9.1-1.3.31-.4.21-.74.51-1.04.9-.3.4-.53.88-.7,1.45s-.25,1.23-.25,1.98c-.02.75.03,1.45.15,2.1.12.65.32,1.22.59,1.71.27.49.62.87,1.04,1.16.42.28.92.42,1.5.42.51,0,.96-.13,1.36-.4.4-.27.74-.63,1.02-1.08s.49-.98.64-1.58.22-1.24.22-1.91Z"/>
    <path class="cls-1" d="M178.75,75.54c.21-.03.46-.08.75-.14.29-.06.53-.15.71-.25s.3-.29.34-.54c.04-.25.07-.48.07-.7,0-.7-.18-1.28-.55-1.73-.36-.45-.98-.68-1.85-.68-.38,0-.74.04-1.06.13-.32.08-.6.23-.85.44-.24.21-.44.48-.59.83-.16.34-.26.78-.31,1.29h-1.13c.04-.7.17-1.3.39-1.8.22-.5.51-.9.86-1.21.35-.31.76-.54,1.22-.69s.96-.22,1.48-.22c.48,0,.94.07,1.36.19.43.13.8.34,1.11.62.32.28.56.66.74,1.13.18.47.27,1.05.27,1.74v6.46c0,.53.08.87.23,1.02.15.15.47.11.94-.1v1.08c-.09.03-.21.08-.38.14-.17.06-.33.09-.49.09-.17,0-.34-.02-.5-.07-.19-.03-.33-.1-.44-.22-.11-.11-.2-.25-.27-.41-.07-.16-.11-.34-.14-.53-.03-.19-.04-.39-.04-.61-.47.64-1.01,1.13-1.62,1.47-.61.34-1.26.5-1.97.5-.42,0-.83-.07-1.22-.21s-.73-.35-1.03-.64c-.3-.29-.53-.65-.7-1.07-.17-.42-.26-.92-.26-1.5,0-2.02,1.12-3.21,3.36-3.57l1.54-.25ZM180.62,76.22c-.47.24-.95.4-1.43.48s-.97.14-1.45.18c-.85.08-1.52.31-2,.71-.48.4-.72,1-.72,1.81,0,.37.06.68.18.95.12.27.27.49.46.66.19.18.41.31.67.39.25.08.51.13.77.13.45,0,.88-.07,1.3-.21.42-.14.8-.35,1.12-.63.33-.28.59-.64.79-1.08.2-.44.3-.95.3-1.55v-1.86Z"/>
    <path class="cls-1" d="M187.83,82.5c-.14.03-.32.08-.54.16s-.47.11-.74.11c-.56,0-.98-.17-1.27-.52-.29-.34-.44-.96-.44-1.84v-8.68h-1.35v-1.15h1.35v-3.3h1.11v3.3h1.8v1.15h-1.8v8.13c0,.29,0,.54.02.76.01.21.05.39.11.53.06.14.16.24.29.3.13.06.31.09.55.09.15,0,.3-.02.45-.05.15-.03.31-.07.46-.11v1.12Z"/>
    <path class="cls-1" d="M199.6,75.54c.21-.03.46-.08.75-.14.29-.06.53-.15.71-.25s.3-.29.34-.54c.04-.25.07-.48.07-.7,0-.7-.18-1.28-.55-1.73-.36-.45-.98-.68-1.85-.68-.38,0-.74.04-1.06.13-.32.08-.6.23-.85.44-.24.21-.44.48-.59.83-.16.34-.26.78-.31,1.29h-1.13c.04-.7.17-1.3.39-1.8.22-.5.51-.9.86-1.21.35-.31.76-.54,1.22-.69s.96-.22,1.48-.22c.48,0,.94.07,1.36.19.43.13.8.34,1.11.62.32.28.56.66.74,1.13.18.47.27,1.05.27,1.74v6.46c0,.53.08.87.23,1.02.15.15.47.11.94-.1v1.08c-.09.03-.21.08-.38.14-.17.06-.33.09-.49.09-.17,0-.34-.02-.5-.07-.19-.03-.33-.1-.44-.22-.11-.11-.2-.25-.27-.41-.07-.16-.11-.34-.14-.53-.03-.19-.04-.39-.04-.61-.47.64-1.01,1.13-1.62,1.47-.61.34-1.26.5-1.97.5-.42,0-.83-.07-1.22-.21s-.73-.35-1.03-.64c-.3-.29-.53-.65-.7-1.07-.17-.42-.26-.92-.26-1.5,0-2.02,1.12-3.21,3.36-3.57l1.54-.25ZM201.48,76.22c-.47.24-.95.4-1.43.48s-.97.14-1.45.18c-.85.08-1.52.31-2,.71-.48.4-.72,1-.72,1.81,0,.37.06.68.18.95.12.27.27.49.46.66.19.18.41.31.67.39.25.08.51.13.77.13.45,0,.88-.07,1.3-.21.42-.14.8-.35,1.12-.63.33-.28.59-.64.79-1.08.2-.44.3-.95.3-1.55v-1.86Z"/>
    <path class="cls-1" d="M206.63,82.46h-1.11v-11.87h1.11v1.65c.45-.58.91-1.05,1.38-1.42.48-.37,1.05-.55,1.72-.55.59,0,1.14.13,1.65.38.51.25.93.69,1.28,1.32.24.43.37.87.42,1.32.04.45.06.92.06,1.41v7.77h-1.11v-7.75c0-1.07-.19-1.87-.58-2.41-.38-.53-1.02-.8-1.91-.8-.35,0-.66.06-.95.19-.29.13-.54.3-.77.52-.23.21-.42.46-.58.73-.16.28-.28.57-.37.87-.11.38-.18.75-.2,1.1-.02.35-.04.73-.04,1.15v6.39Z"/>
    <path class="cls-1" d="M225.23,82.78c-.62-.02-1.2-.15-1.74-.41-.54-.26-1.01-.65-1.41-1.17-.4-.52-.72-1.17-.96-1.95-.24-.78-.35-1.69-.35-2.73,0-.87.09-1.68.28-2.44.19-.76.46-1.42.83-1.98.37-.57.84-1.01,1.39-1.34.56-.33,1.21-.49,1.95-.49s1.41.16,1.97.49c.56.33,1.02.77,1.39,1.33.37.56.65,1.22.83,1.98.18.76.27,1.58.27,2.45,0,.95-.11,1.8-.32,2.57-.21.76-.51,1.42-.9,1.97s-.86.97-1.41,1.27c-.55.3-1.16.45-1.83.45ZM228.5,76.52c0-.7-.06-1.36-.19-1.97-.12-.61-.31-1.14-.57-1.59s-.59-.81-1-1.07c-.41-.26-.91-.39-1.5-.39s-1.08.14-1.49.42c-.41.28-.75.66-1.01,1.12-.26.47-.45,1-.58,1.6-.12.6-.19,1.23-.19,1.87,0,.73.07,1.41.21,2.03.14.62.35,1.15.62,1.59.27.44.61.79,1.02,1.03.41.25.88.37,1.41.37.58,0,1.08-.14,1.49-.42.42-.28.75-.66,1.01-1.13.26-.47.45-1.01.57-1.6.12-.6.19-1.21.19-1.86Z"/>
    <path class="cls-1" d="M232.92,82.46h-1.11v-11.87h1.11v2.22h.04c.31-.95.71-1.61,1.2-1.98.49-.37,1.14-.56,1.94-.56v1.49c-.63-.02-1.15.11-1.56.37s-.73.61-.97,1.05c-.24.44-.41.97-.5,1.57-.09.6-.14,1.23-.14,1.89v5.82Z"/>
    <path class="cls-1" d="M244.95,65.96h1.11v16.5h-1.11v-2.09h-.04c-.16.4-.37.74-.62,1.04-.25.3-.53.55-.84.74-.3.2-.62.35-.94.46s-.64.16-.95.16c-.78,0-1.44-.16-1.99-.48-.54-.32-.99-.76-1.35-1.32s-.61-1.22-.77-1.98c-.16-.76-.24-1.58-.24-2.45,0-.82.09-1.62.26-2.38.17-.76.44-1.43.79-2.01s.8-1.03,1.34-1.37c.54-.34,1.17-.52,1.9-.52.68,0,1.33.19,1.96.56.63.37,1.12.93,1.48,1.66v-6.53ZM244.95,76.47c0-.67-.07-1.31-.22-1.91s-.36-1.13-.64-1.58-.62-.81-1.02-1.08c-.4-.27-.86-.4-1.36-.4-.58,0-1.08.14-1.5.42-.42.28-.77.67-1.04,1.16-.27.49-.47,1.06-.59,1.71-.12.65-.17,1.35-.15,2.1,0,.75.08,1.41.25,1.98.17.57.4,1.06.7,1.46.3.4.64.7,1.04.9.4.21.83.31,1.3.31.52,0,.98-.13,1.39-.39.41-.26.75-.61,1.02-1.07.27-.45.48-.99.62-1.6.14-.62.21-1.29.21-2.01Z"/>
    <path class="cls-1" d="M248.77,68v-2.04h1.22v2.04h-1.22ZM248.83,82.46v-11.87h1.11v11.87h-1.11Z"/>
    <path class="cls-1" d="M253.76,82.46h-1.11v-11.87h1.11v1.65c.45-.58.91-1.05,1.38-1.42.48-.37,1.05-.55,1.72-.55.59,0,1.14.13,1.65.38.51.25.93.69,1.28,1.32.24.43.37.87.42,1.32.04.45.06.92.06,1.41v7.77h-1.11v-7.75c0-1.07-.19-1.87-.58-2.41-.38-.53-1.02-.8-1.91-.8-.35,0-.66.06-.95.19-.29.13-.54.3-.77.52-.23.21-.42.46-.58.73-.16.28-.28.57-.37.87-.11.38-.18.75-.2,1.1-.02.35-.04.73-.04,1.15v6.39Z"/>
    <path class="cls-1" d="M267.26,75.54c.21-.03.46-.08.75-.14.29-.06.53-.15.71-.25s.3-.29.34-.54c.04-.25.07-.48.07-.7,0-.7-.18-1.28-.55-1.73-.36-.45-.98-.68-1.85-.68-.38,0-.74.04-1.06.13-.32.08-.6.23-.85.44-.24.21-.44.48-.59.83-.16.34-.26.78-.31,1.29h-1.13c.04-.7.17-1.3.39-1.8.22-.5.51-.9.86-1.21.35-.31.76-.54,1.22-.69s.96-.22,1.48-.22c.48,0,.94.07,1.36.19.43.13.8.34,1.11.62.32.28.56.66.74,1.13.18.47.27,1.05.27,1.74v6.46c0,.53.08.87.23,1.02.15.15.47.11.94-.1v1.08c-.09.03-.21.08-.38.14-.17.06-.33.09-.49.09-.17,0-.34-.02-.5-.07-.19-.03-.33-.1-.44-.22-.11-.11-.2-.25-.27-.41-.07-.16-.11-.34-.14-.53-.03-.19-.04-.39-.04-.61-.47.64-1.01,1.13-1.62,1.47-.61.34-1.26.5-1.97.5-.42,0-.83-.07-1.22-.21s-.73-.35-1.03-.64c-.3-.29-.53-.65-.7-1.07-.17-.42-.26-.92-.26-1.5,0-2.02,1.12-3.21,3.36-3.57l1.54-.25ZM269.13,76.22c-.47.24-.95.4-1.43.48s-.97.14-1.45.18c-.85.08-1.52.31-2,.71-.48.4-.72,1-.72,1.81,0,.37.06.68.18.95.12.27.27.49.46.66.19.18.41.31.67.39.25.08.51.13.77.13.45,0,.88-.07,1.3-.21.42-.14.8-.35,1.12-.63.33-.28.59-.64.79-1.08.2-.44.3-.95.3-1.55v-1.86Z"/>
    <path class="cls-1" d="M274.31,82.46h-1.11v-11.87h1.11v2.22h.04c.31-.95.71-1.61,1.2-1.98.49-.37,1.14-.56,1.94-.56v1.49c-.63-.02-1.15.11-1.56.37s-.73.61-.97,1.05c-.24.44-.41.97-.5,1.57-.09.6-.14,1.23-.14,1.89v5.82Z"/>
    <path class="cls-1" d="M279.72,85.66c.15.03.3.06.45.09.15.03.31.05.47.05.31,0,.56-.12.76-.37.2-.24.36-.54.49-.88.13-.34.24-.7.33-1.07.09-.37.19-.69.3-.95l-3.73-11.94h1.24l3.08,10.2,3.08-10.2h1.21l-3.58,11.71c-.22.75-.44,1.42-.64,2.02-.2.6-.42,1.1-.65,1.52-.23.42-.48.74-.76.96-.28.22-.61.33-.99.33-.2,0-.39-.02-.57-.05-.18-.03-.34-.07-.49-.11v-1.31Z"/>
    <path class="cls-1" d="M295.89,87.13h-1.11v-16.54h1.11v2.09h.04c.16-.38.37-.73.62-1.03.25-.31.53-.56.83-.76.3-.2.62-.35.94-.46.32-.11.64-.16.95-.16.78,0,1.44.16,1.99.48.54.32.99.76,1.35,1.32.35.56.61,1.22.77,1.98.16.76.24,1.58.24,2.45,0,.83-.09,1.62-.26,2.38-.17.76-.44,1.43-.79,2-.35.57-.8,1.03-1.34,1.38s-1.17.52-1.9.52c-.68,0-1.33-.19-1.96-.56-.62-.37-1.12-.93-1.48-1.66v6.58ZM295.89,76.57c0,.67.07,1.31.22,1.91s.36,1.13.64,1.58c.28.45.62.81,1.02,1.08.4.27.86.4,1.36.4.57,0,1.07-.14,1.49-.42.43-.28.78-.67,1.05-1.16.27-.49.47-1.06.59-1.71.12-.65.17-1.35.15-2.1,0-.75-.08-1.41-.25-1.98s-.4-1.06-.7-1.45c-.3-.4-.64-.7-1.04-.9-.4-.21-.83-.31-1.3-.31-.52,0-.98.13-1.39.39-.41.26-.75.62-1.02,1.07-.27.45-.48.99-.62,1.6-.14.62-.21,1.29-.21,2Z"/>
    <path class="cls-1" d="M305.87,82.46v-16.5h1.11v6.28c.45-.58.91-1.05,1.38-1.42.48-.37,1.05-.55,1.72-.55.59,0,1.14.13,1.65.38.51.25.93.69,1.28,1.32.24.43.37.87.42,1.32.04.45.06.92.06,1.41v7.77h-1.11v-7.75c0-1.07-.19-1.87-.58-2.41-.38-.53-1.02-.8-1.91-.8-.35,0-.66.06-.95.19-.29.13-.54.3-.77.52-.23.21-.42.46-.58.73-.16.28-.28.57-.37.87-.11.38-.18.75-.2,1.1-.02.35-.04.73-.04,1.15v6.39h-1.11Z"/>
    <path class="cls-1" d="M320.03,82.78c-.62-.02-1.2-.15-1.74-.41-.54-.26-1.01-.65-1.41-1.17-.4-.52-.72-1.17-.96-1.95-.24-.78-.35-1.69-.35-2.73,0-.87.09-1.68.28-2.44.19-.76.46-1.42.83-1.98.37-.57.84-1.01,1.39-1.34.56-.33,1.21-.49,1.95-.49s1.41.16,1.97.49c.56.33,1.02.77,1.39,1.33.37.56.65,1.22.83,1.98.18.76.27,1.58.27,2.45,0,.95-.11,1.8-.32,2.57-.21.76-.51,1.42-.9,1.97s-.86.97-1.41,1.27c-.55.3-1.16.45-1.83.45ZM323.3,76.52c0-.7-.06-1.36-.19-1.97-.12-.61-.31-1.14-.57-1.59s-.59-.81-1-1.07c-.41-.26-.91-.39-1.5-.39s-1.08.14-1.49.42c-.41.28-.75.66-1.01,1.12-.26.47-.45,1-.58,1.6-.12.6-.19,1.23-.19,1.87,0,.73.07,1.41.21,2.03.14.62.35,1.15.62,1.59.27.44.61.79,1.02,1.03.41.25.88.37,1.41.37.58,0,1.08-.14,1.49-.42.42-.28.75-.66,1.01-1.13.26-.47.45-1.01.57-1.6.12-.6.19-1.21.19-1.86Z"/>
    <path class="cls-1" d="M4.6,115.37c-.14.03-.32.08-.54.16s-.47.11-.74.11c-.56,0-.98-.17-1.27-.52-.29-.34-.44-.96-.44-1.84v-8.68H.25v-1.15h1.35v-3.3h1.11v3.3h1.8v1.15h-1.8v8.13c0,.29,0,.54.02.76.01.21.05.39.11.53.06.14.16.24.29.3.13.06.31.09.55.09.15,0,.3-.02.45-.05.15-.03.31-.07.46-.11v1.12Z"/>
    <path class="cls-1" d="M9.92,115.65c-.62-.02-1.2-.15-1.74-.41-.54-.26-1.01-.65-1.41-1.17-.4-.52-.72-1.17-.96-1.95-.24-.78-.35-1.69-.35-2.73,0-.87.09-1.68.28-2.44.19-.76.46-1.42.83-1.98.37-.57.84-1.01,1.39-1.34.56-.33,1.21-.49,1.95-.49s1.41.16,1.97.49c.56.33,1.02.77,1.39,1.33.37.56.65,1.22.83,1.98.18.76.27,1.58.27,2.45,0,.95-.11,1.8-.32,2.57-.21.76-.51,1.42-.9,1.97s-.86.97-1.41,1.27c-.55.3-1.16.45-1.83.45ZM13.19,109.39c0-.7-.06-1.36-.19-1.97-.12-.61-.31-1.14-.57-1.59s-.59-.81-1-1.07c-.41-.26-.91-.39-1.5-.39s-1.08.14-1.49.42c-.41.28-.75.66-1.01,1.12-.26.47-.45,1-.58,1.6-.12.6-.19,1.23-.19,1.87,0,.73.07,1.41.21,2.03.14.62.35,1.15.62,1.59.27.44.61.79,1.02,1.03.41.25.88.37,1.41.37.58,0,1.08-.14,1.49-.42.42-.28.75-.66,1.01-1.13.26-.47.45-1.01.57-1.6.12-.6.19-1.21.19-1.86Z"/>
    <path class="cls-1" d="M22.1,100.87v-2.04h1.22v2.04h-1.22ZM22.16,115.33v-11.87h1.11v11.87h-1.11Z"/>
    <path class="cls-1" d="M27.08,115.33h-1.11v-11.87h1.11v1.65c.45-.58.91-1.05,1.38-1.42.48-.37,1.05-.55,1.72-.55.59,0,1.14.13,1.65.38.51.25.93.69,1.28,1.32.24.43.37.87.42,1.32.04.45.06.92.06,1.41v7.77h-1.11v-7.75c0-1.07-.19-1.87-.58-2.41-.38-.53-1.02-.8-1.91-.8-.35,0-.66.06-.95.19-.29.13-.54.3-.77.52-.23.21-.42.46-.58.73-.16.28-.28.57-.37.87-.11.38-.18.75-.2,1.1-.02.35-.04.73-.04,1.15v6.39Z"/>
    <path class="cls-1" d="M42.83,115.33h-1.11v-11.87h1.11v1.79h.04c.28-.69.69-1.21,1.23-1.57.53-.36,1.11-.54,1.75-.54.45,0,.82.06,1.13.18.31.12.57.29.79.49.22.21.4.45.54.72.14.27.26.57.36.89.32-.78.75-1.36,1.29-1.73.54-.37,1.15-.56,1.85-.56.66,0,1.18.13,1.57.4.39.27.69.62.9,1.05.21.44.35.94.42,1.5.07.57.1,1.15.1,1.74v7.49h-1.11v-8.2c0-.86-.15-1.53-.44-2.02-.29-.49-.83-.73-1.62-.73-.41,0-.8.11-1.18.33-.38.22-.71.56-.99,1.02-.12.2-.23.43-.31.7-.08.27-.15.55-.2.84-.05.29-.08.58-.1.87s-.03.56-.03.8v6.39h-1.11v-8.2c0-.86-.15-1.53-.44-2.02-.29-.49-.83-.73-1.62-.73-.41,0-.8.11-1.18.33s-.71.56-.99,1.02c-.12.2-.23.43-.31.7-.08.27-.15.55-.2.84-.05.29-.08.58-.1.87s-.03.56-.03.8v6.39Z"/>
    <path class="cls-1" d="M57.02,118.53c.15.03.3.06.45.09.15.03.31.05.47.05.31,0,.56-.12.76-.37.2-.24.36-.54.49-.88.13-.34.24-.7.33-1.07.09-.37.19-.69.3-.95l-3.73-11.94h1.24l3.08,10.2,3.08-10.2h1.21l-3.58,11.71c-.22.75-.44,1.42-.64,2.02-.2.6-.42,1.1-.65,1.52-.23.42-.48.74-.76.96-.28.22-.61.33-.99.33-.2,0-.39-.02-.57-.05-.18-.03-.34-.07-.49-.11v-1.31Z"/>
    <path class="cls-1" d="M78.76,107.19c-.2-.89-.54-1.58-1.02-2.07-.48-.5-1.1-.74-1.84-.74-.57,0-1.06.15-1.47.43-.41.29-.74.68-1,1.16s-.45,1.02-.58,1.63c-.12.6-.19,1.21-.19,1.82s.06,1.24.18,1.83c.12.6.31,1.13.57,1.6.26.47.59.85,1,1.13.41.28.9.42,1.48.42.83,0,1.49-.28,2-.85s.82-1.34.96-2.34h1.19c-.1.66-.26,1.26-.47,1.8-.22.54-.5,1.01-.84,1.4-.34.39-.75.69-1.22.9s-1.01.32-1.62.32c-.77,0-1.43-.16-1.99-.48-.56-.32-1.01-.76-1.37-1.32-.36-.56-.62-1.22-.8-1.98-.17-.76-.26-1.58-.26-2.45,0-.82.1-1.62.29-2.37.19-.76.47-1.42.84-2,.37-.58.83-1.04,1.38-1.39.55-.34,1.19-.52,1.9-.52,1.11,0,2.01.33,2.7.99.69.66,1.12,1.68,1.29,3.07h-1.13Z"/>
    <path class="cls-1" d="M86.69,108.41c.21-.03.46-.08.75-.14.29-.06.53-.15.71-.25s.3-.29.34-.54c.04-.25.07-.48.07-.7,0-.7-.18-1.28-.55-1.73-.36-.45-.98-.68-1.85-.68-.38,0-.74.04-1.06.13-.32.08-.6.23-.85.44-.24.21-.44.48-.59.83-.16.34-.26.78-.31,1.29h-1.13c.04-.7.17-1.3.39-1.8.22-.5.51-.9.86-1.21.35-.31.76-.54,1.22-.69s.96-.22,1.48-.22c.48,0,.94.07,1.36.19.43.13.8.34,1.11.62.32.28.56.66.74,1.13.18.47.27,1.05.27,1.74v6.46c0,.53.08.87.23,1.02.15.15.47.11.94-.1v1.08c-.09.03-.21.08-.38.14-.17.06-.33.09-.49.09-.17,0-.34-.02-.5-.07-.19-.03-.33-.1-.44-.22-.11-.11-.2-.25-.27-.41-.07-.16-.11-.34-.14-.53-.03-.19-.04-.39-.04-.61-.47.64-1.01,1.13-1.62,1.47-.61.34-1.26.5-1.97.5-.42,0-.83-.07-1.22-.21s-.73-.35-1.03-.64c-.3-.29-.53-.65-.7-1.07-.17-.42-.26-.92-.26-1.5,0-2.02,1.12-3.21,3.36-3.57l1.54-.25ZM88.57,109.09c-.47.24-.95.4-1.43.48s-.97.14-1.45.18c-.85.08-1.52.31-2,.71-.48.4-.72,1-.72,1.81,0,.37.06.68.18.95.12.27.27.49.46.66.19.18.41.31.67.39.25.08.51.13.77.13.45,0,.88-.07,1.3-.21.42-.14.8-.35,1.12-.63.33-.28.59-.64.79-1.08.2-.44.3-.95.3-1.55v-1.86Z"/>
    <path class="cls-1" d="M93.64,115.33h-1.11v-11.87h1.11v1.79h.04c.28-.69.69-1.21,1.23-1.57.53-.36,1.11-.54,1.75-.54.45,0,.82.06,1.13.18.31.12.57.29.79.49.22.21.4.45.54.72.14.27.26.57.36.89.32-.78.75-1.36,1.29-1.73.54-.37,1.15-.56,1.85-.56.66,0,1.18.13,1.57.4.39.27.69.62.9,1.05.21.44.35.94.42,1.5.07.57.1,1.15.1,1.74v7.49h-1.11v-8.2c0-.86-.15-1.53-.44-2.02-.29-.49-.83-.73-1.62-.73-.41,0-.8.11-1.18.33-.38.22-.71.56-.99,1.02-.12.2-.23.43-.31.7-.08.27-.15.55-.2.84-.05.29-.08.58-.1.87s-.03.56-.03.8v6.39h-1.11v-8.2c0-.86-.15-1.53-.44-2.02-.29-.49-.83-.73-1.62-.73-.41,0-.8.11-1.18.33s-.71.56-.99,1.02c-.12.2-.23.43-.31.7-.08.27-.15.55-.2.84-.05.29-.08.58-.1.87s-.03.56-.03.8v6.39Z"/>
    <path class="cls-1" d="M108.85,109.71c0,.64.07,1.25.2,1.82.14.57.34,1.07.6,1.49.27.42.6.76,1.01,1.01.41.25.88.38,1.41.38.73,0,1.36-.24,1.88-.71s.87-1.15,1.04-2.02h1.24c-.14.57-.32,1.09-.54,1.57s-.5.9-.83,1.26c-.33.36-.73.64-1.19.84-.46.2-.99.3-1.6.3-.77,0-1.43-.16-1.99-.48-.56-.32-1.01-.76-1.37-1.32-.36-.56-.62-1.21-.8-1.97-.17-.76-.26-1.57-.26-2.44s.1-1.69.31-2.45.49-1.43.87-2.01c.38-.57.84-1.02,1.38-1.35.54-.33,1.16-.49,1.86-.49,1.32,0,2.36.56,3.12,1.68.76,1.12,1.13,2.75,1.11,4.89h-7.46ZM115.13,108.57c0-.58-.06-1.13-.19-1.64-.13-.51-.32-.95-.58-1.33-.25-.37-.57-.67-.96-.89-.38-.22-.82-.33-1.32-.33s-.93.11-1.31.34c-.38.23-.7.53-.96.92-.27.38-.48.83-.64,1.33-.16.5-.27,1.04-.32,1.6h6.28Z"/>
    <path class="cls-1" d="M119.6,115.33h-1.11v-11.87h1.11v2.22h.04c.31-.95.71-1.61,1.2-1.98.49-.37,1.14-.56,1.94-.56v1.49c-.63-.02-1.15.11-1.56.37s-.73.61-.97,1.05c-.24.44-.41.97-.5,1.57-.09.6-.14,1.23-.14,1.89v5.82Z"/>
    <path class="cls-1" d="M128.75,108.41c.21-.03.46-.08.75-.14.29-.06.53-.15.71-.25s.3-.29.34-.54c.04-.25.07-.48.07-.7,0-.7-.18-1.28-.55-1.73-.36-.45-.98-.68-1.85-.68-.38,0-.74.04-1.06.13-.32.08-.6.23-.85.44-.24.21-.44.48-.59.83-.16.34-.26.78-.31,1.29h-1.13c.04-.7.17-1.3.39-1.8.22-.5.51-.9.86-1.21.35-.31.76-.54,1.22-.69s.96-.22,1.48-.22c.48,0,.94.07,1.36.19.43.13.8.34,1.11.62.32.28.56.66.74,1.13.18.47.27,1.05.27,1.74v6.46c0,.53.08.87.23,1.02.15.15.47.11.94-.1v1.08c-.09.03-.21.08-.38.14-.17.06-.33.09-.49.09-.17,0-.34-.02-.5-.07-.19-.03-.33-.1-.44-.22-.11-.11-.2-.25-.27-.41-.07-.16-.11-.34-.14-.53-.03-.19-.04-.39-.04-.61-.47.64-1.01,1.13-1.62,1.47-.61.34-1.26.5-1.97.5-.42,0-.83-.07-1.22-.21s-.73-.35-1.03-.64c-.3-.29-.53-.65-.7-1.07-.17-.42-.26-.92-.26-1.5,0-2.02,1.12-3.21,3.36-3.57l1.54-.25ZM130.63,109.09c-.47.24-.95.4-1.43.48s-.97.14-1.45.18c-.85.08-1.52.31-2,.71-.48.4-.72,1-.72,1.81,0,.37.06.68.18.95.12.27.27.49.46.66.19.18.41.31.67.39.25.08.51.13.77.13.45,0,.88-.07,1.3-.21.42-.14.8-.35,1.12-.63.33-.28.59-.64.79-1.08.2-.44.3-.95.3-1.55v-1.86Z"/>
    <path class="cls-1" d="M141.4,115.33h-1.11v-11.87h1.11v2.22h.04c.31-.95.71-1.61,1.2-1.98.49-.37,1.14-.56,1.94-.56v1.49c-.63-.02-1.15.11-1.56.37s-.73.61-.97,1.05c-.24.44-.41.97-.5,1.57-.09.6-.14,1.23-.14,1.89v5.82Z"/>
    <path class="cls-1" d="M149.97,115.65c-.62-.02-1.2-.15-1.74-.41-.54-.26-1.01-.65-1.41-1.17-.4-.52-.72-1.17-.96-1.95-.24-.78-.35-1.69-.35-2.73,0-.87.09-1.68.28-2.44.19-.76.46-1.42.83-1.98.37-.57.84-1.01,1.39-1.34.56-.33,1.21-.49,1.95-.49s1.41.16,1.97.49c.56.33,1.02.77,1.39,1.33.37.56.65,1.22.83,1.98.18.76.27,1.58.27,2.45,0,.95-.11,1.8-.32,2.57-.21.76-.51,1.42-.9,1.97s-.86.97-1.41,1.27c-.55.3-1.16.45-1.83.45ZM153.24,109.39c0-.7-.06-1.36-.19-1.97-.12-.61-.31-1.14-.57-1.59s-.59-.81-1-1.07c-.41-.26-.91-.39-1.5-.39s-1.08.14-1.49.42c-.41.28-.75.66-1.01,1.12-.26.47-.45,1-.58,1.6-.12.6-.19,1.23-.19,1.87,0,.73.07,1.41.21,2.03.14.62.35,1.15.62,1.59.27.44.61.79,1.02,1.03.41.25.88.37,1.41.37.58,0,1.08-.14,1.49-.42.42-.28.75-.66,1.01-1.13.26-.47.45-1.01.57-1.6.12-.6.19-1.21.19-1.86Z"/>
    <path class="cls-1" d="M156.62,115.33v-16.5h1.11v16.5h-1.11Z"/>
    <path class="cls-1" d="M160.51,115.33v-16.5h1.11v16.5h-1.11Z"/>
    <path class="cls-1" d="M164.72,115.33v-2.02h1.36v2.02h-1.36Z"/>
  </g>
  <rect class="cls-2" x="328.9" width="1" height="115.69"/>
</svg>