<?xml version="1.0" encoding="UTF-8"?>
<svg id="_レイヤー_1" data-name="レイヤー 1" xmlns="http://www.w3.org/2000/svg" viewBox="0 0 330 120">
  <defs>
    <style>
      .cls-1 {
        stroke: #00c800;
        stroke-miterlimit: 10;
        stroke-width: .5px;
      }

      .cls-1, .cls-2 {
        fill: #00c800;
      }
    </style>
  </defs>
  <g>
    <path class="cls-1" d="M9.4,18.29s-.06.02-.1.02c-.08,0-.14-.07-.14-.13,0-.04.02-.11.1-.15,2.12-1.5,3.21-3.54,3.31-5.65v-.24c0-2.98-2.52-4.06-4.68-4.06-.56,0-1.11.07-1.57.2-.02.26-.04.7-.06,1,.44.46.67.85.67,1.15v.02c-.04.78-.46,1.7-.79,2.35-.04.76-.06,1.61-.06,2.46,0,.96.04,1.91.14,2.76v.17c0,.35-.14.67-.54.91-.08.04-.16.07-.24.07-.3,0-.57-.24-.57-.59v-.07c.12-1.26.18-2.72.24-3.98-.65,1.06-1.37,2.17-2.18,2.72-.24.17-.52.26-.77.26s-.46-.09-.65-.26c-.52-.46-.85-1.46-.85-2.5,0-.13,0-.24.02-.35.26-3.91,2.99-5.76,4.78-6.48.02-.52.04-1.2.08-2.17-.34.09-.71.17-1.09.17-.71,0-1.41-.28-1.9-1.39-.02-.02-.02-.04-.02-.07,0-.04.04-.07.06-.07.04,0,.06,0,.08.02.38.26.85.43,1.37.43.46,0,.97-.13,1.51-.48-.02-.91-.02-1.41-.48-1.98-.14-.2-.32-.43-.32-.72,0-.17.06-.33.2-.5.14-.15.32-.24.5-.24.14,0,.3.04.44.13.42.3.63,1.91,1.61,2.04.55.07.77.39.77.74,0,.2-.08.41-.22.59-.18.28-.83.65-1.63,1,0,.72-.08,1.54-.1,2.22,3.59-.93,7.69.83,7.63,5.02-.02,1.74-1.35,4.15-4.56,5.61ZM5.45,8.62c-2.1,1-3.63,3.19-3.63,5.39,0,.22.02.46.06.7.1.74.34,1,.63,1,.36,0,.77-.41,1.09-.83.83-1.15,1.39-2.19,1.67-3.19.04-.65.12-2.04.18-3.06Z"/>
    <path class="cls-1" d="M31.71,6.99c-.22,0-.52-.09-.97-.17-.14-.02-.28-.04-.42-.04-.4,0-.79.13-1.11.37-.99.72-1.57,1.83-1.57,3.19v.15c.06,1.54.24,2.8.4,4.17,1.01.24,2.54,1,3.67,2.24.28.3.4.61.4.85,0,.26-.12.46-.28.63-.1.09-.26.15-.42.15-.2,0-.44-.11-.67-.37-.75-.96-1.61-1.76-2.64-2.3v.15c0,2.24-1.35,3-2.89,3-.91,0-2.7-.37-2.7-2.04,0-1.48,1.76-2.59,3.63-2.59.22,0,.42,0,.63.02-.06-.61-.12-1.89-.16-2.59-.02-.22-.02-.43-.02-.63,0-1.02.14-1.89.69-2.76.93-1.46,2.08-2.06,2.42-2.33.12-.09.16-.17.16-.26,0-.11-.06-.22-.16-.3-.22-.2-.6-.35-1.13-.35-.38,0-.91.15-1.43.5-1.31.87-3.03,2.46-4.28,4.04-.59.7-2,2.54-3.03,4.48-.1.2-.28.28-.48.28-.14,0-.3-.07-.4-.2-.24-.28-.36-.63-.36-.89v-.04c.04-.63.46-.85.63-1,.65-.67,1.35-1.54,1.88-2.33.75-1.11,1.67-2.48,2.58-4.93-.44.07-1.19.24-1.9.24-.3,0-.6-.04-.85-.13-.73-.26-1.11-.91-1.53-1.89-.02-.02-.02-.04-.02-.07,0-.09.04-.15.12-.15.02,0,.06.02.08.04.48.5.79.83,1.23,1.02.16.07.38.09.69.09.67,0,1.59-.15,2.6-.43.1-.48.18-.89.18-1.26,0-.63-.24-1.09-1.03-1.33-.04-.02-.06-.04-.06-.09,0-.07.06-.17.14-.17.14-.02.28-.04.4-.04.77,0,1.49.43,2.02,1.3.04.07.06.13.06.17,0,.07-.04.13-.1.2-.12.11-.26.33-.42.78.28-.11.57-.22.87-.37.08-.04.18-.07.28-.07.2,0,.42.09.56.22s.24.33.24.52c0,.15-.06.3-.24.39-.24.13-1.07.46-2.26.76-.4,1-1.11,2.67-1.45,3.41,1.11-1.11,2.58-2.35,3.23-2.83,1.21-.87,1.92-1.09,2.8-1.09,1.07,0,2.1.43,2.78,1.35.14.22.22.43.22.65,0,.26-.1.48-.28.59-.1.04-.2.07-.32.07ZM26.82,15.66v-.28c-.34-.07-.67-.09-.99-.09-1.45,0-2.64.7-2.64,1.61,0,.78.77,1.2,1.72,1.2,1.59,0,1.92-1.33,1.92-2.43Z"/>
    <path class="cls-1" d="M51.91,17.09c0,.3-.3.61-.59.65-.16.04-.5.07-.95.07-.48,0-1.11-.02-1.74-.09-1.47-.13-3.69-.54-4.02-2.89-.02-.24-.04-.48-.04-.7,0-1.46.69-2.41,1.57-3.24.77-.72,1.94-1.24,2.68-1.74.59-.39.83-.91.83-1.46,0-.28-.06-.54-.16-.83-.24-.67-1.05-1.52-1.65-1.91-.26-.17-.54-.26-.85-.26-.26,0-.55.07-.83.22-1.69.83-3.77,2.93-4.78,4.28-.61,1.63-1.45,3.65-2.34,6.19-.16.43-.59,1.52-.93,2.37-.08.22-.2.41-.34.56-.1.13-.24.17-.38.17-.18,0-.38-.11-.46-.3-.14-.28-.2-.59-.2-.89v-.07c0-.17.02-.43.26-.76.34-.52.63-1.06.91-1.63,1.31-2.72,2.76-5.91,3.65-9.02-.77.26-2.68,1-3.09,1.15-.14.04-.26.07-.38.07-.24,0-.42-.09-.63-.22-.34-.28-.93-.85-1.05-1.13,0-.02-.02-.07-.02-.13,0-.09.02-.15.08-.15.02,0,.04,0,.06.02.38.24.93.35,1.43.35.18,0,.36-.02.52-.04,1.13-.2,2.46-.54,3.33-.89.14-.7.2-1.04.28-1.67.02-.07.02-.13.02-.2,0-.67-.4-1.26-1.01-1.39.04-.26.24-.46.48-.46h.02c1.11.07,1.74.96,1.84,1.11.04.09.12.2.12.37,0,.09-.02.15-.04.26-.12.3-.42,1.06-.54,1.48.12-.02.22-.04.32-.04.12,0,.24.02.32.13.08.09.1.17.1.24,0,.17-.12.35-.26.46-.12.13-.59.24-.83.3-.14.5-.48,1.52-.75,2.3,1.45-1.46,2.76-2.72,4.2-3.65.36-.22.69-.35,1.05-.35.34,0,.73.11,1.15.35,1.13.59,2.04,1.7,2.52,2.67.16.28.24.65.24,1.04,0,.83-.4,1.7-1.51,1.96-1.47.37-2.54.83-3.25,1.63-.61.7-.91,1.48-.91,2.43,0,.15,0,.3.02.48.14,1.35,1.27,2,3.37,2.15.26.02.57.02.83.02.59,0,1.11-.04,1.39-.07h.16c.26,0,.48.07.69.43.04.09.06.15.06.24Z"/>
    <path class="cls-1" d="M69.74,19.85c-.16,0-.3-.07-.46-.28-.99-1.41-1.98-2.89-3.47-4.02-1.17,1.41-3.11,2.33-4.88,2.33-.16,0-.32,0-.46-.02-.75-.07-1.03-.59-1.05-1.06v-.04c0-.5.42-1.09.77-1.48.65-.72,1.49-1.28,2.38-1.54.32-.09.65-.13.97-.13.69,0,1.35.2,1.94.48.2-.37.28-1.33.28-2.41v-.33c-.02-1.48-.06-3.13-.12-4.67-1.37.37-2.72.65-4.32,1.2-2.54.89-3.77,2.3-3.85,3.8-.06.83-.08,1.65-.08,2.48,0,.96.04,1.91.14,2.82.02.2.04.37.04.52,0,.22-.06.41-.24.56-.06.04-.16.09-.26.09-.14,0-.28-.07-.4-.22-.4-.56-.59-1.24-.59-1.93v-.13c.06-1.52.91-6.45.91-9.78,0-.43-.02-.85-.04-1.22-.08-.78-.48-1.61-1.05-2.11-.04-.02-.06-.07-.06-.11,0-.13.08-.26.2-.26h.02c.71.11,1.35.65,1.82,1.22.16.2.26.48.26.74,0,.11-.02.22-.06.33-.04.15-.08.24-.12.5-.18,1.24-.34,3.82-.4,4.65v.02s.02.07.04.07.04-.02.06-.07c.95-1.37,2.24-2.24,3.53-2.72,1.07-.39,3.03-.93,4.42-1.35-.02-.67-.08-1.67-.12-2.13-.08-1-.34-2.15-1.37-2.83-.02-.02-.04-.07-.04-.09,0-.04.02-.09.06-.11.32-.15.59-.22.81-.22.2,0,.34.04.48.11.3.17,1.09.83,1.39,1.24.12.15.18.35.18.56,0,.13-.02.26-.08.39-.22.48-.28.8-.3,1.54v.41c0,.28,0,.48.02.83.36-.13,1.03-.3,1.33-.5.26-.17.36-.35.36-.59v-.09c.32,0,.85.24,1.09.5.12.11.18.26.18.43,0,.26-.16.54-.42.59-.34.09-1.63.37-2.52.59.06,2.15.28,4.19.3,6.24,0,.67-.12,1.41-.46,1.98,1.01.63,2.78,2.13,3.71,3.61.08.13.18.43.18.72v.15c-.06.39-.22.7-.57.72-.02.02-.04.02-.06.02ZM60.9,17.09c.99,0,2.72-.52,4.06-2.13-.48-.3-1.11-.54-1.76-.54-.16,0-.3.02-.46.04-1.01.2-2.06,1.13-2.4,1.76-.08.13-.12.26-.12.39,0,.26.16.46.52.48h.16Z"/>
    <path class="cls-1" d="M88.42,9.41c-.69,0-4.44-3.96-6.75-6.92-.23-.3-.46-.46-.69-.46-.25,0-.48.18-.71.51-1.71,2.51-5.78,7.45-6.73,7.45-.33,0-.56-.3-.56-.62,0-.23.1-.44.31-.6,2.21-1.61,4.75-4.88,6.23-7.08.35-.53.83-.83,1.35-.83.46,0,.96.25,1.44.83,1.86,2.3,3.84,4.51,6.42,6.42.23.16.33.39.33.6,0,.37-.29.71-.63.71ZM75.93,12.19c-.33,0-.48-.28-.48-.57s.17-.6.48-.6c.65-.02,3.77-.02,6.11-.02h2.31c1.13.02,1.61.6,1.61,1.49,0,2.85-4.52,7.4-5.42,7.4-.35,0-.62-.32-.62-.64,0-.21.12-.41.37-.55,2.1-1.17,4.48-4.55,4.48-5.96,0-.64-.48-.64-1.33-.64-2.04,0-6.82.07-7.5.09h-.02ZM78.18,7.98c-.29,0-.44-.28-.44-.57,0-.28.15-.55.44-.55h5.8c.31,0,.44.28.44.55,0,.3-.13.57-.44.57h-5.8Z"/>
    <path class="cls-1" d="M93.67,19.07c-.56-1.31-1.61-2.23-2.36-2.85-.19-.16-.4-.3-.4-.39,0-.02.04-.05.12-.05.54,0,4.02.8,4.02,2.85,0,.6-.35,1.03-.71,1.03-.23,0-.48-.18-.65-.6Z"/>
    <path class="cls-1" d="M113.46,10.28c-.86,1.79-2.06,3.61-3,4.74-.13.16-.29.23-.44.23-.29,0-.52-.28-.52-.57,0-.16.06-.32.19-.46,1.17-1.17,2.77-3.56,3.77-5.91v-.76l-2.98.05c-.31,0-.46-.28-.46-.55s.15-.55.46-.55h2.96l-.04-3.24c-.38.09-1.94.48-2.46.48-.33,0-.5-.25-.5-.53,0-.25.15-.51.44-.53,1.98-.23,3.69-.74,5.27-1.52.06-.02.1-.05.15-.05.25,0,.48.28.48.55,0,.41-.44.71-2.34,1.29,0,.3-.04,1.82-.06,3.54h2.73c.31,0,.46.28.46.55s-.15.55-.46.55l-2.73-.02c0,.87-.02,1.72-.02,2.48,0,3.45.08,9.52.08,9.52,0,.34-.27.53-.52.53-.27,0-.52-.18-.52-.53l.06-9.29ZM116.61,12.49c-.54-.78-1.56-1.68-1.98-1.98-.12-.09-.15-.21-.15-.32,0-.25.19-.51.44-.51.4,0,1.92,1.36,2.36,1.91.12.14.15.3.15.46,0,.34-.23.64-.5.64-.12,0-.23-.07-.33-.21ZM116.73,18.98c-.37,0-.52-.3-.52-.6s.13-.6.42-.62c.46-.05.92-.09,1.36-.16.96-3.79,2.58-13.38,2.79-15.91.04-.37.29-.55.54-.55.29,0,.58.23.58.67,0,1.01-2.08,12.62-2.9,15.64,1.77-.28,3.52-.67,5.19-1.17-.52-1.24-1.15-2.41-1.71-3.29-.06-.09-.1-.21-.1-.3,0-.3.25-.55.52-.55.15,0,.31.07.42.25.98,1.38,2.84,5.31,2.84,6.39,0,.46-.31.74-.62.74-.21,0-.44-.16-.52-.55-.12-.55-.29-1.1-.48-1.68-2.84.92-7.03,1.7-7.82,1.7Z"/>
    <path class="cls-1" d="M135.07,17.99h-.05c-.11,0-.16-.08-.16-.16,0-.06.06-.16.13-.18,2.46-.81,6.52-3.07,6.65-7.41v-.12c0-2.22-1.53-5.37-5.37-5.49-2.92-.1-6.44,2.22-6.41,5.74.02,1.02.4,2.2.97,3.13.18.29.35.47.55.47.16,0,.38-.14.66-.45,1.5-1.63,3.21-4.52,3.62-7.83.02-.12.09-.18.18-.18.07,0,.16.06.16.2v.24c0,4.13-2.21,7.27-3.18,8.53-.46.57-.95,1.22-1.48,1.67-.13.12-.24.16-.35.16-.16,0-.31-.14-.4-.35-.33-.77-.58-1.34-.97-2.18-.46-.92-.75-1.99-.75-3.05v-.1c.09-4.7,4.73-6.63,7.38-6.63h.09c3.16.06,6.61,2.36,6.66,6.35.04,2.73-1.64,6.15-7.92,7.63Z"/>
    <path class="cls-1" d="M151.76,2.77c.26-.11.52-.15.79-.15,1.01,0,1.86.67,2.22,1.06.06.09.1.2.1.28,0,.13-.06.28-.16.37-.24.22-.32.54-.42,1.04-.12.52-.2.89-.28,1.28.87-.07,2.04-.15,2.52-.2.48-.04.63-.09,1.05-.43.06-.07.14-.11.24-.11.08,0,.16.02.26.09.48.24.93.52,1.29.93.06.04.08.13.08.2,0,.09-.02.15-.08.2-.3.3-.52.5-.59,1.06-.24,1.72-.5,3.48-.83,5-.52,2.35-1.53,2.72-2.6,2.98-.06.02-.12.02-.16.02-.18,0-.22-.11-.28-.26-.18-.39-.14-1.04-1.51-2.04-.02-.02-.04-.04-.04-.09s.04-.11.1-.11h.02c.93.35,1.57.48,2,.48.65,0,.85-.28.97-.59.42-1.13.99-4.06.97-6.08,0-.24-.16-.41-.38-.41h-.3c-.97,0-1.9.07-2.87.13-1.07,5.41-2.89,8.34-7.49,10.3-.04.02-.06.02-.08.02-.1,0-.16-.09-.16-.15s.02-.11.08-.15c4.68-2.85,5.51-6.32,6.3-9.89-1.23.11-2.38.26-3.57.54-.16.04-.3.09-.44.09s-.28-.04-.48-.2c-.46-.37-.87-.8-1.19-1.3-.02-.04-.04-.09-.04-.13,0-.11.08-.2.18-.2.02,0,.06,0,.08.02.65.39,1.21.61,1.94.61h.24c.89-.07,2.4-.13,3.41-.22.08-.61.22-1.65.22-2.48,0-.65-.12-.89-1.15-1.06l.06-.46Z"/>
    <path class="cls-1" d="M174.45,9.12c.52.43,1.21,1.13,1.51,1.72.18.37.28.7.28.96v.09c-.02.26-.14.63-.4.8-.1.07-.2.11-.32.11-.22,0-.44-.13-.63-.41-.32-.56-.81-1.48-1.25-1.96-.83,1.17-3.49,5.32-9.87,7.35-.04.02-.08.02-.1.02-.12,0-.18-.07-.18-.15,0-.07.04-.13.14-.17,3.71-1.65,7.04-4.39,9.14-8.04-.65-.67-2.1-1.78-3.15-2.33-.06-.04-.1-.11-.1-.15,0-.07.04-.13.14-.13h.06c1.17.26,2.38.8,3.61,1.52.28-.5,1.05-2.33,1.31-3.26.06-.2.1-.39.1-.59,0-.54-.3-1.09-1.37-1.39-.08-.02-.12-.11-.12-.2s.06-.22.18-.22c.22-.04.46-.07.73-.07.52,0,1.11.11,1.49.43.5.46.89.96,1.15,1.48.06.09.1.22.1.33,0,.15-.04.28-.18.39-.28.2-.54.43-.71.78-.59,1.22-1.07,2.24-1.57,3.09Z"/>
    <path class="cls-1" d="M195.32,8.84c-3.03,6.37-6.38,8.21-10.96,9.63h-.06c-.1,0-.16-.09-.16-.15,0-.04.02-.09.08-.11,6.07-2.63,8.52-6.85,9.63-10.37.04-.09.06-.17.06-.24,0-.15-.08-.22-.28-.22h-.16c-1.78.2-4.2.74-5.51,1.17-.61.22-.81.37-1.05.37-.14,0-.28-.04-.55-.15-.59-.28-1.09-.74-1.51-1.33-.02-.02-.02-.04-.02-.09,0-.11.08-.28.2-.28,0,0,.02,0,.04.02.59.33,1.17.48,1.72.48.1,0,.2,0,.3-.02,1.74-.17,4.86-.67,6.13-.93.5-.11.52-.09.93-.48.08-.09.14-.13.24-.13.06,0,.12.02.22.07.65.33,1.33.91,1.74,1.35.06.07.1.17.1.28s-.06.22-.18.28c-.46.24-.75.43-.95.85ZM195.02,2.93c0,.22-.22.41-.38.41-2.52.11-5.37.61-6.62.8-.08.02-.16.02-.22.02-.32,0-.5-.11-.65-.22-.34-.28-.65-.54-.79-.93-.02-.04-.02-.07-.02-.11,0-.11.06-.17.2-.28.2.26.83.43,1.25.43h.08c1.41-.09,4.14-.43,5.31-.98.18-.09.3-.13.42-.13.08,0,.14.02.22.04.57.2.85.43,1.07.67.08.09.12.17.12.26Z"/>
    <path class="cls-1" d="M214.32,7.05c0,.11-.06.2-.16.3-.69.7-.75.76-.85,1.24-.22,1.2-.44,2.54-.59,3.74.18.17.34.35.48.54.04.07.08.17.08.28,0,.2-.12.39-.44.39h-.1c-.4-.04-.87-.07-1.35-.07-1.65,0-3.55.2-4.48.33-.12.37-.2.65-.32.98-.08.2-.26.3-.44.3-.12,0-.26-.07-.34-.2-.38-.67-.46-1.11-.46-1.5,0-.3.06-.59.06-.91,0-1.39-.04-3.28-.14-4.39-.04-.48-.4-1.26-1.53-1.54-.04-.02-.06-.07-.06-.11,0-.13.1-.3.24-.35.12-.02.24-.02.38-.02.65,0,1.49.22,2.1.5,1.49-.2,2.89-.39,4.36-.63.42-.09.81-.2,1.25-.5.1-.07.16-.09.24-.09.06,0,.12.02.22.09.4.2,1.25.83,1.67,1.26.12.13.18.24.18.35ZM211.53,12.44c.22-2.43.28-3.48.34-5.22.02-.33-.14-.43-.36-.41-1.63.15-3.29.37-4.94.65.02,1.3.1,4.15.14,5.41,1.9-.17,3.19-.3,4.82-.43Z"/>
    <path class="cls-1" d="M235.99,9.4c0,.22-.12.43-.34.56-.22.15-.63.22-.97.22-1.94.07-9.2.37-12.35.78-.61.09-.73.11-1.09.3-.1.04-.18.09-.28.09-.08,0-.18-.04-.32-.15-.67-.5-1.17-1.37-1.33-2.24v-.04c0-.17.22-.35.34-.35.02,0,.06,0,.06.02.48.67.93.93,1.65.96h.36c2.02,0,7.35-.35,10.19-.63.85-.09,1.8-.22,2.58-.22.46,0,.89.04,1.17.2.22.11.32.3.32.5Z"/>
    <path class="cls-1" d="M243.43,8.68c-1.19,3.8-2.52,5.91-5.39,8.08-.06.04-.12.07-.18.07-.08,0-.14-.04-.14-.13,0-.04.02-.11.08-.15,1.41-1.46,3.47-3.85,4.22-8.69.02-.09.02-.17.02-.26,0-.41-.2-.61-.73-.83-.04,0-.06-.02-.06-.07,0-.13.28-.37.52-.52,1.07.11,1.82.98,2.06,1.39.04.07.08.15.08.24s-.02.17-.1.24c-.22.22-.28.3-.38.63ZM247.62,14.14c-.1.11-.2.15-.3.15-.12,0-.24-.07-.4-.15-.26-.17-.71-.61-.91-.87-.12-.15-.16-.28-.16-.41,0-.11.02-.24.06-.41.18-1.02.24-3.61.24-5.02v-.59c-.02-.8-.24-1.09-.89-1.33-.06-.02-.1-.04-.1-.11,0-.02.02-.04.06-.09.32-.33.59-.41.79-.41.12,0,.24.04.32.09.75.37,1.31.8,1.59,1.24.06.07.08.15.08.22,0,.09-.06.17-.14.26-.28.26-.38.37-.46.91-.14,1.04-.22,2.72-.22,3.72v.46c.02.33.08.43.24.43.06,0,.16-.02.28-.09,2.8-1.15,6.13-3.39,7.99-5.15.04-.02.08-.04.1-.04.08,0,.16.09.16.15,0,.04-.02.09-.04.11-2.38,2.83-4.84,4.5-6.86,5.95-.63.46-1.01.61-1.43.98Z"/>
    <path class="cls-1" d="M263.25,17.99h-.06c-.11,0-.16-.08-.16-.16,0-.06.05-.16.13-.18,2.46-.81,6.52-3.07,6.65-7.41v-.12c0-2.22-1.53-5.37-5.37-5.49-2.92-.1-6.44,2.22-6.41,5.74.02,1.02.4,2.2.97,3.13.18.29.35.47.55.47.16,0,.38-.14.66-.45,1.5-1.63,3.21-4.52,3.62-7.83.02-.12.09-.18.18-.18.07,0,.16.06.16.2v.24c0,4.13-2.21,7.27-3.18,8.53-.46.57-.95,1.22-1.48,1.67-.13.12-.24.16-.35.16-.16,0-.31-.14-.4-.35-.33-.77-.58-1.34-.97-2.18-.46-.92-.75-1.99-.75-3.05v-.1c.09-4.7,4.73-6.63,7.38-6.63h.09c3.16.06,6.61,2.36,6.66,6.35.04,2.73-1.64,6.15-7.92,7.63Z"/>
    <path class="cls-1" d="M281.47,12.88c-1.58-.02-3.13-.07-4.63-.14-1.27-.05-1.96-.99-2-2.12-.02-.67-.04-1.33-.04-2s.02-1.31.04-1.89c.04-1.03.71-2.09,1.96-2.14,1.46-.05,3.06-.07,4.67-.07l-.02-3.77c0-.37.27-.55.52-.55.27,0,.54.18.54.55l-.02,3.77c1.63,0,3.29.02,4.8.07,1.1.02,1.81.99,1.86,1.98.04.6.04,1.29.04,1.98s0,1.4-.04,2.05c-.04,1.08-.79,2.07-1.98,2.14-1.54.09-3.13.14-4.69.14l.02,6.74c0,.34-.27.53-.54.53-.25,0-.52-.18-.52-.53l.02-6.74ZM281.47,5.66c-1.58,0-3.09.02-4.27.07-.86.02-1.33.74-1.36,1.47-.02.39-.02.92-.02,1.47,0,2.21.08,2.87,1.4,2.94,1.23.07,2.71.12,4.25.12v-6.07ZM282.49,11.73c1.5,0,3-.05,4.3-.12.83-.05,1.33-.6,1.35-1.47.02-.48.02-1.1.02-1.72,0-1.82-.04-2.62-1.38-2.69-1.19-.05-2.73-.07-4.29-.07v6.07Z"/>
    <path class="cls-1" d="M299.19,17.99h-.06c-.11,0-.16-.08-.16-.16,0-.06.05-.16.13-.18,2.46-.81,6.52-3.07,6.65-7.41v-.12c0-2.22-1.53-5.37-5.37-5.49-2.92-.1-6.44,2.22-6.41,5.74.02,1.02.4,2.2.97,3.13.18.29.35.47.55.47.16,0,.38-.14.66-.45,1.5-1.63,3.21-4.52,3.62-7.83.02-.12.09-.18.18-.18.07,0,.16.06.16.2v.24c0,4.13-2.21,7.27-3.18,8.53-.46.57-.95,1.22-1.48,1.67-.13.12-.24.16-.35.16-.16,0-.31-.14-.4-.35-.33-.77-.58-1.34-.97-2.18-.46-.92-.75-1.99-.75-3.05v-.1c.09-4.7,4.73-6.63,7.38-6.63h.09c3.16.06,6.61,2.36,6.66,6.35.04,2.73-1.64,6.15-7.92,7.63Z"/>
    <path class="cls-1" d="M324.02,6.99c-.22,0-.52-.09-.97-.17-.14-.02-.28-.04-.42-.04-.4,0-.79.13-1.11.37-.99.72-1.57,1.83-1.57,3.19v.15c.06,1.54.24,2.8.4,4.17,1.01.24,2.54,1,3.67,2.24.28.3.4.61.4.85,0,.26-.12.46-.28.63-.1.09-.26.15-.42.15-.2,0-.44-.11-.67-.37-.75-.96-1.61-1.76-2.64-2.3v.15c0,2.24-1.35,3-2.89,3-.91,0-2.7-.37-2.7-2.04,0-1.48,1.76-2.59,3.63-2.59.22,0,.42,0,.63.02-.06-.61-.12-1.89-.16-2.59-.02-.22-.02-.43-.02-.63,0-1.02.14-1.89.69-2.76.93-1.46,2.08-2.06,2.42-2.33.12-.09.16-.17.16-.26,0-.11-.06-.22-.16-.3-.22-.2-.61-.35-1.13-.35-.38,0-.91.15-1.43.5-1.31.87-3.03,2.46-4.28,4.04-.59.7-2,2.54-3.03,4.48-.1.2-.28.28-.48.28-.14,0-.3-.07-.4-.2-.24-.28-.36-.63-.36-.89v-.04c.04-.63.46-.85.63-1,.65-.67,1.35-1.54,1.88-2.33.75-1.11,1.68-2.48,2.58-4.93-.44.07-1.19.24-1.9.24-.3,0-.61-.04-.85-.13-.73-.26-1.11-.91-1.53-1.89-.02-.02-.02-.04-.02-.07,0-.09.04-.15.12-.15.02,0,.06.02.08.04.48.5.79.83,1.23,1.02.16.07.38.09.69.09.67,0,1.59-.15,2.6-.43.1-.48.18-.89.18-1.26,0-.63-.24-1.09-1.03-1.33-.04-.02-.06-.04-.06-.09,0-.07.06-.17.14-.17.14-.02.28-.04.4-.04.77,0,1.49.43,2.02,1.3.04.07.06.13.06.17,0,.07-.04.13-.1.2-.12.11-.26.33-.42.78.28-.11.57-.22.87-.37.08-.04.18-.07.28-.07.2,0,.42.09.56.22.14.13.24.33.24.52,0,.15-.06.3-.24.39-.24.13-1.07.46-2.26.76-.4,1-1.11,2.67-1.45,3.41,1.11-1.11,2.58-2.35,3.23-2.83,1.21-.87,1.92-1.09,2.8-1.09,1.07,0,2.1.43,2.78,1.35.14.22.22.43.22.65,0,.26-.1.48-.28.59-.1.04-.2.07-.32.07ZM319.14,15.66v-.28c-.34-.07-.67-.09-.99-.09-1.45,0-2.64.7-2.64,1.61,0,.78.77,1.2,1.72,1.2,1.59,0,1.92-1.33,1.92-2.43Z"/>
    <path class="cls-1" d="M10.65,51.56c-.1.02-.2.02-.3.02-1.59,0-2.66-.89-2.66-2.56,0-.28.04-.59.1-.91.2-.96.6-3.19.71-3.67.06-.24.08-.46.08-.67,0-.78-.38-1.37-1.39-1.39h-.08c-.67,0-1.67.24-2.4,1.39-1.01,1.56-2.81,6.13-3.43,7.71-.14.37-.36.67-.61.67-.1,0-.22-.07-.34-.24-.18-.24-.32-.67-.32-1.06,0-.22.04-.43.14-.59.2-.26.59-.87.77-1.24,2.06-4.06,5.95-11.24,6.78-13.15.08-.17.12-.37.12-.54,0-.43-.22-.8-.67-.87-.08,0-.14-.09-.14-.17,0-.04.02-.09.06-.13.24-.15.5-.24.77-.24.34,0,.71.15.95.43.22.22.71.76.71,1.24,0,.15-.06.3-.2.43-.42.35-.79.76-1.07,1.26-.28.5-2.4,4.02-2.85,4.95.63-.39,1.41-.54,1.94-.54h.08c1.51.04,2.36.83,2.54,1.93.02.13.02.24.02.35,0,.8-.48,1.48-.99,4.13-.06.28-.08.54-.08.76,0,1.24.79,1.56,1.76,1.56h.22c1.19-.07,2.44-.39,4.4-1.43t.04-.02c.08,0,.12.07.12.15,0,.02,0,.07-.02.09-1.45,1.28-2.8,2.22-4.74,2.35Z"/>
    <path class="cls-1" d="M32.21,36.06c0,.26-.14.5-.5.5-.18,0-1.9-.2-3.21.35-1.45.61-4.02,2.96-4,7.08,0,1.65.44,4.17,4.92,5.65.26.09.44.07.65.13.32.13.54.5.54.83,0,.07,0,.11-.02.15-.08.43-.4.59-.75.59-.16,0-.34-.04-.5-.09-2.44-.74-5.83-2.52-5.87-6.91-.02-3.35,2.24-6.17,3.31-7.15.06-.04.08-.09.08-.11,0-.04-.02-.04-.06-.04-.02,0-.06,0-.1.02-1.92.72-3.73,1.65-5.55,2.87-.44.28-.59.61-1.09.61-.16,0-.36-.02-.61-.11-.77-.2-1.39-1.06-1.53-1.37,0-.02-.02-.07-.02-.13,0-.11.04-.24.18-.33.46.35.91.52,1.37.52.28,0,.56-.07.85-.17,1.78-.7,4.22-1.89,7.06-2.93.73-.28,1.11-.56,1.55-.91.2-.15.38-.22.59-.22.08,0,.14,0,.22.02.77.11,1.51.3,2.22.67.16.09.26.28.26.48ZM29.89,44.08c-.22,0-.44-.17-.59-.5-.36-.93-.71-1.76-1.55-2.87-.02-.02-.04-.04-.04-.09s.04-.09.1-.09c.02,0,.04,0,.08.02.83.33,1.67.85,2.18,1.56.32.46.44.83.44,1.13s-.12.54-.26.67c-.1.11-.24.15-.36.15ZM32.92,42.54c-.22,0-.46-.15-.71-.78-.18-.5-.83-1.76-1.51-2.61-.04-.04-.06-.09-.06-.13s.04-.09.1-.09c.04,0,.06,0,.1.02.93.33,1.63.83,2.2,1.52.38.43.52.89.52,1.24,0,.41-.18.7-.42.78-.08.02-.14.04-.22.04Z"/>
    <path class="cls-1" d="M48.22,48.12c0,2.02-.89,3.69-3.17,3.72-1.94,0-2.83-1.91-2.83-4.02,0-.59.08-1.22.22-1.8-.97-.54-1.74-.85-2.66-1.11-.69-.2-1.17-.59-1.17-1.22,0-.28.1-.61.32-1,.44-.76,1.45-2.33,1.88-3.26.14-.28.22-.5.22-.67,0-.13-.04-.26-.14-.39-.38-.46-1.03-.89-2.2-1.26-.06-.02-.1-.09-.1-.13,0-.07.06-.13.14-.15.36-.07.69-.11.99-.11.91,0,1.59.3,2.04.67.34.26.55.59.63.8.04.13.06.26.06.37,0,.35-.18.59-.44.7-.34.13-.52.3-.81.72-.5.72-1.01,1.61-1.33,2.28-.14.28-.22.56-.22.83,0,.3.12.59.44.74.69.37,1.86.54,2.68.91.38-1.3,1.59-4.11,1.98-5.5.16-.61.34-1.26.34-2.04s-.16-1.67-.65-2.83c-.02-.02-.02-.07-.02-.09,0-.13.1-.2.22-.2.06,0,.12.02.18.07.89.96,1.41,2.35,1.61,2.87.08.24.12.46.12.61,0,.2-.06.37-.16.52-.18.22-.36.57-.57.98-.71,1.5-1.86,4.06-2.42,5.95.3.24.44.5.44.78,0,.04,0,.09-.02.13-.04.26-.32.37-.56.37-.06,0-.12,0-.18-.02-.12.56-.18,1.04-.18,1.48s.06.83.16,1.2c.3,1.11,1.15,1.43,1.88,1.43h.08c1.69-.07,2.08-1.7,2.08-3.15,0-1.74-.61-3.48-1.69-5.02-.02-.04-.04-.07-.04-.11,0-.09.06-.15.14-.15.04,0,.08.02.12.04,1.55,1.54,2.5,3.93,2.58,5.76v.3Z"/>
    <path class="cls-1" d="M68.61,39.98c-.22,0-.52-.09-.97-.17-.14-.02-.28-.04-.42-.04-.4,0-.79.13-1.11.37-.99.72-1.57,1.83-1.57,3.19v.15c.06,1.54.24,2.8.4,4.17,1.01.24,2.54,1,3.67,2.24.28.3.4.61.4.85,0,.26-.12.46-.28.63-.1.09-.26.15-.42.15-.2,0-.44-.11-.67-.37-.75-.96-1.61-1.76-2.64-2.3v.15c0,2.24-1.35,3-2.89,3-.91,0-2.7-.37-2.7-2.04,0-1.48,1.76-2.59,3.63-2.59.22,0,.42,0,.63.02-.06-.61-.12-1.89-.16-2.59-.02-.22-.02-.43-.02-.63,0-1.02.14-1.89.69-2.76.93-1.46,2.08-2.06,2.42-2.33.12-.09.16-.17.16-.26,0-.11-.06-.22-.16-.3-.22-.2-.6-.35-1.13-.35-.38,0-.91.15-1.43.5-1.31.87-3.03,2.46-4.28,4.04-.59.7-2,2.54-3.03,4.48-.1.2-.28.28-.48.28-.14,0-.3-.07-.4-.2-.24-.28-.36-.63-.36-.89v-.04c.04-.63.46-.85.63-1,.65-.67,1.35-1.54,1.88-2.33.75-1.11,1.67-2.48,2.58-4.93-.44.07-1.19.24-1.9.24-.3,0-.6-.04-.85-.13-.73-.26-1.11-.91-1.53-1.89-.02-.02-.02-.04-.02-.07,0-.09.04-.15.12-.15.02,0,.06.02.08.04.48.5.79.83,1.23,1.02.16.07.38.09.69.09.67,0,1.59-.15,2.6-.43.1-.48.18-.89.18-1.26,0-.63-.24-1.09-1.03-1.33-.04-.02-.06-.04-.06-.09,0-.07.06-.17.14-.17.14-.02.28-.04.4-.04.77,0,1.49.43,2.02,1.3.04.07.06.13.06.17,0,.07-.04.13-.1.2-.12.11-.26.33-.42.78.28-.11.57-.22.87-.37.08-.04.18-.07.28-.07.2,0,.42.09.56.22s.24.33.24.52c0,.15-.06.3-.24.39-.24.13-1.07.46-2.26.76-.4,1-1.11,2.67-1.45,3.41,1.11-1.11,2.58-2.35,3.23-2.83,1.21-.87,1.92-1.09,2.8-1.09,1.07,0,2.1.43,2.78,1.35.14.22.22.43.22.65,0,.26-.1.48-.28.59-.1.04-.2.07-.32.07ZM63.72,48.65v-.28c-.34-.07-.67-.09-.99-.09-1.45,0-2.64.7-2.64,1.61,0,.78.77,1.2,1.72,1.2,1.59,0,1.92-1.33,1.92-2.43Z"/>
    <path class="cls-1" d="M88.85,43.67c0,.3-.04.56-.12.83-.12.33-.3.52-.56.63-.08.02-.18.04-.26.04-.3,0-.58-.22-.67-.59-.14-.87-.28-2-.79-2.98-.42-.83-1.15-1.37-1.96-1.37-.4,0-.83.13-1.23.43-1.84,1.33-2.74,3.85-3.01,6.22v.13c0,.37.2.56.38.72.18.15.28.37.28.59,0,.24-.1.46-.32.59-.28.17-.61.26-.99.26-.22,0-.48-.02-.77-.09-1.27-.28-4.42-1.89-4.42-5.32v-.09c.02-1.06.16-2.33.3-3.3.02-.09.02-.2.02-.3,0-.76-.42-1.54-1.33-1.54v-.07c0-.22.12-.35.24-.39.22-.07.44-.09.65-.09.79,0,1.51.39,2,1.02.12.17.18.39.18.59,0,.15-.04.33-.12.46-.12.22-.22.17-.42.65-.36.98-.54,1.96-.54,2.96,0,.09,0,.2.02.3.06,2.11,1.94,3.37,2.97,3.5.1.02.18.02.26.02.42,0,.52-.22.67-.65.52-1.56.95-4.74,3.41-6.65.73-.56,1.49-.83,2.22-.83,1.19,0,2.3.65,3.03,1.72.48.7.89,1.72.89,2.61Z"/>
    <path class="cls-1" d="M103.2,47.64c-.83,4.74-3.61,5.24-5,5.24-.88,0-1.79-.21-2.65-.53-.25-.09-.37-.35-.37-.6,0-.32.19-.67.52-.67.1,0,.19.02.29.07.73.35,1.52.55,2.27.55,2.61,0,3.5-2.23,3.86-4.07h-10.3c-.31,0-.46-.28-.46-.55s.15-.53.44-.53h10.49c.1-.99.15-2.09.15-2.16,0-.83-.44-1.08-.96-1.08-.75-.02-1.63-.02-2.54-.02s-1.79,0-2.56.02l-.33,1.17c-.1.3-.35.44-.58.44-.29,0-.54-.18-.54-.48,0-.09,0-.16.04-.25.83-2.39,1.31-4.81,1.69-7.17.06-.32.27-.46.5-.46.27,0,.56.21.56.55t-.25,1.4l5.96-.02c.31,0,.46.28.46.53,0,.28-.15.53-.46.53h-6.17c-.19.92-.38,1.86-.62,2.78,1.13-.02,2.42-.02,3.61-.02h1.44c1.19.02,1.79.74,1.79,1.82,0,.14-.08,1.59-.17,2.44h3.67c.29,0,.42.28.42.53,0,.28-.13.55-.42.55h-3.81ZM105.6,37.25c-.02-.99-.5-1.49-1.46-1.49-1.42-.02-3.15-.02-4.84-.02s-3.34,0-4.69.02c-1.06,0-1.38.6-1.4,1.45v1.79c0,.37-.27.55-.54.55-.52,0-.54-.32-.54-1.54,0-.34.02-.74.02-1.08.02-1.33.79-2.18,2.15-2.21,1.83-.02,3.46-.05,5.09-.05s3.27.02,5.09.05c1.29.02,2.15.85,2.17,2.16.02.28.02.67.02,1.03,0,1.2-.02,1.59-.58,1.59-.25,0-.5-.18-.5-.55v-1.7Z"/>
    <path class="cls-1" d="M118.4,49.09h-3.57l-4.57.02c-.29,0-.44-.28-.44-.53,0-.28.15-.53.44-.53l7.65.02,7.63-.02c.29,0,.44.25.44.53,0,.25-.15.53-.44.53l-7.13-.02ZM111,53.2c-.35,0-.54-.32-.54-.62,0-.28.15-.53.46-.6,1.56-.3,3.17-1.13,4.59-2.37.08-.07.15-.09.23-.09.27,0,.5.34.5.67,0,.16-.06.32-.19.44-1.98,1.68-4.63,2.58-5.05,2.58ZM118.42,36.3v1.63c.9,0,1.83.02,2.69.05,1.08.05,1.73.67,1.77,1.59.04.78.06,1.68.06,2.58s-.02,1.79-.06,2.62c-.04,1.03-.73,1.7-1.85,1.72-1,.02-2.09.02-3.17.02s-2.15,0-3.13-.02c-1.23-.02-1.85-.71-1.86-1.7-.02-.92-.02-1.77-.02-2.62s0-1.66.02-2.46c.02-.87.6-1.68,1.84-1.72.85-.02,1.75-.05,2.67-.05v-1.63l-6.13.02c-.31,0-.48-.28-.48-.53,0-.28.17-.53.48-.53l6.13.02v-1.61c0-.41.27-.6.54-.6.25,0,.52.18.52.6l-.02,1.61,6.15-.02c.31,0,.44.25.44.53,0,.25-.13.53-.44.53l-6.15-.02ZM121.92,40.49c0-.83-.04-1.61-1.17-1.63-.86-.02-1.86-.05-2.88-.05s-2,.02-2.9.05c-.71.02-1.11.46-1.13,1.06,0,.18-.02.39-.02.57h8.11ZM121.94,41.29h-8.13v1.68h8.13v-1.68ZM113.81,43.8c0,.23.02.48.02.71.04,1.13.58,1.15,3.81,1.15,1.06,0,2.13-.02,3.13-.07.81-.02,1.12-.46,1.13-1.08,0-.23.02-.46.02-.71h-8.11ZM119.67,50.47c-.15-.12-.21-.28-.21-.44,0-.3.23-.6.5-.6.08,0,.17.05.27.12,1.42,1.22,3.06,2,4.57,2.28.31.05.44.32.44.57,0,.34-.21.69-.58.69-.52,0-2.92-.83-5-2.62Z"/>
    <path class="cls-1" d="M143.68,40c0,.2-.1.33-.2.35-2.91,1.02-5.59,3.24-6.36,3.89-1.03,1.26-.95,3.15-1.05,4.11-.02.3-.26.63-.63.65-.28,0-.54-.22-.54-.52,0-.04.02-.09.02-.11.12-.61.44-2.24.54-3.09-1.25.98-2.46,2-2.46,3.48,0,.07.02.13.02.22.12,1.59,2.38,1.8,3.25,1.8,1.35,0,2.62-.13,3.93-.52.14-.04.24-.13.42-.13.06,0,.16.02.24.07.57.24.69.59.69.8,0,.11-.02.2-.04.26-.16.28-.4.41-.83.5-1.27.24-2.52.39-3.77.39-.2,0-.42,0-.63-.02-1.57-.07-3.96-.54-4.06-3.09,0-.04-.02-.09-.02-.13,0-1.93,1.92-3.52,3.33-4.56.04-.39.04-.76.04-1.06,0-.48-.02-.87-.12-1.13-.14-.39-.44-.61-.79-.61-.28,0-.59.13-.87.41-.44.46-.99,1.13-1.33,1.59-.14.2-.34.28-.54.28-.1,0-.2-.02-.28-.07-.18-.07-.36-.22-.38-.48,0-.2.1-.28.22-.43.26-.28.38-.39.89-1.06.85-1.13,1.86-2.59,2.48-4.45-1.47.02-2.64-1.09-2.99-2.54,0-.02-.02-.04-.02-.07,0-.09.06-.13.14-.13.04,0,.08.02.12.09.81,1.24,1.9,1.39,2.64,1.39.18,0,.32,0,.46-.02.08-.33.12-.54.14-.74v-.15c0-.43-.24-.93-1.31-1.26-.06,0-.08-.04-.08-.09,0-.11.08-.22.16-.24.18-.07.38-.09.56-.09.75,0,1.49.39,1.86.93.08.13.1.24.1.33,0,.13-.04.24-.08.35-.1.17-.22.39-.32.74.52-.11.97-.35,1.25-.5.02-.02.04-.02.06-.02.06,0,.12.07.12.15v.09c-.34.8-1.27,1.48-1.96,1.65-.46,1.35-1.27,2.98-1.63,3.72-.02.04-.04.09-.04.11,0,.04.02.07.06.07.02,0,.04,0,.06-.02.34-.15.65-.22.91-.22.63,0,1.07.39,1.21.98.12.43.16,1,.16,1.67v.17c1.51-1.04,3.67-2.69,5.02-4.17.18-.22.44-.3.71-.3h.2c1.03.2,1.29.54,1.29.8Z"/>
    <path class="cls-1" d="M146.98,53.11c-.33,0-.52-.3-.52-.62,0-.25.15-.51.46-.55,2.71-.44,4.63-2.14,5.54-4.6.1-.3.27-.41.44-.41.27,0,.54.3.54.64,0,.09,0,.16-.04.25-1.73,4.71-6.34,5.29-6.42,5.29ZM154.78,46.37c-1.08,0-2.13-.02-3.04-.07-1.4-.07-2.08-.97-2.11-2.21-.02-1.03-.04-2.55-.04-4.05s.02-2.99.04-3.89c.02-1.03.63-2.14,1.96-2.18.81-.02,1.75-.05,2.73-.05,1.19,0,2.42.02,3.52.05,1.13.02,1.81.97,1.85,2,.04,1.08.04,2.58.04,4.05s0,2.97-.04,4.05c-.04,1.29-.81,2.18-1.96,2.23-.38.02-.77.05-1.17.05-.02,1.01-.04,2.37-.04,3.22,0,1.31.04,2.05,2.31,2.05,1.83,0,2.88-.37,2.88-2.87,0-.41.25-.62.5-.62.29,0,.6.25.6.64,0,3.93-2.36,3.96-4.06,3.96-1.48,0-3.21-.14-3.25-2.48,0-.67,0-2.62.02-3.86h-.73ZM158.74,38.74h-8.17c0,.87.02,1.82.02,2.69h8.15v-2.69ZM158.72,37.77c0-1.91,0-2.71-1.35-2.76-.69-.02-1.69-.05-2.71-.05s-2.02.02-2.77.05c-.85.02-1.25.6-1.29,1.4-.02.37-.02.83-.02,1.36h8.13ZM150.59,42.4c0,2.23,0,2.83,1.33,2.9.9.05,1.88.07,2.88.07.86,0,1.75-.02,2.59-.07,1.33-.07,1.33-.8,1.33-2.9h-8.13Z"/>
    <path class="cls-1" d="M178.72,46.26c0,1.93-1.47,4.78-5.79,4.85-1.33.02-3.03-.48-3.03-1.8v-.04c.02-.61.52-1.11.93-1.3.36-.2.79-.28,1.17-.28.12,0,.22,0,.32.02,1.07.15,2.14.78,2.62,2.09,1.31-.61,2.26-1.98,2.3-3.52v-.13c0-1.98-1.21-3.26-3.17-3.22-1.47.02-3.33.48-5.67,4.85-.1.17-.22.26-.36.26s-.28-.09-.36-.24c-.24-.46-.38-.8-.38-1.11,0-.26.1-.5.34-.76.48-.48.93-1,1.35-1.56,1.84-2.43,4.54-5.87,5.19-7.21.08-.15.12-.3.12-.43,0-.22-.1-.37-.36-.37-.06,0-.12,0-.18.02-.38.09-1.72.93-2.7,1.78-.16.13-.18.28-.34.41-.06.04-.14.09-.24.09-.08,0-.18-.02-.3-.11-.32-.17-1.17-.93-1.17-1.78,0-.2.04-.39.12-.56.04-.09.12-.15.2-.15.04,0,.08.02.1.09.26.76.63.96.95.96.14,0,.26-.04.36-.09,1.03-.5,2.02-1.04,3.01-1.67.2-.11.38-.24.57-.37.1-.09.22-.13.32-.13.14,0,.28.07.42.17.55.43,1.11,1.02,1.51,1.61.06.09.08.2.08.28,0,.15-.08.26-.2.33-.5.2-.87.37-1.29.87-1.21,1.43-2.97,3.56-3.81,4.78-.02.04-.04.07-.04.09,0,.04.02.07.06.07.02,0,.04,0,.06-.02.97-.54,2-.83,3.05-.83,1.84.02,4.16,1.2,4.24,3.98.02.04.02.09.02.13ZM172.69,50.32c.36,0,.71-.04.93-.09-.12-.41-.55-1.3-1.29-1.61-.18-.09-.4-.13-.61-.13-.44,0-.87.2-1.05.61-.02.09-.04.15-.04.22,0,.22.12.41.3.54.44.35,1.15.46,1.76.46Z"/>
    <path class="cls-1" d="M183.07,50.15c0-1.47,1.02-2.67,2.25-2.67s2.23,1.2,2.23,2.67-1,2.69-2.23,2.69-2.25-1.22-2.25-2.69ZM186.9,50.15c0-1.03-.71-1.89-1.58-1.89s-1.59.85-1.59,1.89.73,1.91,1.59,1.91,1.58-.87,1.58-1.91Z"/>
  </g>
  <g>
    <path class="cls-1" d="M5.47,73.96l4.09-7.98h1.49l-4.92,9.34v7.22h-1.28v-7.11l-4.84-9.45h1.47l4,7.98Z"/>
    <path class="cls-1" d="M14.83,82.86c-.63-.02-1.22-.15-1.76-.41-.55-.26-1.02-.65-1.43-1.17-.41-.52-.73-1.17-.97-1.95-.24-.78-.36-1.69-.36-2.74,0-.87.09-1.69.28-2.45.19-.76.47-1.42.85-1.99.38-.57.85-1.02,1.41-1.35.57-.33,1.22-.49,1.98-.49s1.43.16,2,.49c.57.33,1.04.77,1.41,1.33.38.56.66,1.22.84,1.99.18.77.27,1.59.27,2.46,0,.95-.11,1.81-.32,2.58-.21.77-.52,1.43-.91,1.98-.4.55-.87.98-1.43,1.28-.56.3-1.18.45-1.86.45ZM18.15,76.58c0-.7-.06-1.36-.19-1.98-.13-.61-.32-1.15-.58-1.6-.26-.45-.6-.81-1.02-1.07-.41-.26-.92-.39-1.53-.39s-1.1.14-1.52.43c-.42.28-.76.66-1.03,1.13-.26.47-.46,1-.58,1.61-.13.61-.19,1.23-.19,1.87,0,.74.07,1.41.22,2.04.14.62.35,1.15.63,1.6.28.44.62.79,1.04,1.03.41.25.89.37,1.43.37.59,0,1.1-.14,1.52-.43.42-.28.76-.66,1.03-1.14.26-.48.46-1.01.58-1.61.13-.6.19-1.22.19-1.86Z"/>
    <path class="cls-1" d="M27.86,70.62h1.13v11.91h-1.13v-1.66c-.15.21-.32.44-.51.67-.19.23-.41.44-.65.63-.25.19-.53.35-.86.48s-.7.2-1.13.2c-.65,0-1.2-.11-1.64-.33-.44-.22-.79-.53-1.06-.93-.27-.4-.47-.86-.58-1.39-.12-.53-.18-1.11-.18-1.74v-7.84h1.13v7.82c0,1.03.19,1.81.58,2.36.39.54,1.03.82,1.92.82.46,0,.88-.11,1.25-.33.37-.22.68-.53.93-.93.25-.4.45-.87.58-1.43.14-.55.21-1.16.21-1.82v-6.48Z"/>
    <path class="cls-1" d="M41.86,75.59c.21-.03.47-.08.76-.14.3-.06.54-.15.73-.25.19-.11.3-.29.35-.54.04-.25.07-.49.07-.7,0-.7-.19-1.28-.56-1.74-.37-.45-1-.68-1.88-.68-.39,0-.75.04-1.07.13-.33.08-.61.23-.86.44s-.45.48-.6.83c-.16.34-.26.78-.31,1.3h-1.15c.04-.7.17-1.31.4-1.81.23-.5.52-.9.88-1.22.36-.31.77-.54,1.24-.69.47-.15.97-.22,1.5-.22.49,0,.95.07,1.39.2.43.13.81.34,1.13.62.32.28.57.66.75,1.14.18.48.27,1.06.27,1.75v6.48c0,.54.08.88.24,1.02.16.15.47.11.95-.1v1.08c-.09.03-.22.08-.39.14-.17.06-.34.09-.5.09-.18,0-.35-.02-.51-.07-.19-.03-.34-.1-.45-.22-.11-.11-.2-.25-.27-.41-.07-.16-.12-.34-.14-.53-.03-.19-.04-.39-.04-.61-.48.64-1.02,1.13-1.64,1.47-.62.34-1.28.51-2,.51-.43,0-.84-.07-1.23-.21-.4-.14-.74-.35-1.05-.64-.3-.29-.54-.65-.72-1.07-.18-.42-.26-.92-.26-1.51,0-2.02,1.14-3.22,3.41-3.59l1.56-.25ZM43.77,76.28c-.48.25-.96.41-1.45.48-.49.08-.98.14-1.47.18-.87.08-1.54.31-2.03.71-.48.4-.73,1-.73,1.82,0,.37.06.69.18.95.12.27.28.49.47.67.19.18.42.31.68.39.26.08.52.13.78.13.45,0,.89-.07,1.32-.21.43-.14.81-.35,1.14-.63.33-.28.6-.64.8-1.08s.3-.95.3-1.55v-1.86Z"/>
    <path class="cls-1" d="M48.81,82.54h-1.13v-11.91h1.13v2.23h.04c.31-.95.72-1.61,1.22-1.99.5-.38,1.15-.56,1.97-.56v1.49c-.64-.02-1.17.11-1.58.37-.41.26-.74.61-.99,1.06-.25.44-.41.97-.51,1.58-.09.61-.14,1.24-.14,1.9v5.84Z"/>
    <path class="cls-1" d="M53.99,76.9c0,.64.07,1.25.21,1.83s.34,1.07.61,1.49c.27.42.61.76,1.03,1.01s.89.38,1.43.38c.74,0,1.38-.24,1.9-.71.53-.48.88-1.15,1.06-2.02h1.26c-.14.57-.32,1.09-.55,1.58-.23.48-.51.9-.85,1.26-.34.36-.74.64-1.21.84-.47.2-1.01.3-1.62.3-.78,0-1.45-.16-2.02-.48-.57-.32-1.03-.76-1.4-1.32-.36-.56-.63-1.22-.81-1.98-.18-.76-.26-1.58-.26-2.45s.1-1.69.31-2.46c.21-.77.5-1.44.89-2.01.38-.57.85-1.03,1.4-1.36.55-.33,1.18-.49,1.88-.49,1.34,0,2.4.56,3.17,1.69.77,1.13,1.14,2.76,1.13,4.91h-7.58ZM60.36,75.75c0-.58-.07-1.13-.2-1.64-.13-.51-.33-.96-.58-1.33-.26-.38-.58-.67-.97-.9-.39-.22-.84-.33-1.34-.33s-.95.12-1.33.35-.71.54-.98.92c-.27.38-.49.83-.65,1.33-.16.51-.27,1.04-.32,1.61h6.37Z"/>
    <path class="cls-1" d="M70.56,82.54h-1.13v-11.91h1.13v1.66c.45-.58.92-1.06,1.4-1.43s1.06-.55,1.74-.55c.6,0,1.16.13,1.68.38.52.25.95.69,1.3,1.32.24.43.38.87.42,1.32.04.45.07.92.07,1.41v7.8h-1.13v-7.77c0-1.07-.2-1.88-.58-2.41-.39-.54-1.04-.8-1.94-.8-.35,0-.67.07-.96.2-.29.13-.55.3-.78.52-.23.21-.43.46-.59.74s-.29.57-.38.87c-.11.38-.18.75-.21,1.1-.03.35-.04.74-.04,1.15v6.42Z"/>
    <path class="cls-1" d="M83.59,82.86c-.63-.02-1.22-.15-1.76-.41-.55-.26-1.02-.65-1.43-1.17-.41-.52-.73-1.17-.97-1.95-.24-.78-.36-1.69-.36-2.74,0-.87.09-1.69.28-2.45.19-.76.47-1.42.85-1.99.38-.57.85-1.02,1.41-1.35.57-.33,1.23-.49,1.98-.49s1.43.16,2,.49c.57.33,1.04.77,1.41,1.33.38.56.66,1.22.84,1.99.18.77.27,1.59.27,2.46,0,.95-.11,1.81-.32,2.58-.21.77-.52,1.43-.91,1.98-.4.55-.87.98-1.43,1.28-.56.3-1.18.45-1.86.45ZM86.91,76.58c0-.7-.06-1.36-.19-1.98-.13-.61-.32-1.15-.58-1.6-.26-.45-.6-.81-1.02-1.07-.41-.26-.92-.39-1.53-.39s-1.1.14-1.52.43c-.42.28-.76.66-1.03,1.13-.26.47-.46,1-.58,1.61-.13.61-.19,1.23-.19,1.87,0,.74.07,1.41.22,2.04.14.62.36,1.15.63,1.6.28.44.62.79,1.04,1.03.41.25.89.37,1.43.37.59,0,1.1-.14,1.52-.43.42-.28.76-.66,1.03-1.14.26-.48.46-1.01.58-1.61.13-.6.19-1.22.19-1.86Z"/>
    <path class="cls-1" d="M98.11,80.7l2.56-10.07h1.15l-3.17,11.91h-1.21l-2.13-10h-.04l-2.17,10h-1.36l-2.98-11.91h1.13l2.53,10.16,2.26-10.16h1.26l2.15,10.07Z"/>
    <path class="cls-1" d="M109.29,82.54v-16.56h1.13v16.56h-1.13Z"/>
    <path class="cls-1" d="M116.96,82.86c-.63-.02-1.22-.15-1.76-.41-.55-.26-1.02-.65-1.43-1.17-.41-.52-.73-1.17-.97-1.95-.24-.78-.36-1.69-.36-2.74,0-.87.09-1.69.28-2.45.19-.76.47-1.42.85-1.99.38-.57.85-1.02,1.41-1.35.57-.33,1.23-.49,1.98-.49s1.43.16,2,.49c.57.33,1.04.77,1.41,1.33.38.56.66,1.22.84,1.99.18.77.27,1.59.27,2.46,0,.95-.11,1.81-.32,2.58-.21.77-.52,1.43-.91,1.98-.4.55-.87.98-1.43,1.28-.56.3-1.18.45-1.86.45ZM120.28,76.58c0-.7-.06-1.36-.19-1.98-.13-.61-.32-1.15-.58-1.6-.26-.45-.6-.81-1.02-1.07-.41-.26-.92-.39-1.53-.39s-1.1.14-1.52.43c-.42.28-.76.66-1.03,1.13-.26.47-.46,1-.58,1.61-.13.61-.19,1.23-.19,1.87,0,.74.07,1.41.22,2.04s.36,1.15.63,1.6c.28.44.62.79,1.04,1.03.41.25.89.37,1.43.37.59,0,1.1-.14,1.52-.43.42-.28.76-.66,1.03-1.14.26-.48.46-1.01.58-1.61s.19-1.22.19-1.86Z"/>
    <path class="cls-1" d="M127.41,82.86c-.63-.02-1.22-.15-1.76-.41-.55-.26-1.02-.65-1.43-1.17-.41-.52-.73-1.17-.97-1.95-.24-.78-.36-1.69-.36-2.74,0-.87.09-1.69.28-2.45.19-.76.47-1.42.85-1.99.38-.57.85-1.02,1.41-1.35.57-.33,1.23-.49,1.98-.49s1.43.16,2,.49c.57.33,1.04.77,1.41,1.33.38.56.66,1.22.84,1.99.18.77.27,1.59.27,2.46,0,.95-.11,1.81-.32,2.58-.21.77-.52,1.43-.91,1.98-.4.55-.87.98-1.43,1.28-.56.3-1.18.45-1.86.45ZM130.73,76.58c0-.7-.06-1.36-.19-1.98-.13-.61-.32-1.15-.58-1.6-.26-.45-.6-.81-1.02-1.07-.41-.26-.92-.39-1.53-.39s-1.1.14-1.52.43c-.42.28-.76.66-1.03,1.13-.26.47-.46,1-.58,1.61-.13.61-.19,1.23-.19,1.87,0,.74.07,1.41.22,2.04.14.62.35,1.15.63,1.6.28.44.62.79,1.04,1.03.41.25.89.37,1.43.37.59,0,1.1-.14,1.52-.43.42-.28.76-.66,1.03-1.14.26-.48.46-1.01.58-1.61.13-.6.19-1.22.19-1.86Z"/>
    <path class="cls-1" d="M133.81,82.54v-16.56h1.13v10.3l4.79-5.66h1.55l-3.66,4.3,4.09,7.61h-1.26l-3.66-6.65-1.85,2.14v4.51h-1.13Z"/>
    <path class="cls-1" d="M143.22,68.03v-2.05h1.24v2.05h-1.24ZM143.28,82.54v-11.91h1.13v11.91h-1.13Z"/>
    <path class="cls-1" d="M148.07,82.54h-1.13v-11.91h1.13v1.66c.45-.58.92-1.06,1.4-1.43.48-.37,1.06-.55,1.74-.55.6,0,1.16.13,1.68.38s.95.69,1.3,1.32c.24.43.38.87.42,1.32.04.45.07.92.07,1.41v7.8h-1.13v-7.77c0-1.07-.2-1.88-.58-2.41-.39-.54-1.04-.8-1.94-.8-.35,0-.67.07-.96.2-.29.13-.55.3-.78.52-.23.21-.43.46-.59.74s-.29.57-.38.87c-.11.38-.18.75-.21,1.1-.03.35-.04.74-.04,1.15v6.42Z"/>
    <path class="cls-1" d="M164.58,70.62h1.13v10.76c0,.8-.07,1.56-.2,2.29-.13.73-.37,1.37-.71,1.92-.34.55-.8.99-1.39,1.32-.59.33-1.35.49-2.28.49-.72,0-1.33-.11-1.85-.33-.52-.22-.94-.5-1.26-.84-.33-.34-.57-.71-.74-1.12-.17-.41-.26-.79-.27-1.14h1.21c.09.44.23.81.41,1.09.19.28.41.51.67.67.26.16.54.27.86.33.31.06.64.09.98.09.77,0,1.38-.16,1.85-.48.46-.32.82-.74,1.06-1.26.24-.52.39-1.11.46-1.77s.1-1.33.08-2.02c-.36.74-.86,1.29-1.5,1.67-.63.38-1.3.56-1.99.56-.74,0-1.39-.17-1.93-.52-.55-.34-1-.8-1.36-1.38s-.63-1.25-.8-2.01c-.18-.77-.26-1.56-.26-2.39,0-.87.08-1.69.25-2.46.16-.77.42-1.43.78-1.99.36-.56.81-1,1.37-1.32s1.23-.48,2.02-.48c.31,0,.63.05.96.16.33.11.64.26.95.46.31.2.59.45.85.76.26.31.47.65.63,1.03h.04v-2.09ZM164.58,76.63c0-.72-.07-1.39-.22-2.01-.14-.62-.36-1.16-.63-1.61-.28-.45-.62-.81-1.04-1.07-.41-.26-.89-.39-1.41-.39-.48,0-.92.1-1.32.31-.4.21-.75.51-1.06.91-.3.4-.54.89-.71,1.46-.17.57-.25,1.24-.25,1.99-.03.75.02,1.45.15,2.1.13.65.33,1.22.6,1.71.28.49.63.88,1.06,1.16.43.28.94.43,1.53.43.51,0,.98-.13,1.39-.4.41-.27.75-.63,1.04-1.08.28-.45.5-.98.65-1.59.15-.61.23-1.25.23-1.92Z"/>
    <path class="cls-1" d="M178.7,75.59c.21-.03.47-.08.76-.14.3-.06.54-.15.73-.25.19-.11.3-.29.35-.54.04-.25.07-.49.07-.7,0-.7-.19-1.28-.56-1.74-.37-.45-1-.68-1.88-.68-.39,0-.75.04-1.07.13-.33.08-.61.23-.86.44s-.45.48-.6.83c-.16.34-.26.78-.31,1.3h-1.15c.04-.7.17-1.31.4-1.81.23-.5.52-.9.88-1.22.36-.31.77-.54,1.24-.69.47-.15.97-.22,1.5-.22.49,0,.95.07,1.39.2.43.13.81.34,1.13.62.32.28.57.66.75,1.14.18.48.27,1.06.27,1.75v6.48c0,.54.08.88.24,1.02.16.15.47.11.95-.1v1.08c-.09.03-.22.08-.39.14-.17.06-.34.09-.5.09-.18,0-.35-.02-.51-.07-.19-.03-.34-.1-.45-.22-.11-.11-.2-.25-.27-.41s-.12-.34-.14-.53c-.03-.19-.04-.39-.04-.61-.48.64-1.02,1.13-1.64,1.47-.62.34-1.28.51-2,.51-.43,0-.84-.07-1.23-.21-.4-.14-.74-.35-1.05-.64-.3-.29-.54-.65-.72-1.07-.18-.42-.26-.92-.26-1.51,0-2.02,1.14-3.22,3.41-3.59l1.56-.25ZM180.6,76.28c-.48.25-.96.41-1.45.48-.49.08-.98.14-1.47.18-.87.08-1.54.31-2.03.71-.48.4-.73,1-.73,1.82,0,.37.06.69.18.95.12.27.28.49.47.67.19.18.42.31.68.39.26.08.52.13.78.13.45,0,.89-.07,1.32-.21.43-.14.81-.35,1.14-.63.33-.28.6-.64.8-1.08.2-.44.3-.95.3-1.55v-1.86Z"/>
    <path class="cls-1" d="M187.7,82.58c-.14.03-.32.08-.55.16-.23.08-.48.12-.75.12-.57,0-1-.17-1.29-.52-.3-.34-.44-.96-.44-1.85v-8.72h-1.38v-1.15h1.38v-3.31h1.13v3.31h1.83v1.15h-1.83v8.16c0,.29,0,.54.02.76.01.21.05.39.11.53.06.14.16.24.29.3.13.06.32.09.56.09.15,0,.3-.02.46-.05.16-.03.31-.07.46-.12v1.13Z"/>
    <path class="cls-1" d="M199.65,75.59c.21-.03.47-.08.76-.14.3-.06.54-.15.73-.25.19-.11.3-.29.35-.54.04-.25.07-.49.07-.7,0-.7-.19-1.28-.56-1.74-.37-.45-1-.68-1.88-.68-.39,0-.75.04-1.07.13-.33.08-.61.23-.86.44s-.45.48-.6.83c-.16.34-.26.78-.31,1.3h-1.15c.04-.7.17-1.31.4-1.81.23-.5.52-.9.88-1.22.36-.31.77-.54,1.24-.69.47-.15.97-.22,1.5-.22.49,0,.95.07,1.39.2.43.13.81.34,1.13.62.32.28.57.66.75,1.14.18.48.27,1.06.27,1.75v6.48c0,.54.08.88.24,1.02.16.15.47.11.95-.1v1.08c-.09.03-.22.08-.39.14-.17.06-.34.09-.5.09-.18,0-.35-.02-.51-.07-.19-.03-.34-.1-.45-.22-.11-.11-.2-.25-.27-.41s-.12-.34-.14-.53c-.03-.19-.04-.39-.04-.61-.48.64-1.02,1.13-1.64,1.47-.62.34-1.28.51-2,.51-.43,0-.84-.07-1.23-.21-.4-.14-.74-.35-1.05-.64-.3-.29-.54-.65-.72-1.07-.18-.42-.26-.92-.26-1.51,0-2.02,1.14-3.22,3.41-3.59l1.56-.25ZM201.55,76.28c-.48.25-.96.41-1.45.48-.49.08-.98.14-1.47.18-.87.08-1.54.31-2.03.71-.48.4-.73,1-.73,1.82,0,.37.06.69.18.95.12.27.28.49.47.67.19.18.42.31.68.39.26.08.52.13.78.13.45,0,.89-.07,1.32-.21.43-.14.81-.35,1.14-.63.33-.28.6-.64.8-1.08.2-.44.3-.95.3-1.55v-1.86Z"/>
    <path class="cls-1" d="M206.57,82.54h-1.13v-11.91h1.13v1.66c.45-.58.92-1.06,1.4-1.43.48-.37,1.06-.55,1.74-.55.6,0,1.16.13,1.68.38.52.25.95.69,1.3,1.32.24.43.38.87.42,1.32.04.45.07.92.07,1.41v7.8h-1.13v-7.77c0-1.07-.2-1.88-.58-2.41-.39-.54-1.04-.8-1.94-.8-.35,0-.67.07-.96.2-.29.13-.55.3-.78.52-.23.21-.43.46-.59.74-.16.28-.29.57-.38.87-.11.38-.18.75-.21,1.1-.03.35-.04.74-.04,1.15v6.42Z"/>
    <path class="cls-1" d="M225.46,82.86c-.63-.02-1.22-.15-1.76-.41-.55-.26-1.02-.65-1.43-1.17-.41-.52-.73-1.17-.97-1.95-.24-.78-.36-1.69-.36-2.74,0-.87.09-1.69.28-2.45.19-.76.47-1.42.85-1.99.38-.57.85-1.02,1.41-1.35.57-.33,1.23-.49,1.98-.49s1.43.16,2,.49c.57.33,1.04.77,1.41,1.33.38.56.66,1.22.84,1.99.18.77.27,1.59.27,2.46,0,.95-.11,1.81-.32,2.58-.21.77-.52,1.43-.91,1.98-.4.55-.87.98-1.43,1.28-.56.3-1.18.45-1.86.45ZM228.77,76.58c0-.7-.06-1.36-.19-1.98-.13-.61-.32-1.15-.58-1.6-.26-.45-.6-.81-1.02-1.07-.41-.26-.92-.39-1.53-.39s-1.1.14-1.52.43c-.42.28-.76.66-1.03,1.13-.26.47-.46,1-.58,1.61-.13.61-.19,1.23-.19,1.87,0,.74.07,1.41.22,2.04.14.62.35,1.15.63,1.6.28.44.62.79,1.04,1.03.41.25.89.37,1.43.37.59,0,1.1-.14,1.52-.43.42-.28.76-.66,1.03-1.14.26-.48.46-1.01.58-1.61.13-.6.19-1.22.19-1.86Z"/>
    <path class="cls-1" d="M233.05,82.54h-1.13v-11.91h1.13v2.23h.04c.31-.95.72-1.61,1.22-1.99.5-.38,1.15-.56,1.97-.56v1.49c-.64-.02-1.17.11-1.58.37-.41.26-.74.61-.99,1.06-.25.44-.41.97-.51,1.58-.09.61-.14,1.24-.14,1.9v5.84Z"/>
    <path class="cls-1" d="M245.02,65.98h1.13v16.56h-1.13v-2.09h-.04c-.16.4-.37.75-.63,1.05-.26.3-.54.55-.85.75-.31.2-.63.35-.95.46-.33.11-.65.16-.96.16-.79,0-1.46-.16-2.02-.48-.55-.32-1.01-.76-1.37-1.32-.36-.56-.62-1.22-.78-1.99-.16-.77-.25-1.59-.25-2.46,0-.83.09-1.62.26-2.39.18-.77.44-1.44.8-2.01.36-.58.81-1.03,1.36-1.38.55-.35,1.19-.52,1.93-.52.69,0,1.35.19,1.99.56.63.38,1.13.93,1.5,1.67v-6.55ZM245.02,76.53c0-.67-.08-1.31-.23-1.92-.15-.61-.37-1.13-.65-1.59-.28-.45-.63-.81-1.04-1.08-.41-.27-.87-.4-1.39-.4-.59,0-1.1.14-1.53.43-.43.28-.78.67-1.06,1.16-.28.49-.48,1.06-.6,1.71-.13.65-.18,1.35-.15,2.1,0,.75.08,1.41.25,1.99.17.57.41,1.06.71,1.46.3.4.65.7,1.06.91.4.21.84.31,1.32.31.53,0,1-.13,1.41-.39.41-.26.76-.62,1.04-1.07.28-.45.49-.99.63-1.61.14-.62.22-1.29.22-2.01Z"/>
    <path class="cls-1" d="M248.69,68.03v-2.05h1.24v2.05h-1.24ZM248.74,82.54v-11.91h1.13v11.91h-1.13Z"/>
    <path class="cls-1" d="M253.53,82.54h-1.13v-11.91h1.13v1.66c.45-.58.92-1.06,1.4-1.43.48-.37,1.06-.55,1.74-.55.6,0,1.16.13,1.68.38.52.25.95.69,1.3,1.32.24.43.38.87.42,1.32.04.45.07.92.07,1.41v7.8h-1.13v-7.77c0-1.07-.2-1.88-.58-2.41-.39-.54-1.04-.8-1.94-.8-.35,0-.67.07-.96.2-.29.13-.55.3-.78.52-.23.21-.43.46-.59.74-.16.28-.29.57-.38.87-.11.38-.18.75-.21,1.1-.03.35-.04.74-.04,1.15v6.42Z"/>
    <path class="cls-1" d="M267.02,75.59c.21-.03.47-.08.76-.14.3-.06.54-.15.73-.25.19-.11.3-.29.35-.54.04-.25.07-.49.07-.7,0-.7-.19-1.28-.56-1.74-.37-.45-1-.68-1.88-.68-.39,0-.75.04-1.07.13-.33.08-.61.23-.86.44s-.45.48-.6.83c-.16.34-.26.78-.31,1.3h-1.15c.04-.7.17-1.31.4-1.81.23-.5.52-.9.88-1.22.36-.31.77-.54,1.24-.69.47-.15.97-.22,1.5-.22.49,0,.95.07,1.39.2.43.13.81.34,1.13.62.32.28.57.66.75,1.14.18.48.27,1.06.27,1.75v6.48c0,.54.08.88.24,1.02.16.15.47.11.95-.1v1.08c-.09.03-.22.08-.39.14-.17.06-.34.09-.5.09-.18,0-.35-.02-.51-.07-.19-.03-.34-.1-.45-.22-.11-.11-.2-.25-.27-.41s-.12-.34-.14-.53c-.03-.19-.04-.39-.04-.61-.48.64-1.02,1.13-1.64,1.47-.62.34-1.28.51-2,.51-.43,0-.84-.07-1.23-.21-.4-.14-.74-.35-1.05-.64-.3-.29-.54-.65-.72-1.07-.18-.42-.26-.92-.26-1.51,0-2.02,1.14-3.22,3.41-3.59l1.56-.25ZM268.92,76.28c-.48.25-.96.41-1.45.48-.49.08-.98.14-1.47.18-.87.08-1.54.31-2.03.71-.48.4-.73,1-.73,1.82,0,.37.06.69.18.95.12.27.28.49.47.67.19.18.42.31.68.39.26.08.52.13.78.13.45,0,.89-.07,1.32-.21.43-.14.81-.35,1.14-.63.33-.28.6-.64.8-1.08.2-.44.3-.95.3-1.55v-1.86Z"/>
    <path class="cls-1" d="M273.97,82.54h-1.13v-11.91h1.13v2.23h.04c.31-.95.72-1.61,1.22-1.99.5-.38,1.15-.56,1.97-.56v1.49c-.64-.02-1.17.11-1.58.37-.41.26-.74.61-.99,1.06-.25.44-.41.97-.51,1.58-.09.61-.14,1.24-.14,1.9v5.84Z"/>
    <path class="cls-1" d="M279.27,85.75c.15.03.3.06.46.09.16.03.32.05.48.05.31,0,.57-.12.77-.37.2-.25.37-.54.5-.88.13-.34.24-.7.33-1.08.09-.38.19-.69.3-.95l-3.79-11.99h1.26l3.13,10.23,3.13-10.23h1.23l-3.64,11.75c-.23.75-.44,1.43-.65,2.02s-.43,1.11-.66,1.53c-.23.42-.49.74-.77.97-.28.22-.62.33-1.01.33-.2,0-.39-.02-.57-.05-.18-.03-.35-.07-.5-.12v-1.31Z"/>
    <path class="cls-1" d="M295.69,87.23h-1.13v-16.6h1.13v2.09h.04c.16-.38.37-.73.63-1.03.26-.31.54-.56.85-.76.31-.2.62-.35.95-.46.33-.11.65-.16.96-.16.79,0,1.46.16,2.02.48.55.32,1.01.76,1.37,1.32.36.56.62,1.22.78,1.99.16.77.25,1.59.25,2.46,0,.83-.09,1.63-.26,2.39-.18.77-.44,1.44-.8,2.01s-.81,1.03-1.36,1.38c-.55.35-1.19.52-1.93.52-.69,0-1.35-.19-1.99-.56s-1.13-.93-1.5-1.67v6.6ZM295.69,76.63c0,.67.08,1.31.23,1.92.15.61.37,1.13.65,1.59.28.45.63.81,1.04,1.08.41.27.87.4,1.39.4.58,0,1.08-.14,1.52-.43.43-.28.79-.67,1.06-1.16.28-.49.48-1.06.6-1.71.13-.65.18-1.35.15-2.1,0-.75-.08-1.41-.25-1.99-.17-.58-.41-1.06-.71-1.46-.3-.4-.65-.7-1.06-.91-.4-.21-.84-.31-1.32-.31-.53,0-1,.13-1.41.39-.41.26-.76.62-1.04,1.07-.28.45-.49.99-.63,1.61-.14.62-.22,1.29-.22,2.01Z"/>
    <path class="cls-1" d="M305.61,82.54v-16.56h1.13v6.3c.45-.58.92-1.06,1.4-1.43.48-.37,1.06-.55,1.74-.55.6,0,1.16.13,1.68.38.52.25.95.69,1.3,1.32.24.43.38.87.42,1.32.04.45.07.92.07,1.41v7.8h-1.13v-7.77c0-1.07-.2-1.88-.58-2.41-.39-.54-1.04-.8-1.94-.8-.35,0-.67.07-.96.2-.29.13-.55.3-.78.52-.23.21-.43.46-.59.74-.16.28-.29.57-.38.87-.11.38-.18.75-.21,1.1-.03.35-.04.74-.04,1.15v6.42h-1.13Z"/>
    <path class="cls-1" d="M319.77,82.86c-.63-.02-1.22-.15-1.76-.41-.55-.26-1.02-.65-1.43-1.17-.41-.52-.73-1.17-.97-1.95-.24-.78-.36-1.69-.36-2.74,0-.87.09-1.69.28-2.45.19-.76.47-1.42.85-1.99.38-.57.85-1.02,1.41-1.35.57-.33,1.23-.49,1.98-.49s1.43.16,2,.49c.57.33,1.04.77,1.41,1.33.38.56.66,1.22.84,1.99.18.77.27,1.59.27,2.46,0,.95-.11,1.81-.32,2.58-.21.77-.52,1.43-.91,1.98-.4.55-.87.98-1.43,1.28-.56.3-1.18.45-1.86.45ZM323.09,76.58c0-.7-.06-1.36-.19-1.98-.13-.61-.32-1.15-.58-1.6-.26-.45-.6-.81-1.02-1.07-.41-.26-.92-.39-1.53-.39s-1.1.14-1.52.43c-.42.28-.76.66-1.03,1.13-.26.47-.46,1-.58,1.61-.13.61-.19,1.23-.19,1.87,0,.74.07,1.41.22,2.04.14.62.35,1.15.63,1.6.28.44.62.79,1.04,1.03.41.25.89.37,1.43.37.59,0,1.1-.14,1.52-.43.42-.28.76-.66,1.03-1.14.26-.48.46-1.01.58-1.61.13-.6.19-1.22.19-1.86Z"/>
    <path class="cls-1" d="M4.56,115.57c-.14.03-.32.08-.55.16-.23.08-.48.12-.75.12-.57,0-1-.17-1.29-.52-.3-.34-.44-.96-.44-1.85v-8.72H.15v-1.15h1.38v-3.31h1.13v3.31h1.83v1.15h-1.83v8.16c0,.29,0,.54.02.76.01.21.05.39.11.53.06.14.16.24.29.3.13.06.32.09.56.09.15,0,.3-.02.46-.05.16-.03.31-.07.46-.12v1.13Z"/>
    <path class="cls-1" d="M9.74,115.84c-.63-.02-1.22-.15-1.76-.41-.55-.26-1.02-.65-1.43-1.17-.41-.52-.73-1.17-.97-1.95-.24-.78-.36-1.69-.36-2.74,0-.87.09-1.69.28-2.45.19-.76.47-1.42.85-1.99.38-.57.85-1.02,1.41-1.35.57-.33,1.23-.49,1.98-.49s1.43.16,2,.49c.57.33,1.04.77,1.41,1.33.38.56.66,1.22.84,1.99.18.77.27,1.59.27,2.46,0,.95-.11,1.81-.32,2.58-.21.77-.52,1.43-.91,1.98-.4.55-.87.98-1.43,1.28-.56.3-1.18.45-1.86.45ZM13.06,109.57c0-.7-.06-1.36-.19-1.98-.13-.61-.32-1.15-.58-1.6-.26-.45-.6-.81-1.02-1.07-.41-.26-.92-.39-1.53-.39s-1.1.14-1.52.43c-.42.28-.76.66-1.03,1.13-.26.47-.46,1-.58,1.61-.13.61-.19,1.23-.19,1.87,0,.74.07,1.41.22,2.04.14.62.36,1.15.63,1.6.28.44.62.79,1.04,1.03.41.25.89.37,1.43.37.59,0,1.1-.14,1.52-.43.42-.28.76-.66,1.03-1.14.26-.48.46-1.01.58-1.61.13-.6.19-1.22.19-1.86Z"/>
    <path class="cls-1" d="M22.1,101.01v-2.05h1.24v2.05h-1.24ZM22.16,115.52v-11.91h1.13v11.91h-1.13Z"/>
    <path class="cls-1" d="M26.95,115.52h-1.13v-11.91h1.13v1.66c.45-.58.92-1.06,1.4-1.43.48-.37,1.06-.55,1.74-.55.6,0,1.16.13,1.68.38.51.25.95.69,1.3,1.32.24.43.38.87.42,1.32.04.45.07.92.07,1.41v7.8h-1.13v-7.77c0-1.07-.19-1.88-.58-2.41-.39-.54-1.04-.8-1.94-.8-.35,0-.67.07-.96.2-.29.13-.55.3-.78.52-.23.21-.43.46-.59.74-.16.28-.29.57-.38.87-.11.38-.18.75-.21,1.1-.03.35-.04.74-.04,1.15v6.42Z"/>
    <path class="cls-1" d="M42.93,115.52h-1.13v-11.91h1.13v1.79h.04c.29-.69.7-1.21,1.24-1.58.54-.36,1.13-.54,1.77-.54.45,0,.84.06,1.15.18.31.12.58.29.8.49.22.21.4.45.55.72.14.28.27.58.37.9.33-.78.76-1.36,1.31-1.74.55-.38,1.17-.56,1.88-.56.67,0,1.2.13,1.59.4.4.27.7.62.91,1.06.21.44.35.94.42,1.51.07.57.1,1.15.1,1.75v7.52h-1.13v-8.23c0-.86-.15-1.53-.44-2.02-.3-.49-.85-.74-1.65-.74-.41,0-.81.11-1.2.33-.38.22-.72.56-1.01,1.02-.13.2-.23.43-.31.7-.08.27-.15.55-.2.84-.05.29-.09.58-.1.87-.02.29-.03.56-.03.8v6.42h-1.13v-8.23c0-.86-.15-1.53-.44-2.02-.3-.49-.85-.74-1.65-.74-.41,0-.81.11-1.2.33-.38.22-.72.56-1.01,1.02-.13.2-.23.43-.31.7-.08.27-.15.55-.2.84-.05.29-.09.58-.1.87-.02.29-.03.56-.03.8v6.42Z"/>
    <path class="cls-1" d="M57.11,118.74c.15.03.3.06.46.09.16.03.32.05.48.05.31,0,.57-.12.77-.37.2-.25.37-.54.5-.88.13-.34.24-.7.33-1.08.09-.38.19-.69.3-.95l-3.79-11.99h1.26l3.13,10.23,3.13-10.23h1.23l-3.64,11.75c-.23.75-.44,1.43-.65,2.02-.21.6-.43,1.11-.66,1.53-.23.42-.49.74-.77.97-.28.22-.62.33-1.01.33-.2,0-.39-.02-.57-.05-.18-.03-.35-.07-.5-.12v-1.31Z"/>
    <path class="cls-1" d="M79.18,107.36c-.2-.89-.55-1.58-1.04-2.08-.49-.5-1.11-.75-1.87-.75-.58,0-1.07.15-1.49.44-.41.29-.75.68-1.02,1.16s-.46,1.03-.58,1.63c-.13.61-.19,1.22-.19,1.83s.06,1.24.18,1.84c.12.6.31,1.13.58,1.61.26.48.6.85,1.02,1.14.41.28.92.43,1.51.43.84,0,1.52-.28,2.03-.85.51-.57.83-1.35.97-2.35h1.21c-.1.66-.26,1.26-.48,1.81-.22.54-.5,1.01-.85,1.4-.35.39-.76.69-1.23.91s-1.02.32-1.64.32c-.78,0-1.45-.16-2.02-.48s-1.03-.76-1.4-1.32c-.36-.56-.63-1.22-.81-1.99-.18-.77-.26-1.59-.26-2.46,0-.83.1-1.62.29-2.38.19-.76.48-1.43.86-2.01.38-.58.84-1.05,1.4-1.39.56-.35,1.2-.52,1.93-.52,1.13,0,2.05.33,2.74.99.7.66,1.13,1.69,1.31,3.08h-1.15Z"/>
    <path class="cls-1" d="M87.02,108.58c.21-.03.47-.08.76-.14.3-.06.54-.15.73-.25.19-.11.3-.29.35-.54.04-.25.07-.49.07-.7,0-.7-.19-1.28-.56-1.74-.37-.45-1-.68-1.88-.68-.39,0-.75.04-1.07.13-.33.08-.61.23-.86.44-.25.21-.45.48-.6.83-.16.34-.26.78-.31,1.3h-1.15c.04-.7.17-1.31.4-1.81.23-.5.52-.9.88-1.22.36-.31.77-.54,1.24-.69.47-.15.97-.22,1.5-.22.49,0,.95.07,1.39.2.43.13.81.34,1.13.62.32.28.57.66.75,1.14.18.48.27,1.06.27,1.75v6.48c0,.54.08.88.24,1.02.16.15.47.11.95-.1v1.08c-.09.03-.22.08-.39.14-.17.06-.34.09-.5.09-.18,0-.35-.02-.51-.07-.19-.03-.34-.1-.45-.22-.11-.11-.2-.25-.27-.41s-.12-.34-.14-.53c-.03-.19-.04-.39-.04-.61-.48.64-1.02,1.13-1.64,1.47-.62.34-1.28.51-2,.51-.43,0-.84-.07-1.23-.21-.4-.14-.74-.35-1.05-.64-.3-.29-.54-.65-.72-1.07-.18-.42-.26-.92-.26-1.51,0-2.02,1.14-3.22,3.41-3.59l1.56-.25ZM88.92,109.27c-.48.25-.96.41-1.45.48-.49.08-.98.14-1.47.18-.87.08-1.54.31-2.03.71-.48.4-.73,1-.73,1.82,0,.37.06.69.18.95.12.27.28.49.47.67.19.18.42.31.68.39.26.08.52.13.78.13.45,0,.89-.07,1.32-.21.43-.14.81-.35,1.14-.63.33-.28.6-.64.8-1.08s.3-.95.3-1.55v-1.86Z"/>
    <path class="cls-1" d="M93.87,115.52h-1.13v-11.91h1.13v1.79h.04c.29-.69.7-1.21,1.24-1.58.54-.36,1.13-.54,1.77-.54.45,0,.84.06,1.15.18.31.12.58.29.8.49.22.21.4.45.55.72.14.28.27.58.37.9.33-.78.76-1.36,1.31-1.74.55-.38,1.17-.56,1.88-.56.67,0,1.2.13,1.59.4.4.27.7.62.91,1.06s.36.94.42,1.51c.07.57.1,1.15.1,1.75v7.52h-1.13v-8.23c0-.86-.15-1.53-.44-2.02-.3-.49-.85-.74-1.65-.74-.41,0-.81.11-1.2.33-.38.22-.72.56-1.01,1.02-.13.2-.23.43-.31.7-.08.27-.15.55-.2.84-.05.29-.09.58-.1.87-.02.29-.03.56-.03.8v6.42h-1.13v-8.23c0-.86-.15-1.53-.44-2.02-.3-.49-.85-.74-1.65-.74-.41,0-.81.11-1.2.33-.38.22-.72.56-1.01,1.02-.13.2-.23.43-.31.7-.08.27-.15.55-.2.84-.05.29-.08.58-.1.87-.02.29-.03.56-.03.8v6.42Z"/>
    <path class="cls-1" d="M109.1,109.89c0,.64.07,1.25.21,1.83.14.57.34,1.07.61,1.49.27.42.61.76,1.03,1.01.41.25.89.38,1.43.38.74,0,1.38-.24,1.9-.71.53-.48.88-1.15,1.06-2.02h1.26c-.14.57-.32,1.09-.55,1.58s-.51.9-.85,1.26c-.34.36-.74.64-1.21.84-.46.2-1.01.3-1.62.3-.78,0-1.45-.16-2.02-.48-.57-.32-1.03-.76-1.39-1.32-.37-.56-.64-1.22-.81-1.98-.18-.76-.26-1.58-.26-2.45s.1-1.69.31-2.46c.21-.77.5-1.44.89-2.01.38-.57.85-1.03,1.4-1.36.55-.33,1.18-.49,1.89-.49,1.34,0,2.4.56,3.17,1.69.77,1.13,1.14,2.76,1.13,4.91h-7.58ZM115.47,108.74c0-.58-.07-1.13-.2-1.64-.13-.51-.33-.96-.58-1.33-.26-.38-.58-.67-.97-.9-.39-.22-.84-.33-1.34-.33s-.95.12-1.33.35c-.38.23-.71.54-.98.92-.27.38-.49.83-.65,1.33-.16.51-.27,1.04-.32,1.61h6.37Z"/>
    <path class="cls-1" d="M119.8,115.52h-1.13v-11.91h1.13v2.23h.04c.31-.95.72-1.61,1.22-1.99.5-.38,1.15-.56,1.97-.56v1.49c-.64-.02-1.17.11-1.58.37-.41.26-.74.61-.99,1.06-.25.44-.41.97-.51,1.58-.09.61-.14,1.24-.14,1.9v5.84Z"/>
    <path class="cls-1" d="M128.87,108.58c.21-.03.47-.08.76-.14.29-.06.54-.15.73-.25.19-.11.3-.29.35-.54.04-.25.07-.49.07-.7,0-.7-.19-1.28-.56-1.74-.37-.45-1-.68-1.88-.68-.39,0-.75.04-1.07.13-.33.08-.61.23-.86.44-.24.21-.45.48-.6.83-.16.34-.26.78-.31,1.3h-1.15c.04-.7.17-1.31.4-1.81.23-.5.52-.9.88-1.22.36-.31.77-.54,1.24-.69.47-.15.97-.22,1.5-.22.49,0,.95.07,1.39.2.43.13.81.34,1.13.62.32.28.57.66.75,1.14.18.48.27,1.06.27,1.75v6.48c0,.54.08.88.24,1.02.16.15.47.11.95-.1v1.08c-.09.03-.22.08-.39.14-.17.06-.34.09-.5.09-.18,0-.35-.02-.51-.07-.19-.03-.34-.1-.45-.22-.11-.11-.2-.25-.27-.41-.07-.16-.12-.34-.14-.53-.03-.19-.04-.39-.04-.61-.48.64-1.02,1.13-1.64,1.47-.62.34-1.28.51-2,.51-.43,0-.84-.07-1.23-.21-.4-.14-.74-.35-1.05-.64-.3-.29-.54-.65-.72-1.07-.18-.42-.26-.92-.26-1.51,0-2.02,1.14-3.22,3.41-3.59l1.56-.25ZM130.77,109.27c-.48.25-.96.41-1.45.48-.49.08-.98.14-1.47.18-.87.08-1.54.31-2.03.71-.48.4-.73,1-.73,1.82,0,.37.06.69.18.95.12.27.28.49.47.67.19.18.42.31.68.39.26.08.52.13.78.13.45,0,.89-.07,1.32-.21.43-.14.81-.35,1.14-.63.33-.28.6-.64.8-1.08.2-.44.3-.95.3-1.55v-1.86Z"/>
    <path class="cls-1" d="M141.7,115.52h-1.13v-11.91h1.13v2.23h.04c.31-.95.72-1.61,1.22-1.99.5-.38,1.15-.56,1.97-.56v1.49c-.64-.02-1.17.11-1.58.37-.41.26-.74.61-.99,1.06-.25.44-.41.97-.51,1.58-.09.61-.14,1.24-.14,1.9v5.84Z"/>
    <path class="cls-1" d="M150.18,115.84c-.63-.02-1.22-.15-1.76-.41-.55-.26-1.02-.65-1.43-1.17-.41-.52-.73-1.17-.97-1.95-.24-.78-.36-1.69-.36-2.74,0-.87.09-1.69.28-2.45.19-.76.47-1.42.85-1.99.38-.57.85-1.02,1.41-1.35.57-.33,1.23-.49,1.98-.49s1.43.16,2,.49c.57.33,1.04.77,1.41,1.33.38.56.66,1.22.84,1.99.18.77.27,1.59.27,2.46,0,.95-.11,1.81-.32,2.58-.21.77-.52,1.43-.91,1.98-.4.55-.87.98-1.43,1.28-.56.3-1.18.45-1.86.45ZM153.5,109.57c0-.7-.06-1.36-.19-1.98-.13-.61-.32-1.15-.58-1.6-.26-.45-.6-.81-1.02-1.07-.41-.26-.92-.39-1.53-.39s-1.1.14-1.52.43c-.42.28-.76.66-1.03,1.13-.26.47-.46,1-.58,1.61-.13.61-.19,1.23-.19,1.87,0,.74.07,1.41.22,2.04.14.62.35,1.15.63,1.6.28.44.62.79,1.04,1.03.41.25.89.37,1.43.37.59,0,1.1-.14,1.52-.43.42-.28.76-.66,1.03-1.14.26-.48.46-1.01.58-1.61.13-.6.19-1.22.19-1.86Z"/>
    <path class="cls-1" d="M156.72,115.52v-16.56h1.13v16.56h-1.13Z"/>
    <path class="cls-1" d="M160.44,115.52v-16.56h1.13v16.56h-1.13Z"/>
    <path class="cls-1" d="M164.47,115.52v-2.02h1.38v2.02h-1.38Z"/>
  </g>
  <rect class="cls-2" x="329" y="-.21" width="1" height="116.1"/>
</svg>