<?xml version="1.0" encoding="UTF-8"?>
<svg id="_レイヤー_1" data-name="レイヤー 1" xmlns="http://www.w3.org/2000/svg" viewBox="0 0 330 120">
  <defs>
    <style>
      .cls-1 {
        stroke-width: .37px;
      }

      .cls-1, .cls-2 {
        stroke: #00c800;
        stroke-miterlimit: 10;
      }

      .cls-1, .cls-2, .cls-3 {
        fill: #00c800;
      }

      .cls-2 {
        stroke-width: .37px;
      }
    </style>
  </defs>
  <g>
    <g>
      <path class="cls-1" d="M9.5,19.3s-.06.02-.1.02c-.08,0-.14-.07-.14-.14,0-.05.02-.12.1-.16,2.11-1.6,3.2-3.78,3.3-6.03v-.26c0-3.18-2.52-4.34-4.67-4.34-.56,0-1.11.07-1.57.21-.02.28-.04.74-.06,1.07.44.49.66.9.66,1.23v.02c-.04.84-.46,1.81-.79,2.51-.04.81-.06,1.72-.06,2.62,0,1.02.04,2.04.14,2.95v.19c0,.37-.14.72-.54.97-.08.05-.16.07-.24.07-.3,0-.56-.26-.56-.63v-.07c.12-1.35.18-2.9.24-4.25-.64,1.14-1.37,2.32-2.18,2.9-.24.19-.52.28-.76.28s-.46-.09-.64-.28c-.52-.49-.85-1.55-.85-2.67,0-.14,0-.26.02-.37.26-4.18,2.98-6.15,4.77-6.91.02-.56.04-1.28.08-2.32-.34.09-.7.19-1.09.19-.7,0-1.41-.3-1.89-1.49-.02-.02-.02-.05-.02-.07,0-.05.04-.07.06-.07.04,0,.06,0,.08.02.38.28.85.46,1.37.46.46,0,.97-.14,1.51-.51-.02-.97-.02-1.51-.48-2.11-.14-.21-.32-.46-.32-.77,0-.19.06-.35.2-.53.14-.16.32-.26.5-.26.14,0,.3.05.44.14.42.33.62,2.04,1.61,2.18.54.07.77.42.77.79,0,.21-.08.44-.22.63-.18.3-.83.7-1.63,1.07,0,.77-.08,1.65-.1,2.37,3.58-1,7.67.88,7.61,5.36-.02,1.86-1.35,4.43-4.55,5.99ZM5.55,8.98c-2.09,1.07-3.63,3.41-3.63,5.75,0,.23.02.49.06.74.1.79.34,1.07.62,1.07.36,0,.77-.44,1.09-.88.83-1.23,1.39-2.34,1.67-3.41.04-.7.12-2.18.18-3.27Z"/>
      <path class="cls-1" d="M31.76,7.24c-.22,0-.52-.09-.97-.19-.14-.02-.28-.05-.42-.05-.4,0-.79.14-1.11.39-.99.77-1.57,1.95-1.57,3.41v.16c.06,1.65.24,2.99.4,4.45,1.01.26,2.54,1.07,3.67,2.39.28.32.4.65.4.9,0,.28-.12.49-.28.67-.1.09-.26.16-.42.16-.2,0-.44-.12-.66-.39-.75-1.02-1.61-1.88-2.64-2.46v.16c0,2.39-1.35,3.2-2.88,3.2-.91,0-2.7-.39-2.7-2.18,0-1.58,1.75-2.76,3.63-2.76.22,0,.42,0,.62.02-.06-.65-.12-2.02-.16-2.76-.02-.23-.02-.46-.02-.67,0-1.09.14-2.02.68-2.95.93-1.55,2.07-2.2,2.42-2.48.12-.09.16-.19.16-.28,0-.12-.06-.23-.16-.32-.22-.21-.6-.37-1.13-.37-.38,0-.91.16-1.43.53-1.31.93-3.02,2.62-4.27,4.32-.58.74-1.99,2.71-3.02,4.78-.1.21-.28.3-.48.3-.14,0-.3-.07-.4-.21-.24-.3-.36-.67-.36-.95v-.05c.04-.67.46-.91.62-1.07.64-.72,1.35-1.65,1.87-2.48.75-1.18,1.67-2.64,2.58-5.27-.44.07-1.19.26-1.89.26-.3,0-.6-.05-.85-.14-.72-.28-1.11-.97-1.53-2.02-.02-.02-.02-.05-.02-.07,0-.09.04-.16.12-.16.02,0,.06.02.08.05.48.53.79.88,1.23,1.09.16.07.38.09.68.09.66,0,1.59-.16,2.6-.46.1-.51.18-.95.18-1.35,0-.67-.24-1.16-1.03-1.42-.04-.02-.06-.05-.06-.09,0-.07.06-.19.14-.19.14-.02.28-.05.4-.05.77,0,1.49.46,2.01,1.39.04.07.06.14.06.19,0,.07-.04.14-.1.21-.12.12-.26.35-.42.84.28-.12.56-.23.87-.39.08-.05.18-.07.28-.07.2,0,.42.09.56.23.14.14.24.35.24.56,0,.16-.06.32-.24.42-.24.14-1.07.49-2.26.81-.4,1.07-1.11,2.85-1.45,3.64,1.11-1.18,2.58-2.51,3.22-3.02,1.21-.93,1.91-1.16,2.8-1.16,1.07,0,2.09.46,2.78,1.44.14.23.22.46.22.7,0,.28-.1.51-.28.63-.1.05-.2.07-.32.07ZM26.88,16.49v-.3c-.34-.07-.66-.09-.99-.09-1.45,0-2.64.74-2.64,1.72,0,.84.76,1.28,1.71,1.28,1.59,0,1.91-1.42,1.91-2.6Z"/>
      <path class="cls-1" d="M51.93,18.02c0,.33-.3.65-.58.7-.16.05-.5.07-.95.07-.48,0-1.11-.02-1.73-.09-1.47-.14-3.69-.58-4.01-3.09-.02-.26-.04-.51-.04-.74,0-1.55.68-2.58,1.57-3.46.76-.77,1.93-1.32,2.68-1.86.58-.42.83-.97.83-1.55,0-.3-.06-.58-.16-.88-.24-.72-1.05-1.62-1.65-2.04-.26-.19-.54-.28-.85-.28-.26,0-.54.07-.83.23-1.69.88-3.77,3.13-4.77,4.57-.6,1.74-1.45,3.9-2.34,6.61-.16.46-.58,1.62-.93,2.53-.08.23-.2.44-.34.6-.1.14-.24.19-.38.19-.18,0-.38-.12-.46-.32-.14-.3-.2-.63-.2-.95v-.07c0-.19.02-.46.26-.81.34-.56.62-1.14.91-1.74,1.31-2.9,2.76-6.31,3.65-9.63-.77.28-2.68,1.07-3.08,1.23-.14.05-.26.07-.38.07-.24,0-.42-.09-.62-.23-.34-.3-.93-.91-1.05-1.21,0-.02-.02-.07-.02-.14,0-.09.02-.16.08-.16.02,0,.04,0,.06.02.38.26.93.37,1.43.37.18,0,.36-.02.52-.05,1.13-.21,2.46-.58,3.32-.95.14-.74.2-1.11.28-1.79.02-.07.02-.14.02-.21,0-.72-.4-1.35-1.01-1.48.04-.28.24-.49.48-.49h.02c1.11.07,1.73,1.02,1.83,1.18.04.09.12.21.12.39,0,.09-.02.16-.04.28-.12.32-.42,1.14-.54,1.58.12-.02.22-.05.32-.05.12,0,.24.02.32.14.08.09.1.19.1.26,0,.19-.12.37-.26.49-.12.14-.58.26-.83.33-.14.53-.48,1.62-.75,2.46,1.45-1.55,2.76-2.9,4.19-3.9.36-.23.68-.37,1.05-.37.34,0,.72.12,1.15.37,1.13.63,2.03,1.81,2.52,2.85.16.3.24.7.24,1.11,0,.88-.4,1.81-1.51,2.09-1.47.39-2.54.88-3.24,1.74-.6.74-.91,1.58-.91,2.6,0,.16,0,.32.02.51.14,1.44,1.27,2.13,3.36,2.3.26.02.56.02.83.02.58,0,1.11-.05,1.39-.07h.16c.26,0,.48.07.68.46.04.09.06.16.06.26Z"/>
      <path class="cls-1" d="M69.72,20.97c-.16,0-.3-.07-.46-.3-.99-1.51-1.97-3.09-3.46-4.29-1.17,1.51-3.1,2.48-4.87,2.48-.16,0-.32,0-.46-.02-.75-.07-1.03-.63-1.05-1.14v-.05c0-.53.42-1.16.77-1.58.64-.77,1.49-1.37,2.38-1.65.32-.09.64-.14.97-.14.68,0,1.35.21,1.93.51.2-.39.28-1.42.28-2.58v-.35c-.02-1.58-.06-3.34-.12-4.99-1.37.39-2.72.7-4.31,1.28-2.54.95-3.77,2.46-3.85,4.06-.06.88-.08,1.76-.08,2.64,0,1.02.04,2.04.14,3.02.02.21.04.39.04.56,0,.23-.06.44-.24.6-.06.05-.16.09-.26.09-.14,0-.28-.07-.4-.23-.4-.6-.58-1.32-.58-2.06v-.14c.06-1.62.91-6.89.91-10.44,0-.46-.02-.9-.04-1.3-.08-.84-.48-1.72-1.05-2.25-.04-.02-.06-.07-.06-.12,0-.14.08-.28.2-.28h.02c.7.12,1.35.7,1.81,1.3.16.21.26.51.26.79,0,.12-.02.23-.06.35-.04.16-.08.26-.12.53-.18,1.32-.34,4.08-.4,4.96v.02s.02.07.04.07.04-.02.06-.07c.95-1.46,2.24-2.39,3.52-2.9,1.07-.42,3.02-1,4.41-1.44-.02-.72-.08-1.79-.12-2.27-.08-1.07-.34-2.3-1.37-3.02-.02-.02-.04-.07-.04-.09,0-.05.02-.09.06-.12.32-.16.58-.23.81-.23.2,0,.34.05.48.12.3.19,1.09.88,1.39,1.32.12.16.18.37.18.6,0,.14-.02.28-.08.42-.22.51-.28.86-.3,1.65v.44c0,.3,0,.51.02.88.36-.14,1.03-.32,1.33-.53.26-.19.36-.37.36-.63v-.09c.32,0,.85.26,1.09.53.12.12.18.28.18.46,0,.28-.16.58-.42.63-.34.09-1.63.39-2.52.63.06,2.3.28,4.48.3,6.66,0,.72-.12,1.51-.46,2.11,1.01.67,2.78,2.27,3.71,3.85.08.14.18.46.18.77v.16c-.06.42-.22.74-.56.77-.02.02-.04.02-.06.02ZM60.89,18.02c.99,0,2.72-.56,4.05-2.27-.48-.33-1.11-.58-1.75-.58-.16,0-.3.02-.46.05-1.01.21-2.05,1.21-2.4,1.88-.08.14-.12.28-.12.42,0,.28.16.49.52.51h.16Z"/>
      <path class="cls-1" d="M88.36,9.82c-.69,0-4.43-4.22-6.73-7.39-.23-.32-.46-.49-.69-.49-.25,0-.48.2-.71.54-1.71,2.68-5.77,7.95-6.71,7.95-.33,0-.56-.32-.56-.66,0-.25.1-.47.31-.64,2.21-1.72,4.74-5.2,6.21-7.56.35-.56.82-.88,1.34-.88.46,0,.96.27,1.44.88,1.86,2.45,3.84,4.81,6.41,6.85.23.17.33.42.33.64,0,.39-.29.76-.63.76ZM75.89,12.79c-.33,0-.48-.29-.48-.61s.17-.64.48-.64c.65-.02,3.76-.02,6.1-.02h2.3c1.13.02,1.61.64,1.61,1.6,0,3.04-4.51,7.91-5.41,7.91-.35,0-.61-.34-.61-.69,0-.22.12-.44.36-.59,2.09-1.25,4.47-4.86,4.47-6.36,0-.69-.48-.69-1.32-.69-2.03,0-6.81.07-7.48.1h-.02ZM78.14,8.3c-.29,0-.44-.29-.44-.61,0-.29.15-.59.44-.59h5.79c.31,0,.44.29.44.59,0,.32-.13.61-.44.61h-5.79Z"/>
      <path class="cls-1" d="M93.6,20.13c-.56-1.4-1.61-2.38-2.36-3.04-.19-.17-.4-.32-.4-.42,0-.02.04-.05.12-.05.54,0,4.01.86,4.01,3.04,0,.64-.35,1.1-.71,1.1-.23,0-.48-.2-.65-.64Z"/>
      <path class="cls-1" d="M113.36,10.75c-.86,1.92-2.05,3.85-2.99,5.06-.13.17-.29.25-.44.25-.29,0-.52-.29-.52-.61,0-.17.06-.34.19-.49,1.17-1.25,2.76-3.81,3.76-6.31v-.81l-2.97.05c-.31,0-.46-.29-.46-.59s.15-.59.46-.59h2.95l-.04-3.46c-.38.1-1.94.52-2.46.52-.33,0-.5-.27-.5-.56,0-.27.15-.54.44-.56,1.98-.25,3.68-.79,5.26-1.62.06-.02.1-.05.15-.05.25,0,.48.29.48.59,0,.44-.44.76-2.34,1.38,0,.32-.04,1.94-.06,3.78h2.72c.31,0,.46.29.46.59s-.15.59-.46.59l-2.72-.02c0,.93-.02,1.84-.02,2.65,0,3.68.08,10.16.08,10.16,0,.37-.27.56-.52.56-.27,0-.52-.2-.52-.56l.06-9.92ZM116.5,13.11c-.54-.83-1.55-1.79-1.98-2.11-.12-.1-.15-.22-.15-.34,0-.27.19-.54.44-.54.4,0,1.92,1.45,2.36,2.04.12.15.15.32.15.49,0,.37-.23.69-.5.69-.12,0-.23-.07-.33-.22ZM116.62,20.03c-.36,0-.52-.32-.52-.64s.13-.64.42-.66c.46-.05.92-.1,1.36-.17.96-4.05,2.57-14.29,2.78-16.99.04-.39.29-.59.54-.59.29,0,.58.25.58.71,0,1.08-2.07,13.48-2.9,16.7,1.76-.29,3.51-.71,5.18-1.25-.52-1.33-1.15-2.58-1.71-3.51-.06-.1-.1-.22-.1-.32,0-.32.25-.59.52-.59.15,0,.31.07.42.27.98,1.47,2.84,5.67,2.84,6.83,0,.49-.31.79-.61.79-.21,0-.44-.17-.52-.59-.12-.59-.29-1.18-.48-1.79-2.84.98-7.02,1.82-7.81,1.82Z"/>
      <path class="cls-1" d="M134.92,18.98h-.05c-.11,0-.16-.08-.16-.17,0-.06.05-.17.13-.19,2.46-.86,6.51-3.27,6.63-7.91v-.13c0-2.37-1.53-5.73-5.36-5.86-2.92-.11-6.43,2.37-6.4,6.13.02,1.09.4,2.35.97,3.34.18.31.35.5.55.5.16,0,.38-.15.66-.48,1.49-1.74,3.21-4.83,3.61-8.35.02-.13.09-.19.18-.19.07,0,.16.06.16.21v.25c0,4.41-2.2,7.77-3.17,9.11-.46.61-.95,1.3-1.48,1.78-.13.13-.24.17-.35.17-.16,0-.31-.15-.4-.38-.33-.82-.58-1.43-.97-2.33-.46-.99-.75-2.12-.75-3.25v-.11c.09-5.02,4.72-7.07,7.36-7.07h.09c3.15.06,6.6,2.52,6.65,6.78.04,2.92-1.64,6.57-7.91,8.14Z"/>
      <path class="cls-1" d="M151.58,2.73c.26-.12.52-.16.79-.16,1.01,0,1.85.72,2.22,1.14.06.09.1.21.1.3,0,.14-.06.3-.16.39-.24.23-.32.58-.42,1.11-.12.56-.2.95-.28,1.37.87-.07,2.03-.16,2.52-.21s.62-.09,1.05-.46c.06-.07.14-.12.24-.12.08,0,.16.02.26.09.48.26.93.56,1.29,1,.06.05.08.14.08.21,0,.09-.02.16-.08.21-.3.32-.52.53-.58,1.14-.24,1.83-.5,3.71-.83,5.34-.52,2.51-1.53,2.9-2.6,3.18-.06.02-.12.02-.16.02-.18,0-.22-.12-.28-.28-.18-.42-.14-1.11-1.51-2.18-.02-.02-.04-.05-.04-.09s.04-.12.1-.12h.02c.93.37,1.57.51,1.99.51.64,0,.85-.3.97-.63.42-1.21.99-4.34.97-6.5,0-.26-.16-.44-.38-.44h-.3c-.97,0-1.89.07-2.86.14-1.07,5.78-2.88,8.91-7.47,11-.04.02-.06.02-.08.02-.1,0-.16-.09-.16-.16s.02-.12.08-.16c4.67-3.04,5.5-6.75,6.28-10.56-1.23.12-2.38.28-3.56.58-.16.05-.3.09-.44.09s-.28-.05-.48-.21c-.46-.39-.87-.86-1.19-1.39-.02-.05-.04-.09-.04-.14,0-.12.08-.21.18-.21.02,0,.06,0,.08.02.64.42,1.21.65,1.93.65h.24c.89-.07,2.4-.14,3.4-.23.08-.65.22-1.76.22-2.64,0-.7-.12-.95-1.15-1.14l.06-.49Z"/>
      <path class="cls-1" d="M174.23,9.51c.52.46,1.21,1.21,1.51,1.83.18.39.28.74.28,1.02v.09c-.02.28-.14.67-.4.86-.1.07-.2.12-.32.12-.22,0-.44-.14-.62-.44-.32-.6-.81-1.58-1.25-2.09-.83,1.25-3.48,5.68-9.85,7.84-.04.02-.08.02-.1.02-.12,0-.18-.07-.18-.16,0-.07.04-.14.14-.19,3.71-1.76,7.03-4.69,9.12-8.58-.64-.72-2.09-1.9-3.14-2.48-.06-.05-.1-.12-.1-.16,0-.07.04-.14.14-.14h.06c1.17.28,2.38.86,3.61,1.62.28-.53,1.05-2.48,1.31-3.48.06-.21.1-.42.1-.63,0-.58-.3-1.16-1.37-1.49-.08-.02-.12-.12-.12-.21s.06-.23.18-.23c.22-.05.46-.07.72-.07.52,0,1.11.12,1.49.46.5.49.89,1.02,1.15,1.58.06.09.1.23.1.35,0,.16-.04.3-.18.42-.28.21-.54.46-.7.84-.58,1.3-1.07,2.39-1.57,3.29Z"/>
      <path class="cls-1" d="M195.06,9.21c-3.02,6.8-6.36,8.77-10.94,10.28h-.06c-.1,0-.16-.09-.16-.16,0-.05.02-.09.08-.12,6.06-2.81,8.5-7.31,9.61-11.07.04-.09.06-.19.06-.26,0-.16-.08-.23-.28-.23h-.16c-1.77.21-4.19.79-5.5,1.25-.6.23-.81.39-1.05.39-.14,0-.28-.05-.54-.16-.58-.3-1.09-.79-1.51-1.42-.02-.02-.02-.05-.02-.09,0-.12.08-.3.2-.3,0,0,.02,0,.04.02.58.35,1.17.51,1.71.51.1,0,.2,0,.3-.02,1.73-.19,4.85-.72,6.12-1,.5-.12.52-.09.93-.51.08-.09.14-.14.24-.14.06,0,.12.02.22.07.64.35,1.33.97,1.73,1.44.06.07.1.19.1.3s-.06.23-.18.3c-.46.26-.74.46-.95.9ZM194.75,2.9c0,.23-.22.44-.38.44-2.52.12-5.36.65-6.61.86-.08.02-.16.02-.22.02-.32,0-.5-.12-.64-.23-.34-.3-.64-.58-.79-1-.02-.05-.02-.07-.02-.12,0-.12.06-.19.2-.3.2.28.83.46,1.25.46h.08c1.41-.09,4.13-.46,5.3-1.04.18-.09.3-.14.42-.14.08,0,.14.02.22.05.56.21.85.46,1.07.72.08.09.12.19.12.28Z"/>
      <path class="cls-1" d="M214.01,7.31c0,.12-.06.21-.16.33-.69.74-.75.81-.85,1.32-.22,1.28-.44,2.71-.58,3.99.18.19.34.37.48.58.04.07.08.19.08.3,0,.21-.12.42-.44.42h-.1c-.4-.05-.87-.07-1.35-.07-1.65,0-3.54.21-4.47.35-.12.39-.2.7-.32,1.04-.08.21-.26.32-.44.32-.12,0-.26-.07-.34-.21-.38-.72-.46-1.18-.46-1.6,0-.32.06-.63.06-.97,0-1.48-.04-3.5-.14-4.69-.04-.51-.4-1.35-1.53-1.65-.04-.02-.06-.07-.06-.12,0-.14.1-.32.24-.37.12-.02.24-.02.38-.02.64,0,1.49.23,2.09.53,1.49-.21,2.88-.42,4.35-.67.42-.09.81-.21,1.25-.53.1-.07.16-.09.24-.09.06,0,.12.02.22.09.4.21,1.25.88,1.67,1.35.12.14.18.26.18.37ZM211.24,13.06c.22-2.6.28-3.71.34-5.57.02-.35-.14-.46-.36-.44-1.63.16-3.28.39-4.93.7.02,1.39.1,4.43.14,5.78,1.89-.19,3.18-.32,4.81-.46Z"/>
      <path class="cls-1" d="M235.65,9.81c0,.23-.12.46-.34.6-.22.16-.62.23-.97.23-1.93.07-9.18.39-12.33.84-.6.09-.72.12-1.09.32-.1.05-.18.09-.28.09-.08,0-.18-.05-.32-.16-.66-.53-1.17-1.46-1.33-2.39v-.05c0-.19.22-.37.34-.37.02,0,.06,0,.06.02.48.72.93,1,1.65,1.02h.36c2.01,0,7.33-.37,10.17-.67.85-.09,1.79-.23,2.58-.23.46,0,.89.05,1.17.21.22.12.32.32.32.53Z"/>
      <path class="cls-1" d="M243.07,9.05c-1.19,4.06-2.52,6.31-5.38,8.63-.06.05-.12.07-.18.07-.08,0-.14-.05-.14-.14,0-.05.02-.12.08-.16,1.41-1.55,3.46-4.11,4.21-9.28.02-.09.02-.19.02-.28,0-.44-.2-.65-.73-.88-.04,0-.06-.02-.06-.07,0-.14.28-.39.52-.56,1.07.12,1.81,1.04,2.05,1.48.04.07.08.16.08.26s-.02.19-.1.26c-.22.23-.28.32-.38.67ZM247.26,14.87c-.1.12-.2.16-.3.16-.12,0-.24-.07-.4-.16-.26-.19-.71-.65-.91-.93-.12-.16-.16-.3-.16-.44,0-.12.02-.26.06-.44.18-1.09.24-3.85.24-5.36v-.63c-.02-.86-.24-1.16-.89-1.42-.06-.02-.1-.05-.1-.12,0-.02.02-.05.06-.09.32-.35.58-.44.79-.44.12,0,.24.05.32.09.75.39,1.31.86,1.59,1.32.06.07.08.16.08.23,0,.09-.06.19-.14.28-.28.28-.38.39-.46.97-.14,1.11-.22,2.9-.22,3.97v.49c.02.35.08.46.24.46.06,0,.16-.02.28-.09,2.8-1.23,6.12-3.62,7.98-5.5.04-.02.08-.05.1-.05.08,0,.16.09.16.16,0,.05-.02.09-.04.12-2.38,3.02-4.83,4.8-6.85,6.36-.62.49-1.01.65-1.43,1.04Z"/>
      <path class="cls-1" d="M262.86,18.98h-.05c-.11,0-.16-.08-.16-.17,0-.06.05-.17.13-.19,2.46-.86,6.51-3.27,6.63-7.91v-.13c0-2.37-1.53-5.73-5.36-5.86-2.92-.11-6.43,2.37-6.4,6.13.02,1.09.4,2.35.97,3.34.18.31.35.5.55.5.16,0,.38-.15.66-.48,1.49-1.74,3.21-4.83,3.61-8.35.02-.13.09-.19.18-.19.07,0,.16.06.16.21v.25c0,4.41-2.2,7.77-3.17,9.11-.46.61-.95,1.3-1.48,1.78-.13.13-.24.17-.35.17-.16,0-.31-.15-.4-.38-.33-.82-.58-1.43-.97-2.33-.46-.99-.75-2.12-.75-3.25v-.11c.09-5.02,4.72-7.07,7.36-7.07h.09c3.15.06,6.6,2.52,6.65,6.78.04,2.92-1.64,6.57-7.91,8.14Z"/>
      <path class="cls-1" d="M281.04,13.53c-1.57-.02-3.13-.07-4.62-.15-1.27-.05-1.96-1.06-2-2.26-.02-.71-.04-1.42-.04-2.14s.02-1.4.04-2.01c.04-1.1.71-2.23,1.96-2.28,1.46-.05,3.05-.07,4.66-.07l-.02-4.03c0-.39.27-.59.52-.59.27,0,.54.2.54.59l-.02,4.03c1.63,0,3.28.02,4.8.07,1.09.02,1.8,1.06,1.86,2.11.04.64.04,1.37.04,2.11s0,1.5-.04,2.18c-.04,1.15-.79,2.21-1.98,2.28-1.53.1-3.13.15-4.68.15l.02,7.19c0,.37-.27.56-.54.56-.25,0-.52-.2-.52-.56l.02-7.19ZM281.04,5.82c-1.57,0-3.09.02-4.26.07-.86.02-1.32.79-1.36,1.57-.02.42-.02.98-.02,1.57,0,2.36.08,3.07,1.4,3.14,1.23.07,2.7.12,4.24.12v-6.48ZM282.06,12.3c1.5,0,2.99-.05,4.3-.12.82-.05,1.32-.64,1.34-1.57.02-.52.02-1.18.02-1.84,0-1.94-.04-2.8-1.38-2.87-1.19-.05-2.72-.07-4.28-.07v6.48Z"/>
      <path class="cls-1" d="M298.73,18.98h-.05c-.11,0-.16-.08-.16-.17,0-.06.05-.17.13-.19,2.46-.86,6.51-3.27,6.63-7.91v-.13c0-2.37-1.53-5.73-5.36-5.86-2.91-.11-6.43,2.37-6.4,6.13.02,1.09.4,2.35.97,3.34.18.31.35.5.55.5.16,0,.38-.15.66-.48,1.49-1.74,3.21-4.83,3.61-8.35.02-.13.09-.19.18-.19.07,0,.16.06.16.21v.25c0,4.41-2.2,7.77-3.17,9.11-.46.61-.95,1.3-1.48,1.78-.13.13-.24.17-.35.17-.16,0-.31-.15-.4-.38-.33-.82-.58-1.43-.97-2.33-.46-.99-.75-2.12-.75-3.25v-.11c.09-5.02,4.72-7.07,7.36-7.07h.09c3.15.06,6.6,2.52,6.65,6.78.04,2.92-1.64,6.57-7.91,8.14Z"/>
      <path class="cls-1" d="M323.51,7.24c-.22,0-.52-.09-.97-.19-.14-.02-.28-.05-.42-.05-.4,0-.79.14-1.11.39-.99.77-1.57,1.95-1.57,3.41v.16c.06,1.65.24,2.99.4,4.45,1.01.26,2.54,1.07,3.67,2.39.28.32.4.65.4.9,0,.28-.12.49-.28.67-.1.09-.26.16-.42.16-.2,0-.44-.12-.66-.39-.74-1.02-1.61-1.88-2.64-2.46v.16c0,2.39-1.35,3.2-2.88,3.2-.91,0-2.7-.39-2.7-2.18,0-1.58,1.75-2.76,3.63-2.76.22,0,.42,0,.62.02-.06-.65-.12-2.02-.16-2.76-.02-.23-.02-.46-.02-.67,0-1.09.14-2.02.68-2.95.93-1.55,2.07-2.2,2.42-2.48.12-.09.16-.19.16-.28,0-.12-.06-.23-.16-.32-.22-.21-.6-.37-1.13-.37-.38,0-.91.16-1.43.53-1.31.93-3.02,2.62-4.27,4.32-.58.74-1.99,2.71-3.02,4.78-.1.21-.28.3-.48.3-.14,0-.3-.07-.4-.21-.24-.3-.36-.67-.36-.95v-.05c.04-.67.46-.91.62-1.07.64-.72,1.35-1.65,1.87-2.48.74-1.18,1.67-2.64,2.58-5.27-.44.07-1.19.26-1.89.26-.3,0-.6-.05-.85-.14-.73-.28-1.11-.97-1.53-2.02-.02-.02-.02-.05-.02-.07,0-.09.04-.16.12-.16.02,0,.06.02.08.05.48.53.79.88,1.23,1.09.16.07.38.09.69.09.66,0,1.59-.16,2.6-.46.1-.51.18-.95.18-1.35,0-.67-.24-1.16-1.03-1.42-.04-.02-.06-.05-.06-.09,0-.07.06-.19.14-.19.14-.02.28-.05.4-.05.77,0,1.49.46,2.01,1.39.04.07.06.14.06.19,0,.07-.04.14-.1.21-.12.12-.26.35-.42.84.28-.12.56-.23.87-.39.08-.05.18-.07.28-.07.2,0,.42.09.56.23.14.14.24.35.24.56,0,.16-.06.32-.24.42-.24.14-1.07.49-2.26.81-.4,1.07-1.11,2.85-1.45,3.64,1.11-1.18,2.58-2.51,3.22-3.02,1.21-.93,1.91-1.16,2.8-1.16,1.07,0,2.09.46,2.78,1.44.14.23.22.46.22.7,0,.28-.1.51-.28.63-.1.05-.2.07-.32.07ZM318.63,16.49v-.3c-.34-.07-.66-.09-.99-.09-1.45,0-2.64.74-2.64,1.72,0,.84.77,1.28,1.71,1.28,1.59,0,1.91-1.42,1.91-2.6Z"/>
      <path class="cls-1" d="M10.75,50.29c-.1.02-.2.02-.3.02-1.59,0-2.66-.95-2.66-2.74,0-.3.04-.63.1-.97.2-1.02.6-3.41.7-3.92.06-.26.08-.49.08-.72,0-.84-.38-1.46-1.39-1.49h-.08c-.66,0-1.67.26-2.4,1.49-1.01,1.67-2.8,6.54-3.42,8.24-.14.39-.36.72-.6.72-.1,0-.22-.07-.34-.26-.18-.26-.32-.72-.32-1.14,0-.23.04-.46.14-.63.2-.28.58-.93.76-1.32,2.05-4.34,5.94-12,6.77-14.04.08-.19.12-.39.12-.58,0-.46-.22-.86-.66-.93-.08,0-.14-.09-.14-.19,0-.05.02-.09.06-.14.24-.16.5-.26.77-.26.34,0,.7.16.95.46.22.23.7.81.7,1.32,0,.16-.06.32-.2.46-.42.37-.79.81-1.07,1.35-.28.53-2.4,4.29-2.84,5.29.62-.42,1.41-.58,1.93-.58h.08c1.51.05,2.36.88,2.54,2.06.02.14.02.26.02.37,0,.86-.48,1.58-.99,4.41-.06.3-.08.58-.08.81,0,1.32.79,1.67,1.75,1.67h.22c1.19-.07,2.44-.42,4.39-1.53t.04-.02c.08,0,.12.07.12.16,0,.02,0,.07-.02.09-1.45,1.37-2.8,2.37-4.73,2.51Z"/>
      <path class="cls-1" d="M32.26,33.75c0,.28-.14.53-.5.53-.18,0-1.89-.21-3.2.37-1.45.65-4.01,3.16-3.99,7.56,0,1.76.44,4.45,4.91,6.03.26.09.44.07.64.14.32.14.54.53.54.88,0,.07,0,.12-.02.16-.08.46-.4.63-.75.63-.16,0-.34-.05-.5-.09-2.44-.79-5.82-2.69-5.86-7.38-.02-3.57,2.24-6.59,3.3-7.63.06-.05.08-.09.08-.12,0-.05-.02-.05-.06-.05-.02,0-.06,0-.1.02-1.91.77-3.73,1.76-5.54,3.06-.44.3-.58.65-1.09.65-.16,0-.36-.02-.6-.12-.76-.21-1.39-1.14-1.53-1.46,0-.02-.02-.07-.02-.14,0-.12.04-.26.18-.35.46.37.91.56,1.37.56.28,0,.56-.07.85-.19,1.77-.74,4.21-2.02,7.05-3.13.73-.3,1.11-.6,1.55-.97.2-.16.38-.23.58-.23.08,0,.14,0,.22.02.77.12,1.51.32,2.22.72.16.09.26.3.26.51ZM29.95,42.31c-.22,0-.44-.19-.58-.53-.36-1-.7-1.88-1.55-3.06-.02-.02-.04-.05-.04-.09s.04-.09.1-.09c.02,0,.04,0,.08.02.83.35,1.67.9,2.18,1.67.32.49.44.88.44,1.21s-.12.58-.26.72c-.1.12-.24.16-.36.16ZM32.97,40.66c-.22,0-.46-.16-.7-.84-.18-.53-.83-1.88-1.51-2.78-.04-.05-.06-.09-.06-.14s.04-.09.1-.09c.04,0,.06,0,.1.02.93.35,1.63.88,2.2,1.62.38.46.52.95.52,1.32,0,.44-.18.74-.42.84-.08.02-.14.05-.22.05Z"/>
      <path class="cls-1" d="M48.24,46.63c0,2.16-.89,3.94-3.16,3.97-1.93,0-2.82-2.04-2.82-4.29,0-.63.08-1.3.22-1.93-.97-.58-1.73-.9-2.66-1.18-.68-.21-1.17-.63-1.17-1.3,0-.3.1-.65.32-1.07.44-.81,1.45-2.48,1.87-3.48.14-.3.22-.53.22-.72,0-.14-.04-.28-.14-.42-.38-.49-1.03-.95-2.2-1.35-.06-.02-.1-.09-.1-.14,0-.07.06-.14.14-.16.36-.07.68-.12.99-.12.91,0,1.59.32,2.03.72.34.28.54.63.62.86.04.14.06.28.06.39,0,.37-.18.63-.44.74-.34.14-.52.32-.81.77-.5.77-1.01,1.72-1.33,2.44-.14.3-.22.6-.22.88,0,.32.12.63.44.79.68.39,1.85.58,2.68.97.38-1.39,1.59-4.39,1.97-5.87.16-.65.34-1.35.34-2.18s-.16-1.79-.64-3.02c-.02-.02-.02-.07-.02-.09,0-.14.1-.21.22-.21.06,0,.12.02.18.07.89,1.02,1.41,2.51,1.61,3.06.08.26.12.49.12.65,0,.21-.06.39-.16.56-.18.23-.36.6-.56,1.04-.7,1.6-1.85,4.34-2.42,6.36.3.26.44.53.44.84,0,.05,0,.09-.02.14-.04.28-.32.39-.56.39-.06,0-.12,0-.18-.02-.12.6-.18,1.11-.18,1.58s.06.88.16,1.28c.3,1.18,1.15,1.53,1.87,1.53h.08c1.69-.07,2.07-1.81,2.07-3.36,0-1.86-.6-3.71-1.69-5.36-.02-.05-.04-.07-.04-.12,0-.09.06-.16.14-.16.04,0,.08.02.12.05,1.55,1.65,2.5,4.2,2.58,6.15v.32Z"/>
      <path class="cls-1" d="M68.59,37.92c-.22,0-.52-.09-.97-.19-.14-.02-.28-.05-.42-.05-.4,0-.79.14-1.11.39-.99.77-1.57,1.95-1.57,3.41v.16c.06,1.65.24,2.99.4,4.45,1.01.26,2.54,1.07,3.67,2.39.28.32.4.65.4.9,0,.28-.12.49-.28.67-.1.09-.26.16-.42.16-.2,0-.44-.12-.66-.39-.75-1.02-1.61-1.88-2.64-2.46v.16c0,2.39-1.35,3.2-2.88,3.2-.91,0-2.7-.39-2.7-2.18,0-1.58,1.75-2.76,3.63-2.76.22,0,.42,0,.62.02-.06-.65-.12-2.02-.16-2.76-.02-.23-.02-.46-.02-.67,0-1.09.14-2.02.68-2.95.93-1.55,2.07-2.2,2.42-2.48.12-.09.16-.19.16-.28,0-.12-.06-.23-.16-.32-.22-.21-.6-.37-1.13-.37-.38,0-.91.16-1.43.53-1.31.93-3.02,2.62-4.27,4.32-.58.74-1.99,2.71-3.02,4.78-.1.21-.28.3-.48.3-.14,0-.3-.07-.4-.21-.24-.3-.36-.67-.36-.95v-.05c.04-.67.46-.91.62-1.07.64-.72,1.35-1.65,1.87-2.48.75-1.18,1.67-2.64,2.58-5.27-.44.07-1.19.26-1.89.26-.3,0-.6-.05-.85-.14-.72-.28-1.11-.97-1.53-2.02-.02-.02-.02-.05-.02-.07,0-.09.04-.16.12-.16.02,0,.06.02.08.05.48.53.79.88,1.23,1.09.16.07.38.09.68.09.66,0,1.59-.16,2.6-.46.1-.51.18-.95.18-1.35,0-.67-.24-1.16-1.03-1.42-.04-.02-.06-.05-.06-.09,0-.07.06-.19.14-.19.14-.02.28-.05.4-.05.77,0,1.49.46,2.01,1.39.04.07.06.14.06.19,0,.07-.04.14-.1.21-.12.12-.26.35-.42.84.28-.12.56-.23.87-.39.08-.05.18-.07.28-.07.2,0,.42.09.56.23.14.14.24.35.24.56,0,.16-.06.32-.24.42-.24.14-1.07.49-2.26.81-.4,1.07-1.11,2.85-1.45,3.64,1.11-1.18,2.58-2.51,3.22-3.02,1.21-.93,1.91-1.16,2.8-1.16,1.07,0,2.09.46,2.78,1.44.14.23.22.46.22.7,0,.28-.1.51-.28.63-.1.05-.2.07-.32.07ZM63.71,47.18v-.3c-.34-.07-.66-.09-.99-.09-1.45,0-2.64.74-2.64,1.72,0,.84.76,1.28,1.71,1.28,1.59,0,1.91-1.42,1.91-2.6Z"/>
      <path class="cls-1" d="M88.79,41.87c0,.32-.04.6-.12.88-.12.35-.3.56-.56.67-.08.02-.18.05-.26.05-.3,0-.58-.23-.66-.63-.14-.93-.28-2.13-.79-3.18-.42-.88-1.15-1.46-1.95-1.46-.4,0-.83.14-1.23.46-1.83,1.42-2.74,4.11-3,6.64v.14c0,.39.2.6.38.77.18.16.28.39.28.63,0,.26-.1.49-.32.63-.28.19-.6.28-.99.28-.22,0-.48-.02-.77-.09-1.27-.3-4.41-2.02-4.41-5.68v-.09c.02-1.14.16-2.48.3-3.53.02-.09.02-.21.02-.32,0-.81-.42-1.65-1.33-1.65v-.07c0-.23.12-.37.24-.42.22-.07.44-.09.64-.09.79,0,1.51.42,1.99,1.09.12.19.18.42.18.63,0,.16-.04.35-.12.49-.12.23-.22.19-.42.7-.36,1.04-.54,2.09-.54,3.16,0,.09,0,.21.02.32.06,2.25,1.93,3.6,2.96,3.73.1.02.18.02.26.02.42,0,.52-.23.66-.7.52-1.67.95-5.06,3.4-7.1.72-.6,1.49-.88,2.22-.88,1.19,0,2.3.7,3.02,1.83.48.74.89,1.83.89,2.78Z"/>
      <path class="cls-1" d="M99.78,33.83v2.65c.59,0,1.21.02,1.88.05,1.21.05,1.86,1.13,1.88,2.11.02.79.04,2.01.04,3.22s-.02,2.38-.04,3.12c-.04,1.38-.75,2.23-1.94,2.28-.9.05-1.65.07-2.4.07-.63,0-1.29-.02-2.03-.07-1.27-.07-1.96-.98-1.98-2.26-.02-.69-.02-1.67-.02-2.68,0-1.38,0-2.8.02-3.61.02-1.03.61-2.14,1.92-2.19.59-.02,1.17-.02,1.73-.02v-2.68h-6.27c-.33,0-.48-.29-.48-.61,0-.29.15-.61.48-.61h13.64c.33,0,.48.29.48.61,0,.29-.15.61-.48.61h-6.43ZM105.41,38.15c0-.39.25-.59.5-.59.27,0,.52.22.54.64.04,1.08.04,2.77.04,4.57s0,3.63-.04,5.11c-.04,1.94-.96,2.9-2.49,2.97-1.34.07-3.11.1-4.83.1s-3.4-.02-4.58-.1c-1.5-.07-2.24-1.03-2.26-2.9-.02-1.45-.02-3.12-.02-4.81s0-3.44.02-5.01c0-.42.25-.59.48-.59.27,0,.52.2.52.56v.02c-.02,1.35-.02,3.12-.02,4.81s0,3.39.02,4.62c.02,1.37.46,2.04,1.67,2.11,1.15.05,2.76.1,4.37.1s3.22-.05,4.32-.1c1.09-.05,1.75-.64,1.78-2.04.04-1.4.06-3.24.06-5.06,0-1.57-.02-3.12-.06-4.39v-.02ZM98.84,37.51c-1.8,0-2.65,0-2.72,1.55-.02.47-.04,1.25-.04,2.11h2.76v-3.66ZM98.84,42.2h-2.76c0,1.03.02,2.01.04,2.58.06,1.47.81,1.52,2.72,1.52v-4.1ZM102.59,41.17q0-3.66-2.82-3.66v3.66h2.82ZM99.78,42.2v4.1c1.94,0,2.72,0,2.78-1.55.02-.56.04-1.52.04-2.55h-2.82Z"/>
      <path class="cls-1" d="M111.82,51.36l.25-14.19c-1.94,3.22-2.44,3.27-2.57,3.27-.27,0-.5-.27-.5-.59,0-.15.06-.32.19-.47,2.07-2.46,3.41-4.91,4.66-8.32.1-.27.27-.39.44-.39.29,0,.58.32.58.71s-1.02,2.55-1.78,3.98l-.23,16.01c0,.42-.27.64-.54.61-.25.02-.5-.2-.5-.59v-.02ZM120.13,40.17c-.38.39-.75.79-1.09,1.11,1.65,1.25,2.47,4,2.47,6.46s-.77,4.27-2.99,4.27c-.81,0-1.42-.1-1.42-.74,0-.29.13-.59.38-.59.04,0,.08,0,.12.02.29.1.58.15.86.15,1.52,0,2.15-1.13,2.15-3.39,0-.49-.04-1.01-.12-1.52-3.22,3.93-6.25,4.84-6.27,4.84-.29,0-.46-.32-.46-.64,0-.25.1-.47.31-.54,2.32-.81,4.37-2.5,6.21-4.74-.13-.52-.33-1.01-.58-1.45-2.74,2.85-5.22,3.76-5.33,3.76-.27,0-.44-.29-.44-.59,0-.2.1-.42.31-.49,1.98-.76,3.55-1.82,4.99-3.41-.25-.32-.56-.59-.88-.81-1.4,1.18-3.57,2.19-3.99,2.19-.27,0-.42-.27-.42-.54,0-.25.12-.47.33-.54,2.01-.64,3.3-1.42,4.7-2.75h-1.73c-1.67-.02-1.78-.69-1.78-2.26,0-.44.02-.88.04-1.15,0-.1.02-.17.04-.27-1.09,1.33-1.3,1.4-1.46,1.4-.25,0-.44-.27-.44-.56,0-.17.06-.37.21-.49,1.55-1.35,2.93-3.49,3.93-5.97.1-.25.25-.34.42-.34.25,0,.52.27.52.59,0,.27-.5,1.18-.52,1.23.84,0,2.53-.02,2.74-.02.59.05.92.54.92,1.08,0,.29-.06.66-.9,1.94h2.36c1.63.05,1.65,1.13,1.65,2.21,0,1.74-.02,2.6-1.65,2.63-.31,0-.65.02-1,.02.08,1.23.23,2.45.5,3.61.79-.52,1.8-1.33,2.36-1.94.1-.1.19-.15.29-.15.25,0,.48.32.48.66,0,.25-.1.81-2.86,2.41.58,1.89,1.48,3.56,2.86,4.71.15.12.23.32.23.49,0,.34-.25.69-.56.69-.56,0-3.74-3.12-4.1-10.51-.73-.02-1.32-.05-1.32-.05h-.06ZM119.9,35.38c.69-1.03.9-1.47.9-1.74,0-.2-.13-.32-.4-.32-.19,0-2.01.02-2.74.05-.44.79-.92,1.52-1.4,2.21.23-.12.54-.2.9-.2h2.74ZM119.63,36.36h-2.26c-.98,0-1,.56-1,1.62,0,.93.08,1.28,1.02,1.28.65,0,1.44.02,2.24.02v-2.92ZM120.53,39.28c.9,0,1.8,0,2.57-.02.63,0,.9-.25.92-.71v-.96c0-.74-.02-1.23-.96-1.23-.77,0-1.65-.02-2.53-.02v2.95Z"/>
      <path class="cls-1" d="M143.51,37.95c0,.21-.1.35-.2.37-2.9,1.09-5.58,3.46-6.34,4.15-1.03,1.35-.95,3.36-1.05,4.38-.02.32-.26.67-.62.7-.28,0-.54-.23-.54-.56,0-.05.02-.09.02-.12.12-.65.44-2.39.54-3.29-1.25,1.04-2.46,2.13-2.46,3.71,0,.07.02.14.02.23.12,1.69,2.38,1.93,3.24,1.93,1.35,0,2.62-.14,3.93-.56.14-.05.24-.14.42-.14.06,0,.16.02.24.07.56.26.68.63.68.86,0,.12-.02.21-.04.28-.16.3-.4.44-.83.53-1.27.26-2.52.42-3.77.42-.2,0-.42,0-.62-.02-1.57-.07-3.95-.58-4.05-3.29,0-.05-.02-.09-.02-.14,0-2.07,1.91-3.76,3.32-4.87.04-.42.04-.81.04-1.14,0-.51-.02-.93-.12-1.21-.14-.42-.44-.65-.79-.65-.28,0-.58.14-.87.44-.44.49-.99,1.21-1.33,1.69-.14.21-.34.3-.54.3-.1,0-.2-.02-.28-.07-.18-.07-.36-.23-.38-.51,0-.21.1-.3.22-.46.26-.3.38-.42.89-1.14.85-1.21,1.85-2.76,2.48-4.76-1.47.02-2.64-1.16-2.98-2.71,0-.02-.02-.05-.02-.07,0-.09.06-.14.14-.14.04,0,.08.02.12.09.81,1.32,1.89,1.49,2.64,1.49.18,0,.32,0,.46-.02.08-.35.12-.58.14-.79v-.16c0-.46-.24-1-1.31-1.35-.06,0-.08-.05-.08-.09,0-.12.08-.23.16-.26.18-.07.38-.09.56-.09.75,0,1.49.42,1.85,1,.08.14.1.26.1.35,0,.14-.04.26-.08.37-.1.19-.22.42-.32.79.52-.12.97-.37,1.25-.53.02-.02.04-.02.06-.02.06,0,.12.07.12.16v.09c-.34.86-1.27,1.58-1.95,1.76-.46,1.44-1.27,3.18-1.63,3.97-.02.05-.04.09-.04.12,0,.05.02.07.06.07.02,0,.04,0,.06-.02.34-.16.64-.23.91-.23.62,0,1.07.42,1.21,1.04.12.46.16,1.07.16,1.79v.19c1.51-1.11,3.67-2.88,5.01-4.45.18-.23.44-.32.7-.32h.2c1.03.21,1.29.58,1.29.86Z"/>
      <path class="cls-1" d="M146.81,51.95c-.33,0-.52-.32-.52-.66,0-.27.15-.54.46-.59,2.7-.47,4.62-2.28,5.52-4.91.1-.32.27-.44.44-.44.27,0,.54.32.54.69,0,.1,0,.17-.04.27-1.73,5.03-6.33,5.65-6.41,5.65ZM154.6,44.76c-1.07,0-2.13-.02-3.03-.07-1.4-.07-2.07-1.03-2.11-2.36-.02-1.11-.04-2.73-.04-4.32s.02-3.19.04-4.15c.02-1.11.63-2.28,1.96-2.33.81-.02,1.75-.05,2.72-.05,1.19,0,2.42.02,3.51.05,1.13.02,1.8,1.03,1.84,2.14.04,1.15.04,2.75.04,4.32s0,3.17-.04,4.32c-.04,1.37-.81,2.33-1.96,2.38-.38.02-.77.05-1.17.05-.02,1.08-.04,2.53-.04,3.44,0,1.4.04,2.18,2.3,2.18,1.82,0,2.88-.39,2.88-3.07,0-.44.25-.66.5-.66.29,0,.59.27.59.69,0,4.2-2.36,4.22-4.05,4.22-1.48,0-3.2-.15-3.24-2.65,0-.71,0-2.8.02-4.12h-.73ZM158.55,36.61h-8.15c0,.93.02,1.94.02,2.87h8.13v-2.87ZM158.53,35.58c0-2.04,0-2.9-1.34-2.95-.69-.02-1.69-.05-2.7-.05s-2.01.02-2.76.05c-.84.02-1.25.64-1.29,1.5-.02.39-.02.88-.02,1.45h8.11ZM150.41,40.51c0,2.38,0,3.02,1.32,3.09.9.05,1.88.07,2.88.07.86,0,1.75-.02,2.59-.07,1.32-.07,1.32-.86,1.32-3.09h-8.11Z"/>
      <path class="cls-1" d="M178.49,44.63c0,2.07-1.47,5.1-5.78,5.17-1.33.02-3.02-.51-3.02-1.93v-.05c.02-.65.52-1.18.93-1.39.36-.21.79-.3,1.17-.3.12,0,.22,0,.32.02,1.07.16,2.13.84,2.62,2.23,1.31-.65,2.26-2.11,2.3-3.76v-.14c0-2.11-1.21-3.48-3.16-3.43-1.47.02-3.32.51-5.66,5.17-.1.19-.22.28-.36.28s-.28-.09-.36-.26c-.24-.49-.38-.86-.38-1.18,0-.28.1-.53.34-.81.48-.51.93-1.07,1.35-1.67,1.83-2.6,4.53-6.26,5.18-7.7.08-.16.12-.32.12-.46,0-.23-.1-.39-.36-.39-.06,0-.12,0-.18.02-.38.09-1.71,1-2.7,1.9-.16.14-.18.3-.34.44-.06.05-.14.09-.24.09-.08,0-.18-.02-.3-.12-.32-.19-1.17-1-1.17-1.9,0-.21.04-.42.12-.6.04-.09.12-.16.2-.16.04,0,.08.02.1.09.26.81.62,1.02.95,1.02.14,0,.26-.05.36-.09,1.03-.53,2.01-1.11,3-1.79.2-.12.38-.26.56-.39.1-.09.22-.14.32-.14.14,0,.28.07.42.19.54.46,1.11,1.09,1.51,1.72.06.09.08.21.08.3,0,.16-.08.28-.2.35-.5.21-.87.39-1.29.93-1.21,1.53-2.96,3.81-3.81,5.1-.02.05-.04.07-.04.09,0,.05.02.07.06.07.02,0,.04,0,.06-.02.97-.58,1.99-.88,3.04-.88,1.83.02,4.15,1.28,4.23,4.25.02.05.02.09.02.14ZM172.47,48.97c.36,0,.71-.05.93-.09-.12-.44-.54-1.39-1.29-1.72-.18-.09-.4-.14-.6-.14-.44,0-.87.21-1.05.65-.02.09-.04.16-.04.23,0,.23.12.44.3.58.44.37,1.15.49,1.75.49Z"/>
      <path class="cls-1" d="M182.83,48.78c0-1.57,1.02-2.85,2.24-2.85s2.22,1.28,2.22,2.85-1,2.87-2.22,2.87-2.24-1.3-2.24-2.87ZM186.65,48.78c0-1.1-.71-2.01-1.57-2.01s-1.59.91-1.59,2.01.73,2.04,1.59,2.04,1.57-.93,1.57-2.04Z"/>
    </g>
    <g>
      <path class="cls-2" d="M5.49,74.59l4.11-8.59h1.5l-4.94,10.05v7.77h-1.29v-7.65l-4.87-10.17h1.48l4.02,8.59Z"/>
      <path class="cls-2" d="M14.9,84.16c-.63-.02-1.22-.16-1.77-.45s-1.03-.7-1.44-1.26c-.41-.56-.74-1.26-.98-2.1-.24-.84-.36-1.82-.36-2.95,0-.94.09-1.82.28-2.64.19-.82.47-1.53.85-2.14.38-.61.85-1.09,1.42-1.45.57-.35,1.23-.53,1.99-.53s1.44.18,2.01.53,1.04.83,1.42,1.44c.38.6.66,1.32.84,2.14.18.83.27,1.71.27,2.65,0,1.02-.11,1.95-.32,2.77-.21.83-.52,1.53-.92,2.13s-.88,1.05-1.44,1.37c-.56.32-1.18.48-1.87.48ZM18.23,77.41c0-.76-.06-1.47-.19-2.13-.13-.66-.32-1.23-.59-1.72-.27-.49-.61-.87-1.02-1.15-.42-.28-.93-.42-1.53-.42s-1.1.15-1.52.46c-.42.31-.77.71-1.03,1.21-.27.5-.46,1.08-.59,1.73s-.19,1.32-.19,2.02c0,.79.07,1.52.22,2.19s.36,1.24.63,1.72c.28.48.62.85,1.04,1.11.42.26.9.4,1.44.4.59,0,1.1-.15,1.52-.46.42-.3.77-.71,1.03-1.23.27-.51.46-1.09.59-1.73.13-.64.19-1.31.19-2Z"/>
      <path class="cls-2" d="M27.99,71h1.14v12.82h-1.14v-1.78c-.15.23-.32.47-.51.72-.19.25-.41.47-.65.68-.25.21-.53.38-.86.52-.33.14-.71.21-1.14.21-.66,0-1.21-.12-1.65-.36-.44-.24-.8-.57-1.07-1-.27-.43-.47-.93-.59-1.5-.12-.57-.18-1.19-.18-1.87v-8.44h1.14v8.41c0,1.11.2,1.95.59,2.54.39.59,1.04.88,1.93.88.47,0,.89-.12,1.26-.36.37-.24.68-.57.94-1,.25-.43.45-.94.59-1.53.14-.59.21-1.25.21-1.96v-6.98Z"/>
      <path class="cls-2" d="M42.06,76.34c.21-.03.47-.08.77-.15.3-.07.54-.16.73-.27.19-.11.31-.31.35-.58.04-.27.07-.52.07-.75,0-.76-.19-1.38-.56-1.87-.37-.49-1-.73-1.88-.73-.39,0-.75.05-1.08.14-.33.09-.62.25-.86.47-.25.22-.45.52-.61.89s-.26.84-.31,1.4h-1.16c.04-.76.17-1.41.4-1.94.23-.54.52-.97.88-1.31.36-.34.78-.59,1.25-.74s.98-.24,1.51-.24c.49,0,.96.07,1.39.21.44.14.81.36,1.14.67.32.31.57.71.76,1.23.18.51.27,1.14.27,1.88v6.98c0,.58.08.94.24,1.1.16.16.48.12.96-.11v1.16c-.09.03-.22.08-.39.15s-.34.1-.5.1c-.18,0-.35-.02-.51-.07-.19-.03-.34-.11-.45-.24-.11-.12-.21-.27-.27-.45-.07-.17-.12-.36-.14-.57-.03-.21-.04-.42-.04-.66-.48.69-1.03,1.22-1.65,1.58-.62.36-1.29.54-2.01.54-.43,0-.84-.07-1.24-.22-.4-.15-.75-.38-1.05-.69-.3-.31-.54-.7-.72-1.15-.18-.45-.27-.99-.27-1.62,0-2.18,1.14-3.46,3.43-3.86l1.57-.27ZM43.97,77.09c-.48.26-.97.44-1.46.52-.49.08-.98.15-1.48.2-.87.08-1.55.34-2.04.77-.49.43-.73,1.08-.73,1.96,0,.4.06.74.18,1.03.12.29.28.53.47.72.2.19.42.33.68.42.26.09.52.14.79.14.45,0,.9-.07,1.33-.22.43-.15.81-.38,1.15-.68.33-.3.6-.69.8-1.16.2-.47.3-1.03.3-1.67v-2Z"/>
      <path class="cls-2" d="M49.04,83.82h-1.14v-12.82h1.14v2.4h.04c.32-1.02.72-1.74,1.22-2.14.5-.4,1.16-.61,1.98-.61v1.61c-.64-.02-1.17.12-1.59.4-.42.28-.75.66-.99,1.14-.25.48-.42,1.04-.51,1.7-.09.65-.14,1.33-.14,2.04v6.29Z"/>
      <path class="cls-2" d="M54.24,77.76c0,.69.07,1.35.21,1.97.14.62.34,1.16.62,1.61.27.45.62.82,1.03,1.09.42.27.9.41,1.44.41.74,0,1.38-.26,1.91-.77.53-.51.88-1.24,1.06-2.18h1.27c-.14.61-.32,1.18-.55,1.7-.23.52-.51.97-.85,1.36-.34.39-.75.69-1.21.9-.47.21-1.01.32-1.63.32-.78,0-1.46-.17-2.03-.52-.57-.35-1.04-.82-1.4-1.42-.37-.6-.64-1.31-.81-2.13s-.27-1.7-.27-2.64.1-1.82.31-2.65c.21-.82.51-1.55.89-2.17.39-.62.86-1.11,1.41-1.46.56-.35,1.19-.53,1.89-.53,1.35,0,2.41.61,3.18,1.82.77,1.21,1.15,2.97,1.14,5.28h-7.61ZM60.64,76.52c0-.63-.07-1.22-.2-1.77-.13-.55-.33-1.03-.59-1.44-.26-.4-.58-.73-.98-.97-.39-.24-.84-.36-1.34-.36s-.95.12-1.33.37c-.39.25-.71.58-.99.99s-.49.89-.65,1.44c-.16.54-.27,1.12-.32,1.73h6.4Z"/>
      <path class="cls-2" d="M70.89,83.82h-1.14v-12.82h1.14v1.78c.45-.63.92-1.14,1.41-1.53.49-.4,1.07-.59,1.75-.59.61,0,1.17.14,1.69.41s.95.75,1.31,1.42c.24.46.38.94.43,1.42.04.49.07.99.07,1.52v8.39h-1.14v-8.36c0-1.16-.2-2.02-.59-2.6-.39-.58-1.04-.87-1.95-.87-.35,0-.68.07-.97.21-.29.14-.55.33-.79.56-.23.23-.43.5-.6.79-.16.3-.29.61-.38.94-.11.41-.18.81-.21,1.19-.03.38-.04.79-.04,1.24v6.9Z"/>
      <path class="cls-2" d="M83.99,84.16c-.63-.02-1.22-.16-1.77-.45s-1.03-.7-1.44-1.26c-.41-.56-.74-1.26-.98-2.1-.24-.84-.36-1.82-.36-2.95,0-.94.09-1.82.28-2.64.19-.82.47-1.53.85-2.14.38-.61.85-1.09,1.42-1.45s1.23-.53,1.99-.53,1.44.18,2.01.53c.57.35,1.04.83,1.42,1.44.38.6.66,1.32.84,2.14.18.83.27,1.71.27,2.65,0,1.02-.11,1.95-.32,2.77-.21.83-.52,1.53-.92,2.13s-.88,1.05-1.44,1.37-1.18.48-1.87.48ZM87.32,77.41c0-.76-.06-1.47-.19-2.13-.13-.66-.32-1.23-.59-1.72-.27-.49-.61-.87-1.02-1.15-.42-.28-.93-.42-1.53-.42s-1.1.15-1.52.46c-.42.31-.77.71-1.03,1.21-.27.5-.46,1.08-.59,1.73-.13.65-.19,1.32-.19,2.02,0,.79.07,1.52.22,2.19s.36,1.24.63,1.72c.28.48.62.85,1.04,1.11s.9.4,1.44.4c.59,0,1.1-.15,1.52-.46.42-.3.77-.71,1.03-1.23.27-.51.46-1.09.59-1.73.13-.64.19-1.31.19-2Z"/>
      <path class="cls-2" d="M98.57,81.84l2.58-10.84h1.16l-3.18,12.82h-1.21l-2.14-10.77h-.04l-2.18,10.77h-1.36l-2.99-12.82h1.14l2.54,10.94,2.27-10.94h1.27l2.16,10.84Z"/>
      <path class="cls-2" d="M109.8,83.82v-17.82h1.14v17.82h-1.14Z"/>
      <path class="cls-2" d="M117.51,84.16c-.63-.02-1.22-.16-1.77-.45s-1.03-.7-1.44-1.26c-.41-.56-.74-1.26-.98-2.1-.24-.84-.36-1.82-.36-2.95,0-.94.09-1.82.28-2.64s.47-1.53.85-2.14c.38-.61.85-1.09,1.42-1.45s1.23-.53,1.99-.53,1.44.18,2.01.53c.57.35,1.04.83,1.42,1.44.38.6.66,1.32.84,2.14s.27,1.71.27,2.65c0,1.02-.11,1.95-.32,2.77-.22.83-.52,1.53-.92,2.13-.4.59-.88,1.05-1.44,1.37-.56.32-1.18.48-1.87.48ZM120.84,77.41c0-.76-.06-1.47-.19-2.13-.13-.66-.32-1.23-.59-1.72-.27-.49-.61-.87-1.02-1.15-.42-.28-.93-.42-1.53-.42s-1.1.15-1.52.46c-.42.31-.77.71-1.03,1.21-.27.5-.46,1.08-.59,1.73-.13.65-.19,1.32-.19,2.02,0,.79.07,1.52.22,2.19.14.67.36,1.24.63,1.72.28.48.63.85,1.04,1.11s.9.4,1.44.4c.59,0,1.1-.15,1.52-.46.42-.3.77-.71,1.03-1.23.27-.51.46-1.09.59-1.73s.19-1.31.19-2Z"/>
      <path class="cls-2" d="M128.01,84.16c-.63-.02-1.22-.16-1.77-.45s-1.03-.7-1.44-1.26c-.41-.56-.74-1.26-.98-2.1-.24-.84-.36-1.82-.36-2.95,0-.94.09-1.82.28-2.64.19-.82.47-1.53.85-2.14.38-.61.85-1.09,1.42-1.45s1.23-.53,1.99-.53,1.44.18,2.01.53c.57.35,1.04.83,1.42,1.44.38.6.66,1.32.84,2.14.18.83.27,1.71.27,2.65,0,1.02-.11,1.95-.32,2.77-.21.83-.52,1.53-.92,2.13s-.88,1.05-1.44,1.37-1.18.48-1.87.48ZM131.34,77.41c0-.76-.06-1.47-.19-2.13-.13-.66-.32-1.23-.59-1.72-.27-.49-.61-.87-1.02-1.15-.42-.28-.93-.42-1.53-.42s-1.1.15-1.52.46c-.42.31-.77.71-1.03,1.21-.27.5-.46,1.08-.59,1.73-.13.65-.19,1.32-.19,2.02,0,.79.07,1.52.22,2.19s.36,1.24.63,1.72c.28.48.62.85,1.04,1.11s.9.4,1.44.4c.59,0,1.1-.15,1.52-.46.42-.3.77-.71,1.03-1.23.27-.51.46-1.09.59-1.73.13-.64.19-1.31.19-2Z"/>
      <path class="cls-2" d="M134.44,83.82v-17.82h1.14v11.09l4.81-6.09h1.55l-3.67,4.63,4.11,8.19h-1.27l-3.67-7.15-1.86,2.3v4.85h-1.14Z"/>
      <path class="cls-2" d="M143.9,68.2v-2.2h1.25v2.2h-1.25ZM143.95,83.82v-12.82h1.14v12.82h-1.14Z"/>
      <path class="cls-2" d="M148.76,83.82h-1.14v-12.82h1.14v1.78c.45-.63.92-1.14,1.41-1.53.49-.4,1.07-.59,1.75-.59.61,0,1.17.14,1.69.41s.95.75,1.31,1.42c.24.46.38.94.43,1.42.04.49.07.99.07,1.52v8.39h-1.14v-8.36c0-1.16-.2-2.02-.59-2.6-.39-.58-1.04-.87-1.95-.87-.35,0-.68.07-.97.21-.29.14-.55.33-.79.56-.23.23-.43.5-.6.79-.16.3-.29.61-.38.94-.11.41-.18.81-.21,1.19-.03.38-.04.79-.04,1.24v6.9Z"/>
      <path class="cls-2" d="M165.35,71h1.14v11.58c0,.86-.07,1.68-.2,2.46s-.37,1.47-.71,2.07-.81,1.07-1.4,1.42c-.59.35-1.36.53-2.29.53-.72,0-1.34-.12-1.86-.36s-.94-.54-1.27-.9c-.33-.36-.58-.76-.75-1.2s-.26-.85-.27-1.22h1.21c.09.48.23.87.42,1.18.19.3.41.54.67.72.26.17.55.29.86.36.32.07.64.1.99.1.77,0,1.39-.17,1.86-.52.47-.35.82-.8,1.06-1.36.24-.56.39-1.2.46-1.91s.1-1.44.09-2.18c-.37.79-.87,1.39-1.51,1.79s-1.3.61-2,.61c-.75,0-1.39-.19-1.94-.56-.55-.37-1-.87-1.36-1.49-.36-.62-.63-1.34-.8-2.17-.18-.82-.27-1.68-.27-2.57,0-.94.08-1.82.25-2.65.16-.82.43-1.54.79-2.14.36-.6.82-1.08,1.37-1.42.56-.35,1.23-.52,2.03-.52.32,0,.64.06.97.17.33.12.65.28.96.49.31.21.59.49.85.82s.47.7.63,1.11h.04v-2.25ZM165.35,77.46c0-.78-.07-1.5-.22-2.17s-.36-1.25-.63-1.73c-.28-.49-.62-.87-1.04-1.15-.42-.28-.89-.42-1.42-.42-.48,0-.92.11-1.33.33-.4.22-.76.55-1.06.98-.3.43-.54.95-.71,1.57-.17.62-.26,1.33-.26,2.14-.03.81.02,1.56.15,2.26.13.7.33,1.32.61,1.84.28.53.63.94,1.06,1.25.43.31.94.46,1.53.46.52,0,.98-.14,1.39-.43.41-.29.76-.68,1.04-1.16.28-.49.5-1.06.65-1.71.15-.65.23-1.34.23-2.07Z"/>
      <path class="cls-2" d="M179.54,76.34c.21-.03.47-.08.77-.15.3-.07.54-.16.73-.27.19-.11.31-.31.35-.58.04-.27.07-.52.07-.75,0-.76-.19-1.38-.56-1.87-.37-.49-1-.73-1.88-.73-.39,0-.75.05-1.08.14-.33.09-.62.25-.86.47-.25.22-.45.52-.61.89s-.26.84-.31,1.4h-1.16c.04-.76.17-1.41.4-1.94.23-.54.52-.97.88-1.31.36-.34.78-.59,1.25-.74s.98-.24,1.51-.24c.49,0,.96.07,1.39.21.44.14.81.36,1.14.67.32.31.57.71.76,1.23.18.51.27,1.14.27,1.88v6.98c0,.58.08.94.24,1.1.16.16.48.12.96-.11v1.16c-.09.03-.22.08-.39.15s-.34.1-.5.1c-.18,0-.35-.02-.51-.07-.19-.03-.34-.11-.45-.24s-.21-.27-.27-.45c-.07-.17-.12-.36-.14-.57s-.04-.42-.04-.66c-.48.69-1.03,1.22-1.65,1.58-.62.36-1.29.54-2.01.54-.43,0-.84-.07-1.24-.22-.4-.15-.75-.38-1.05-.69-.3-.31-.54-.7-.72-1.15-.18-.45-.27-.99-.27-1.62,0-2.18,1.14-3.46,3.43-3.86l1.57-.27ZM181.45,77.09c-.48.26-.97.44-1.46.52-.49.08-.98.15-1.48.2-.87.08-1.55.34-2.04.77-.49.43-.73,1.08-.73,1.96,0,.4.06.74.18,1.03.12.29.28.53.47.72.2.19.42.33.68.42s.52.14.79.14c.45,0,.9-.07,1.33-.22.43-.15.81-.38,1.15-.68.33-.3.6-.69.8-1.16.2-.47.3-1.03.3-1.67v-2Z"/>
      <path class="cls-2" d="M188.58,83.87c-.14.03-.32.09-.55.17s-.48.12-.76.12c-.57,0-1-.19-1.3-.56-.3-.37-.45-1.04-.45-1.99v-9.38h-1.38v-1.24h1.38v-3.56h1.14v3.56h1.84v1.24h-1.84v8.79c0,.31,0,.59.02.82.01.23.05.42.11.57.06.15.16.26.29.32.13.07.32.1.56.1.15,0,.31-.02.46-.05.16-.03.31-.07.46-.12v1.21Z"/>
      <path class="cls-2" d="M200.59,76.34c.21-.03.47-.08.77-.15.3-.07.54-.16.73-.27.19-.11.31-.31.35-.58.04-.27.07-.52.07-.75,0-.76-.19-1.38-.56-1.87-.37-.49-1-.73-1.88-.73-.39,0-.75.05-1.08.14-.33.09-.62.25-.86.47-.25.22-.45.52-.61.89s-.26.84-.31,1.4h-1.16c.04-.76.17-1.41.4-1.94.23-.54.52-.97.88-1.31.36-.34.78-.59,1.25-.74s.98-.24,1.51-.24c.49,0,.96.07,1.39.21.44.14.81.36,1.14.67.32.31.57.71.76,1.23.18.51.27,1.14.27,1.88v6.98c0,.58.08.94.24,1.1.16.16.48.12.96-.11v1.16c-.09.03-.22.08-.39.15s-.34.1-.5.1c-.18,0-.35-.02-.51-.07-.19-.03-.34-.11-.45-.24s-.21-.27-.27-.45c-.07-.17-.12-.36-.14-.57s-.04-.42-.04-.66c-.48.69-1.03,1.22-1.65,1.58-.62.36-1.29.54-2.01.54-.43,0-.84-.07-1.24-.22-.4-.15-.75-.38-1.05-.69-.3-.31-.54-.7-.72-1.15-.18-.45-.27-.99-.27-1.62,0-2.18,1.14-3.46,3.43-3.86l1.57-.27ZM202.5,77.09c-.48.26-.97.44-1.46.52-.49.08-.98.15-1.48.2-.87.08-1.55.34-2.04.77-.49.43-.73,1.08-.73,1.96,0,.4.06.74.18,1.03.12.29.28.53.47.72.2.19.42.33.68.42s.52.14.79.14c.45,0,.9-.07,1.33-.22.43-.15.81-.38,1.15-.68.33-.3.6-.69.8-1.16.2-.47.3-1.03.3-1.67v-2Z"/>
      <path class="cls-2" d="M207.54,83.82h-1.14v-12.82h1.14v1.78c.45-.63.92-1.14,1.41-1.53.49-.4,1.07-.59,1.75-.59.61,0,1.17.14,1.69.41s.95.75,1.31,1.42c.24.46.38.94.43,1.42.04.49.07.99.07,1.52v8.39h-1.14v-8.36c0-1.16-.2-2.02-.59-2.6-.39-.58-1.04-.87-1.95-.87-.35,0-.68.07-.97.21-.29.14-.55.33-.79.56-.23.23-.43.5-.6.79-.16.3-.29.61-.38.94-.11.41-.18.81-.21,1.19-.03.38-.04.79-.04,1.24v6.9Z"/>
      <path class="cls-2" d="M226.52,84.16c-.63-.02-1.22-.16-1.77-.45-.55-.28-1.03-.7-1.44-1.26-.41-.56-.74-1.26-.98-2.1-.24-.84-.36-1.82-.36-2.95,0-.94.09-1.82.28-2.64.19-.82.47-1.53.85-2.14.38-.61.85-1.09,1.42-1.45.57-.35,1.23-.53,1.99-.53s1.44.18,2.01.53,1.04.83,1.42,1.44c.38.6.66,1.32.84,2.14s.27,1.71.27,2.65c0,1.02-.11,1.95-.32,2.77-.22.83-.52,1.53-.92,2.13-.4.59-.88,1.05-1.44,1.37-.56.32-1.18.48-1.87.48ZM229.85,77.41c0-.76-.06-1.47-.19-2.13-.13-.66-.32-1.23-.59-1.72-.27-.49-.61-.87-1.02-1.15-.42-.28-.93-.42-1.53-.42s-1.1.15-1.52.46c-.42.31-.77.71-1.03,1.21-.27.5-.46,1.08-.59,1.73s-.19,1.32-.19,2.02c0,.79.07,1.52.22,2.19s.36,1.24.63,1.72c.28.48.63.85,1.04,1.11.42.26.9.4,1.44.4.59,0,1.1-.15,1.52-.46.42-.3.77-.71,1.03-1.23.27-.51.46-1.09.59-1.73.13-.64.19-1.31.19-2Z"/>
      <path class="cls-2" d="M234.15,83.82h-1.14v-12.82h1.14v2.4h.04c.31-1.02.72-1.74,1.22-2.14.5-.4,1.16-.61,1.98-.61v1.61c-.64-.02-1.17.12-1.59.4-.42.28-.75.66-.99,1.14-.25.48-.42,1.04-.51,1.7-.09.65-.14,1.33-.14,2.04v6.29Z"/>
      <path class="cls-2" d="M246.18,66h1.14v17.82h-1.14v-2.25h-.04c-.16.43-.38.8-.63,1.13s-.54.59-.85.8c-.31.21-.63.38-.96.5-.33.11-.65.17-.97.17-.8,0-1.47-.17-2.03-.52-.56-.35-1.01-.82-1.37-1.42-.36-.6-.62-1.32-.79-2.14-.16-.82-.25-1.71-.25-2.65,0-.89.09-1.75.27-2.57.18-.82.45-1.55.8-2.17.36-.62.81-1.11,1.36-1.48.55-.37,1.2-.56,1.94-.56.69,0,1.36.2,2,.61.64.4,1.14,1,1.51,1.79v-7.05ZM246.18,77.36c0-.73-.08-1.41-.23-2.07s-.37-1.22-.65-1.71c-.28-.49-.63-.87-1.04-1.16-.41-.29-.87-.43-1.39-.43-.59,0-1.11.15-1.53.46-.43.31-.78.72-1.06,1.25-.28.53-.48,1.14-.61,1.84-.13.7-.18,1.46-.15,2.26,0,.81.08,1.52.26,2.14s.41,1.14.71,1.57c.3.43.66.75,1.06.98.4.22.85.33,1.33.33.53,0,1-.14,1.42-.42.42-.28.76-.66,1.04-1.15.28-.49.49-1.06.63-1.73s.22-1.39.22-2.17Z"/>
      <path class="cls-2" d="M249.86,68.2v-2.2h1.25v2.2h-1.25ZM249.92,83.82v-12.82h1.14v12.82h-1.14Z"/>
      <path class="cls-2" d="M254.73,83.82h-1.14v-12.82h1.14v1.78c.45-.63.92-1.14,1.41-1.53.49-.4,1.07-.59,1.75-.59.61,0,1.17.14,1.69.41s.95.75,1.31,1.42c.24.46.38.94.43,1.42.04.49.07.99.07,1.52v8.39h-1.14v-8.36c0-1.16-.2-2.02-.59-2.6-.39-.58-1.04-.87-1.95-.87-.35,0-.68.07-.97.21-.29.14-.55.33-.79.56-.23.23-.43.5-.6.79-.16.3-.29.61-.38.94-.11.41-.18.81-.21,1.19-.03.38-.04.79-.04,1.24v6.9Z"/>
      <path class="cls-2" d="M268.28,76.34c.21-.03.47-.08.77-.15.3-.07.54-.16.73-.27.19-.11.31-.31.35-.58.04-.27.07-.52.07-.75,0-.76-.19-1.38-.56-1.87-.37-.49-1-.73-1.88-.73-.39,0-.75.05-1.08.14-.33.09-.62.25-.86.47-.25.22-.45.52-.61.89-.16.37-.26.84-.31,1.4h-1.16c.04-.76.17-1.41.4-1.94s.52-.97.88-1.31c.36-.34.78-.59,1.25-.74.47-.16.98-.24,1.51-.24.49,0,.96.07,1.39.21.44.14.81.36,1.14.67.32.31.57.71.76,1.23.18.51.27,1.14.27,1.88v6.98c0,.58.08.94.24,1.1.16.16.48.12.96-.11v1.16c-.09.03-.22.08-.39.15s-.34.1-.5.1c-.18,0-.35-.02-.51-.07-.19-.03-.34-.11-.45-.24s-.21-.27-.27-.45c-.07-.17-.12-.36-.14-.57s-.04-.42-.04-.66c-.48.69-1.03,1.22-1.65,1.58-.62.36-1.29.54-2.01.54-.43,0-.84-.07-1.24-.22-.4-.15-.75-.38-1.05-.69-.3-.31-.54-.7-.72-1.15-.18-.45-.27-.99-.27-1.62,0-2.18,1.14-3.46,3.43-3.86l1.57-.27ZM270.19,77.09c-.48.26-.97.44-1.46.52-.49.08-.98.15-1.48.2-.87.08-1.55.34-2.04.77-.49.43-.73,1.08-.73,1.96,0,.4.06.74.18,1.03s.28.53.47.72c.2.19.42.33.68.42s.52.14.79.14c.45,0,.9-.07,1.33-.22.43-.15.81-.38,1.15-.68.33-.3.6-.69.81-1.16.2-.47.3-1.03.3-1.67v-2Z"/>
      <path class="cls-2" d="M275.26,83.82h-1.14v-12.82h1.14v2.4h.04c.31-1.02.72-1.74,1.22-2.14.5-.4,1.16-.61,1.98-.61v1.61c-.64-.02-1.17.12-1.59.4-.42.28-.75.66-.99,1.14-.25.48-.42,1.04-.51,1.7-.09.65-.14,1.33-.14,2.04v6.29Z"/>
      <path class="cls-2" d="M280.59,87.28c.15.03.31.07.46.1.16.03.32.05.48.05.31,0,.57-.13.78-.4.2-.26.37-.58.5-.95.13-.37.24-.76.33-1.16.09-.4.19-.75.3-1.03l-3.81-12.9h1.27l3.14,11.01,3.14-11.01h1.23l-3.66,12.65c-.23.81-.45,1.53-.65,2.18s-.43,1.19-.66,1.65c-.23.45-.49.8-.78,1.04-.28.24-.62.36-1.01.36-.2,0-.39-.02-.58-.05-.18-.03-.35-.07-.5-.12v-1.41Z"/>
      <path class="cls-2" d="M295.93,68.2v-2.2h1.25v2.2h-1.25ZM295.99,83.82v-12.82h1.14v12.82h-1.14Z"/>
      <path class="cls-2" d="M300.73,83.82h-1.14v-12.82h1.14v1.93h.04c.29-.74.71-1.31,1.25-1.7.54-.39,1.14-.58,1.78-.58.45,0,.84.07,1.16.2.32.13.58.31.81.53.22.22.4.48.55.78s.27.62.37.97c.33-.84.77-1.46,1.32-1.87.55-.4,1.18-.61,1.88-.61.67,0,1.2.14,1.6.43s.7.67.92,1.14c.21.47.36,1.01.43,1.62.07.61.1,1.24.1,1.88v8.09h-1.14v-8.86c0-.92-.15-1.65-.45-2.18-.3-.53-.85-.79-1.66-.79-.42,0-.82.12-1.2.36-.38.24-.72.61-1.01,1.1-.13.21-.23.47-.31.75s-.15.59-.2.9c-.05.31-.08.63-.1.94-.02.31-.03.6-.03.87v6.9h-1.14v-8.86c0-.92-.15-1.65-.45-2.18-.3-.53-.85-.79-1.66-.79-.42,0-.82.12-1.2.36-.39.24-.72.61-1.01,1.1-.13.21-.23.47-.31.75-.08.29-.15.59-.2.9-.05.31-.08.63-.1.94-.02.31-.03.6-.03.87v6.9Z"/>
      <path class="cls-2" d="M319.76,76.34c.21-.03.47-.08.77-.15.3-.07.54-.16.73-.27.19-.11.31-.31.35-.58.04-.27.07-.52.07-.75,0-.76-.19-1.38-.56-1.87-.37-.49-1-.73-1.88-.73-.39,0-.75.05-1.08.14-.33.09-.62.25-.86.47-.25.22-.45.52-.61.89s-.26.84-.31,1.4h-1.16c.04-.76.17-1.41.4-1.94.23-.54.52-.97.88-1.31.36-.34.78-.59,1.25-.74s.98-.24,1.51-.24c.49,0,.96.07,1.39.21.44.14.81.36,1.14.67.32.31.57.71.76,1.23.18.51.27,1.14.27,1.88v6.98c0,.58.08.94.24,1.1.16.16.48.12.96-.11v1.16c-.09.03-.22.08-.39.15s-.34.1-.5.1c-.18,0-.35-.02-.51-.07-.19-.03-.34-.11-.45-.24s-.21-.27-.27-.45c-.07-.17-.12-.36-.14-.57s-.04-.42-.04-.66c-.48.69-1.03,1.22-1.65,1.58-.62.36-1.29.54-2.01.54-.43,0-.84-.07-1.24-.22-.4-.15-.75-.38-1.05-.69-.3-.31-.54-.7-.72-1.15-.18-.45-.27-.99-.27-1.62,0-2.18,1.14-3.46,3.43-3.86l1.57-.27ZM321.67,77.09c-.48.26-.97.44-1.46.52-.49.08-.98.15-1.48.2-.87.08-1.55.34-2.04.77-.49.43-.73,1.08-.73,1.96,0,.4.06.74.18,1.03.12.29.28.53.47.72.2.19.42.33.68.42s.52.14.79.14c.45,0,.9-.07,1.33-.22.43-.15.81-.38,1.15-.68.33-.3.6-.69.8-1.16.2-.47.3-1.03.3-1.67v-2Z"/>
      <path class="cls-2" d="M8.71,101.93h1.14v11.58c0,.86-.07,1.68-.2,2.46-.13.78-.37,1.47-.71,2.07s-.81,1.07-1.4,1.42c-.59.35-1.36.53-2.29.53-.72,0-1.34-.12-1.86-.36-.52-.24-.94-.54-1.27-.9-.33-.36-.58-.76-.75-1.2s-.26-.85-.27-1.22h1.21c.09.48.23.87.42,1.18.19.3.41.54.67.72.26.17.55.29.86.36.32.07.64.1.98.1.77,0,1.39-.17,1.86-.52.47-.35.82-.8,1.06-1.36.24-.56.39-1.2.46-1.91.07-.71.1-1.44.08-2.18-.37.79-.87,1.39-1.51,1.79-.64.4-1.3.61-2,.61-.75,0-1.39-.19-1.94-.56-.55-.37-1-.87-1.36-1.49s-.63-1.34-.8-2.17c-.18-.82-.27-1.68-.27-2.57,0-.94.08-1.82.25-2.65.16-.82.43-1.54.79-2.14.36-.6.82-1.08,1.37-1.42.56-.35,1.23-.52,2.03-.52.32,0,.64.06.97.17.33.12.65.28.96.49.31.21.59.49.85.82.26.33.47.7.63,1.11h.04v-2.25ZM8.71,108.39c0-.78-.07-1.5-.22-2.17s-.36-1.25-.63-1.73c-.28-.49-.63-.87-1.04-1.15-.42-.28-.89-.42-1.42-.42-.48,0-.92.11-1.33.33-.4.22-.76.55-1.06.98-.3.43-.54.95-.71,1.57-.17.62-.26,1.33-.26,2.14-.03.81.02,1.56.15,2.26.13.7.33,1.32.61,1.84s.63.94,1.06,1.25c.43.31.94.46,1.53.46.52,0,.98-.14,1.39-.43.41-.29.76-.68,1.04-1.16.28-.49.5-1.06.65-1.71.15-.65.23-1.34.23-2.07Z"/>
      <path class="cls-2" d="M13.11,108.69c0,.69.07,1.35.21,1.97.14.62.34,1.16.62,1.61.27.45.62.82,1.03,1.09.42.27.9.41,1.44.41.74,0,1.38-.26,1.91-.77.53-.51.88-1.24,1.06-2.18h1.27c-.14.61-.32,1.18-.55,1.7-.23.52-.51.97-.85,1.36-.34.39-.75.69-1.21.9-.47.21-1.01.32-1.63.32-.78,0-1.46-.17-2.03-.52-.57-.35-1.04-.82-1.4-1.42-.37-.6-.64-1.31-.81-2.13s-.27-1.7-.27-2.64.1-1.82.31-2.65c.21-.82.51-1.55.89-2.17.39-.62.86-1.11,1.41-1.46.56-.35,1.19-.53,1.89-.53,1.35,0,2.41.61,3.18,1.82.77,1.21,1.15,2.97,1.14,5.28h-7.61ZM19.51,107.45c0-.63-.07-1.22-.2-1.77-.13-.55-.33-1.03-.59-1.44-.26-.4-.58-.73-.98-.97-.39-.24-.84-.36-1.34-.36s-.95.12-1.33.37c-.39.25-.71.58-.99.99s-.49.89-.65,1.44c-.16.54-.27,1.12-.32,1.73h6.4Z"/>
      <path class="cls-2" d="M28.73,99.14v-2.2h1.25v2.2h-1.25ZM28.79,114.75v-12.82h1.14v12.82h-1.14Z"/>
      <path class="cls-2" d="M33.6,114.75h-1.14v-12.82h1.14v1.78c.45-.63.92-1.14,1.41-1.53.49-.4,1.07-.59,1.75-.59.61,0,1.17.14,1.69.41s.95.75,1.31,1.42c.24.46.38.94.43,1.42.04.49.07.99.07,1.52v8.39h-1.14v-8.36c0-1.16-.2-2.02-.59-2.6-.39-.58-1.04-.87-1.95-.87-.35,0-.68.07-.97.21-.29.14-.55.33-.79.56-.23.23-.43.5-.6.79-.16.3-.29.61-.38.94-.11.41-.18.81-.21,1.19-.03.38-.04.79-.04,1.24v6.9Z"/>
      <path class="cls-2" d="M49.66,114.75h-1.14v-12.82h1.14v1.93h.04c.29-.74.71-1.31,1.25-1.7.54-.39,1.14-.58,1.78-.58.45,0,.84.07,1.16.2.32.13.58.31.8.53.22.22.4.48.55.78.14.3.27.62.37.97.33-.84.77-1.46,1.32-1.87.55-.4,1.18-.61,1.88-.61.67,0,1.2.14,1.6.43s.7.67.92,1.14.36,1.01.43,1.62c.07.61.1,1.24.1,1.88v8.09h-1.14v-8.86c0-.92-.15-1.65-.44-2.18-.3-.53-.85-.79-1.66-.79-.42,0-.82.12-1.2.36-.39.24-.72.61-1.01,1.1-.13.21-.23.47-.31.75s-.15.59-.2.9c-.05.31-.09.63-.1.94-.02.31-.03.6-.03.87v6.9h-1.14v-8.86c0-.92-.15-1.65-.45-2.18-.3-.53-.85-.79-1.66-.79-.42,0-.82.12-1.2.36-.39.24-.72.61-1.01,1.1-.13.21-.23.47-.31.75-.08.29-.15.59-.2.9-.05.31-.08.63-.1.94-.02.31-.03.6-.03.87v6.9Z"/>
      <path class="cls-2" d="M63.91,118.22c.15.03.31.07.46.1.16.03.32.05.48.05.32,0,.57-.13.78-.4.2-.26.37-.58.5-.95.13-.37.24-.76.33-1.16.09-.4.19-.75.3-1.03l-3.81-12.9h1.27l3.14,11.01,3.14-11.01h1.23l-3.66,12.65c-.23.81-.45,1.53-.65,2.18-.21.64-.43,1.19-.66,1.65-.23.45-.49.8-.78,1.04-.28.24-.62.36-1.01.36-.2,0-.39-.02-.58-.05s-.35-.07-.5-.12v-1.41Z"/>
      <path class="cls-2" d="M86.09,105.97c-.2-.96-.55-1.7-1.04-2.24-.49-.54-1.12-.8-1.88-.8-.58,0-1.08.16-1.5.47-.42.31-.76.73-1.02,1.25s-.46,1.11-.59,1.76c-.13.65-.19,1.31-.19,1.97s.06,1.34.18,1.98c.12.64.31,1.22.58,1.73.27.51.61.92,1.02,1.23.42.31.92.46,1.51.46.85,0,1.52-.3,2.04-.92.51-.61.84-1.45.98-2.52h1.21c-.1.71-.26,1.36-.48,1.94-.22.59-.51,1.09-.85,1.51s-.76.75-1.24.98c-.48.23-1.03.35-1.65.35-.78,0-1.46-.17-2.03-.52-.57-.35-1.04-.82-1.4-1.42-.37-.6-.64-1.32-.81-2.14-.18-.82-.27-1.71-.27-2.65,0-.89.1-1.74.29-2.56.2-.82.48-1.54.86-2.17s.85-1.13,1.41-1.5,1.21-.56,1.94-.56c1.14,0,2.05.35,2.76,1.06.7.71,1.14,1.82,1.32,3.32h-1.16Z"/>
      <path class="cls-2" d="M93.96,107.28c.21-.03.47-.08.77-.15.3-.07.54-.16.73-.27.19-.11.31-.31.35-.58.04-.27.07-.52.07-.75,0-.76-.19-1.38-.56-1.87-.37-.49-1-.73-1.88-.73-.39,0-.75.05-1.08.14-.33.09-.62.25-.86.47s-.45.52-.61.89-.26.84-.31,1.4h-1.16c.04-.76.17-1.41.4-1.94s.52-.97.88-1.31c.36-.34.78-.59,1.25-.74.47-.16.98-.24,1.51-.24.49,0,.96.07,1.39.21.44.14.81.36,1.14.67.32.31.57.71.76,1.23.18.51.27,1.14.27,1.88v6.98c0,.58.08.94.24,1.1.16.16.48.12.96-.11v1.16c-.09.03-.22.08-.39.15s-.34.1-.5.1c-.18,0-.35-.02-.51-.07-.19-.03-.34-.11-.45-.24-.11-.12-.21-.27-.27-.45-.07-.17-.12-.36-.14-.57s-.04-.42-.04-.66c-.48.69-1.03,1.22-1.65,1.58s-1.29.54-2.01.54c-.43,0-.84-.07-1.24-.22-.4-.15-.75-.38-1.05-.69-.3-.31-.54-.7-.72-1.15-.18-.45-.27-.99-.27-1.62,0-2.18,1.14-3.46,3.43-3.86l1.57-.27ZM95.87,108.02c-.48.26-.97.44-1.46.52-.49.08-.99.15-1.48.2-.87.08-1.55.34-2.04.77-.49.43-.73,1.08-.73,1.96,0,.4.06.74.18,1.03.12.29.28.53.47.72.2.19.42.33.68.42s.52.14.79.14c.45,0,.9-.07,1.33-.22.43-.15.81-.38,1.15-.68.33-.3.6-.69.8-1.16.2-.47.3-1.03.3-1.67v-2Z"/>
      <path class="cls-2" d="M100.84,114.75h-1.14v-12.82h1.14v1.93h.04c.29-.74.71-1.31,1.25-1.7.54-.39,1.14-.58,1.78-.58.45,0,.84.07,1.16.2.32.13.58.31.8.53.22.22.4.48.55.78s.27.62.37.97c.33-.84.77-1.46,1.32-1.87.55-.4,1.18-.61,1.88-.61.67,0,1.2.14,1.6.43.4.29.7.67.92,1.14s.36,1.01.43,1.62c.07.61.1,1.24.1,1.88v8.09h-1.14v-8.86c0-.92-.15-1.65-.45-2.18-.3-.53-.85-.79-1.66-.79-.42,0-.82.12-1.2.36-.39.24-.72.61-1.01,1.1-.13.21-.23.47-.31.75-.08.29-.15.59-.2.9-.05.31-.09.63-.1.94-.02.31-.03.6-.03.87v6.9h-1.14v-8.86c0-.92-.15-1.65-.45-2.18-.3-.53-.85-.79-1.66-.79-.42,0-.82.12-1.2.36-.39.24-.72.61-1.01,1.1-.13.21-.23.47-.31.75s-.15.59-.2.9c-.05.31-.09.63-.1.94-.02.31-.03.6-.03.87v6.9Z"/>
      <path class="cls-2" d="M116.14,108.69c0,.69.07,1.35.21,1.97.14.62.34,1.16.62,1.61.27.45.62.82,1.03,1.09.42.27.9.41,1.44.41.74,0,1.38-.26,1.91-.77.53-.51.88-1.24,1.06-2.18h1.27c-.14.61-.32,1.18-.55,1.7-.23.52-.51.97-.85,1.36-.34.39-.75.69-1.21.9-.47.21-1.01.32-1.63.32-.78,0-1.46-.17-2.03-.52-.57-.35-1.04-.82-1.4-1.42-.37-.6-.64-1.31-.81-2.13s-.27-1.7-.27-2.64.1-1.82.31-2.65c.21-.82.51-1.55.89-2.17.39-.62.86-1.11,1.41-1.46.56-.35,1.19-.53,1.89-.53,1.35,0,2.41.61,3.18,1.82.77,1.21,1.15,2.97,1.14,5.28h-7.61ZM122.55,107.45c0-.63-.07-1.22-.2-1.77-.13-.55-.33-1.03-.59-1.44-.26-.4-.58-.73-.98-.97-.39-.24-.84-.36-1.34-.36s-.95.12-1.33.37c-.39.25-.71.58-.99.99s-.49.89-.65,1.44c-.16.54-.27,1.12-.32,1.73h6.4Z"/>
      <path class="cls-2" d="M126.89,114.75h-1.14v-12.82h1.14v2.4h.04c.32-1.02.72-1.74,1.22-2.14.5-.4,1.16-.61,1.98-.61v1.61c-.64-.02-1.17.12-1.59.4-.42.28-.75.66-.99,1.14-.25.48-.42,1.04-.51,1.7-.09.65-.14,1.33-.14,2.04v6.29Z"/>
      <path class="cls-2" d="M136,107.28c.21-.03.47-.08.77-.15.3-.07.54-.16.73-.27.19-.11.31-.31.35-.58.04-.27.07-.52.07-.75,0-.76-.19-1.38-.56-1.87-.37-.49-1-.73-1.88-.73-.39,0-.75.05-1.08.14-.33.09-.62.25-.86.47s-.45.52-.61.89-.26.84-.31,1.4h-1.16c.04-.76.17-1.41.4-1.94s.52-.97.88-1.31c.36-.34.78-.59,1.25-.74.47-.16.98-.24,1.51-.24.49,0,.96.07,1.39.21.44.14.81.36,1.14.67.32.31.57.71.76,1.23.18.51.27,1.14.27,1.88v6.98c0,.58.08.94.24,1.1.16.16.48.12.96-.11v1.16c-.09.03-.22.08-.39.15s-.34.1-.5.1c-.18,0-.35-.02-.51-.07-.19-.03-.34-.11-.45-.24-.11-.12-.21-.27-.27-.45-.07-.17-.12-.36-.14-.57s-.04-.42-.04-.66c-.48.69-1.03,1.22-1.65,1.58s-1.29.54-2.01.54c-.43,0-.84-.07-1.24-.22-.4-.15-.75-.38-1.05-.69-.3-.31-.54-.7-.72-1.15-.18-.45-.27-.99-.27-1.62,0-2.18,1.14-3.46,3.43-3.86l1.57-.27ZM137.91,108.02c-.48.26-.97.44-1.46.52-.49.08-.99.15-1.48.2-.87.08-1.55.34-2.04.77-.49.43-.73,1.08-.73,1.96,0,.4.06.74.18,1.03.12.29.28.53.47.72.2.19.42.33.68.42s.52.14.79.14c.45,0,.9-.07,1.33-.22.43-.15.81-.38,1.15-.68.33-.3.6-.69.8-1.16.2-.47.3-1.03.3-1.67v-2Z"/>
      <path class="cls-2" d="M148.9,114.75h-1.14v-12.82h1.14v2.4h.04c.32-1.02.72-1.74,1.22-2.14.5-.4,1.16-.61,1.98-.61v1.61c-.64-.02-1.17.12-1.59.4-.42.28-.75.66-.99,1.14-.25.48-.42,1.04-.51,1.7-.09.65-.14,1.33-.14,2.04v6.29Z"/>
      <path class="cls-2" d="M157.41,115.1c-.63-.02-1.22-.16-1.77-.45s-1.03-.7-1.44-1.26c-.41-.56-.74-1.26-.98-2.1-.24-.84-.36-1.82-.36-2.95,0-.94.09-1.82.28-2.64.19-.82.47-1.53.85-2.14.38-.61.85-1.09,1.42-1.45s1.23-.53,1.99-.53,1.44.18,2.01.53c.57.35,1.04.83,1.42,1.44.38.6.66,1.32.84,2.14.18.83.27,1.71.27,2.65,0,1.02-.11,1.95-.32,2.77-.21.83-.52,1.53-.92,2.13s-.88,1.05-1.44,1.37-1.18.48-1.87.48ZM160.75,108.34c0-.76-.06-1.47-.19-2.13-.13-.66-.32-1.23-.59-1.72-.27-.49-.61-.87-1.02-1.15-.42-.28-.93-.42-1.53-.42s-1.1.15-1.52.46c-.42.31-.77.71-1.03,1.21-.27.5-.46,1.08-.59,1.73-.13.65-.19,1.32-.19,2.02,0,.79.07,1.52.22,2.19s.36,1.24.63,1.72c.28.48.62.85,1.04,1.11s.9.4,1.44.4c.59,0,1.1-.15,1.52-.46.42-.3.77-.71,1.03-1.23.27-.51.46-1.09.59-1.73.13-.64.19-1.31.19-2Z"/>
      <path class="cls-2" d="M163.98,114.75v-17.82h1.14v17.82h-1.14Z"/>
      <path class="cls-2" d="M167.73,114.75v-17.82h1.14v17.82h-1.14Z"/>
      <path class="cls-2" d="M171.77,114.75v-2.18h1.38v2.18h-1.38Z"/>
    </g>
  </g>
  <rect class="cls-3" x="329" width="1" height="114.75"/>
</svg>